<svg xmlns="http://www.w3.org/2000/svg" viewBox="0 0 266.9 266.9" enable-background="new 0 0 266.9 266.9"><path fill="#A6A6A6" d="M224 266.9h-181.1c-23.6 0-42.9-19.3-42.9-42.9v-181.1c0-23.6 19.3-42.9 42.9-42.9h181.1c23.6 0 42.9 19.3 42.9 42.9v181.1c0 23.6-19.3 42.9-42.9 42.9z"/><path fill="#fff" d="M214.1 83.4c-5.9 2.6-12.3 4.4-19 5.2 6.8-4.1 12.1-10.6 14.6-18.3-6.4 3.8-13.5 6.6-21 8-6-6.4-14.6-10.5-24.2-10.5-18.3 0-33.1 14.8-33.1 33.1 0 2.6.3 5.1.9 7.5-27.6-1.3-52-14.4-68.3-34.5-2.9 4.9-4.5 10.6-4.5 16.6 0 11.5 5.8 21.6 14.7 27.6-5.4-.2-10.5-1.7-15-4.1v.4c0 16 11.4 29.4 26.6 32.5-2.8.8-5.7 1.2-8.7 1.2-2.1 0-4.2-.2-6.2-.6 4.2 13.2 16.4 22.7 30.9 23-11.3 8.9-25.6 14.2-41.1 14.2-2.7 0-5.3-.2-7.9-.5 14.7 9.4 32.1 14.9 50.8 14.9 60.9 0 94.2-50.5 94.2-94.2 0-1.4 0-2.9-.1-4.3 6.4-4.7 12-10.6 16.4-17.2z"/></svg>