<?xml version="1.0" encoding="utf-8"?>
<!-- Generator: Adobe Illustrator 18.1.1, SVG Export Plug-In . SVG Version: 6.00 Build 0)  -->
<svg version="1.1" id="Layer_1" xmlns="http://www.w3.org/2000/svg" xmlns:xlink="http://www.w3.org/1999/xlink" x="0px" y="0px"
	 viewBox="0 0 237.5 132.7" enable-background="new 0 0 237.5 132.7" xml:space="preserve">
<g>
	<g>
		<path fill="none" stroke="#000000" stroke-miterlimit="10" stroke-dasharray="7" d="M155.3,76.4"/>
	</g>
</g>
<g>
	<g>
		<g>
			<path d="M54.7,120.6l-0.5-0.8c1.3-0.8,2.6-1.5,3.8-2.2l0.5,0.8C57.3,119,56,119.8,54.7,120.6z M64.5,115.3l-0.4-0.9
				c2.2-1,4.3-1.8,6.4-2.4l0.3,0.9C68.7,113.6,66.7,114.4,64.5,115.3z M77.2,111.6l-0.1-1c2.3-0.3,4.4-0.4,6.4-0.4l0.3,0l0,1l-0.3,0
				C81.6,111.3,79.5,111.3,77.2,111.6z M90.7,110.7l-0.1-1c2.2-0.3,4.3-0.9,6.4-1.7l0.3,0.9C95.1,109.7,92.9,110.3,90.7,110.7z
				 M103.4,106l-0.5-0.8l2.2-1.2c1.4-0.8,2.6-1.5,3.7-2.1l0.5,0.8c-1,0.6-2.2,1.3-3.7,2.1L103.4,106z M115.3,99.6l-0.4-0.9
				c1.5-0.7,3.3-1.4,5.6-2.4l0.6-0.3l0.4,0.9l-0.6,0.2C118.5,98.2,116.8,98.9,115.3,99.6z M127.8,94.9l-0.3-0.9
				c2.1-0.6,4.2-1.1,6.6-1.5l0.2,0.9C132,93.8,129.8,94.3,127.8,94.9z M141,92.2l-0.1-1l1.7-0.2c1.7-0.2,3.3-0.5,5-0.7l0.2,1
				c-1.6,0.3-3.3,0.5-5,0.8L141,92.2z M154.3,89.8l-0.3-0.9c0.9-0.3,1.8-0.5,2.7-0.8c1.2-0.4,2.5-0.9,3.6-1.4l0.4,0.9
				c-1.2,0.5-2.4,1-3.7,1.4C156.2,89.3,155.3,89.6,154.3,89.8z M166.9,84.7l-0.4-0.9c2.3-1.2,4.4-2.4,5.9-3.3l0.5,0.8
				C171.3,82.3,169.2,83.5,166.9,84.7z M178.6,77.9l-0.5-0.8c2.3-1.3,4.1-2.3,6-3.2l0.4,0.9C182.6,75.7,180.8,76.6,178.6,77.9z
				 M190.8,72.7l-0.1-1c1.6-0.3,3.9-0.5,6.8-0.7l0.1,1C194.6,72.2,192.4,72.5,190.8,72.7z M204.2,71.6l-0.1-1l0.1,0
				c2.4-0.1,4.7-0.3,6.6-0.4l0.1,1C209,71.3,206.7,71.5,204.2,71.6L204.2,71.6z M217.7,69.9l-0.4-0.9c1.5-0.6,3.6-1.5,6.2-2.7
				l0.4,0.9C221.3,68.3,219.2,69.3,217.7,69.9z M230,64.2l-0.4-0.9c3.4-1.7,6.1-3,6.1-3l0.4,0.9C236.1,61.2,233.5,62.5,230,64.2z"/>
		</g>
	</g>
</g>
<g>
	<g>
		<g>
			<path d="M28.6,105.3l-0.5-0.8c1.4-0.8,2.8-1.6,4.1-2.3l0.5,0.8C31.3,103.7,30,104.5,28.6,105.3z M38.6,100l-0.4-0.9
				c2.3-1,4.4-1.8,6.4-2.4l0.3,0.9C43,98.2,40.9,99,38.6,100z M57.8,97c-1.1,0-2.1-0.1-3.1-0.2c-1-0.1-2.1-0.2-3.2-0.2l-0.1-1
				c1.2,0,2.3,0.1,3.4,0.2c1,0.1,2,0.1,3,0.1l0.3,0l0,1L57.8,97z M64.9,95.8l-0.3-0.9c1.8-0.6,3.8-1.5,6.1-2.8l0.5,0.8
				C68.8,94.2,66.8,95.1,64.9,95.8z M77,89.7l-0.4-0.9c2.5-1.3,4.1-1.9,6.2-2.7l0.3,0.9C81.1,87.9,79.6,88.5,77,89.7z M89.5,84.7
				l-0.4-0.9c2.1-0.8,4.2-1.6,6.4-2.3l0.3,0.9C93.6,83.1,91.5,83.8,89.5,84.7z M102.3,80.7l-0.2-0.9c2.4-0.5,4.7-1,6.6-1.4l0.2,0.9
				C107,79.8,104.7,80.2,102.3,80.7z M115.6,78.1l-0.2-0.9c2.6-0.5,4.7-1,6.5-1.5l0.3,0.9C120.3,77.1,118.2,77.6,115.6,78.1z
				 M128.6,74.3l-0.4-0.9c2.1-0.8,4.1-1.8,6.1-2.8l0.4,0.9C132.7,72.6,130.7,73.5,128.6,74.3z M140.7,68.2l-0.5-0.8
				c0.9-0.5,1.7-1.1,2.6-1.6c1.1-0.7,2.1-1.3,3.2-1.9l0.5,0.8c-1.1,0.6-2.1,1.3-3.2,1.9C142.4,67.2,141.6,67.7,140.7,68.2z
				 M152.4,61.6l-0.4-0.9c1.2-0.6,2.4-1.1,3.7-1.6c0.7-0.3,1.6-0.5,2.8-0.7l0.2,0.9c-1.1,0.2-2,0.5-2.6,0.7
				C154.8,60.5,153.6,61,152.4,61.6z M165.3,58.4l-0.1-1c1.8-0.2,3.7-0.4,5.6-0.6l1.2-0.1l0.1,1l-1.2,0.1
				C169,57.9,167.1,58.1,165.3,58.4z M178.7,56.7l-0.2-1c1.1-0.2,1.9-0.3,2.3-0.5c1.1-0.3,2.8-0.5,4.4-0.5l0,1
				c-1.6,0.1-3.1,0.2-4.1,0.5C180.7,56.4,179.9,56.6,178.7,56.7z M192.1,55.5l-0.1-1c2.5-0.2,4.7-0.4,6.6-0.8l0.2,0.9
				C196.9,55.1,194.7,55.3,192.1,55.5z M205.4,52.6l-0.4-0.9c2.1-1,3.9-2.2,5.4-3.7l0.7,0.7C209.5,50.3,207.6,51.6,205.4,52.6z"/>
		</g>
	</g>
</g>
<g>
	<g>
		<g>
			<path fill="#FFFFFF" d="M21.2,71.2c-1.5,0-2.1,0.5-2.7,2.2c-0.6,1.6-0.9,3.4-0.3,5.1c0.6,1.7,2.2,1.7,3.3,0.8
				c1.1-0.8,1.8-3.1,1.7-4.6C23.1,72.9,22.2,71.3,21.2,71.2z"/>
		</g>
	</g>
	<g>
		<g>
			<path d="M20,80.5L20,80.5c-1,0-1.8-0.6-2.2-1.7c-0.7-2-0.3-4.1,0.3-5.5c0.6-1.6,1.3-2.5,3.1-2.5l0.1,0c1.4,0.1,2.4,2.1,2.5,4
				c0.1,1.6-0.6,4-1.9,5C21.3,80.2,20.6,80.5,20,80.5z M21.2,71.7c-1.2,0-1.7,0.4-2.3,1.9c-0.5,1.2-0.9,3-0.3,4.8
				c0.3,0.7,0.7,1.1,1.3,1.1l0,0c0.4,0,0.9-0.2,1.3-0.5c0.9-0.7,1.6-2.7,1.5-4.2C22.6,73,21.7,71.8,21.2,71.7z"/>
		</g>
	</g>
</g>
<g>
	<g>
		<g>
			<path fill="#FFFFFF" d="M22.2,60.1c-3.3-1.4-4.9,3.9-3.6,6.8c1.6,3.7,5.6,2.7,5.3-1.8C23.8,63.6,23.2,60.2,22.2,60.1z"/>
		</g>
	</g>
	<g>
		<g>
			<path d="M21.3,69.7L21.3,69.7c-1.3,0-2.5-1-3.2-2.6c-0.8-1.9-0.5-4.6,0.6-6.3c0.9-1.3,2.2-1.8,3.6-1.2c1.7,0.3,2,5.2,2.1,5.5
				c0.1,1.6-0.3,2.9-1.1,3.7C22.7,69.4,22,69.7,21.3,69.7z M21.1,60.4c-0.8,0-1.3,0.6-1.7,1c-0.9,1.4-1.1,3.8-0.5,5.4
				c0.5,1.2,1.4,2,2.3,2c0.5,0,0.9-0.2,1.3-0.6c0.6-0.6,0.9-1.7,0.8-3c-0.1-2.4-0.9-4.5-1.3-4.6l-0.2,0
				C21.7,60.5,21.4,60.4,21.1,60.4z"/>
		</g>
	</g>
</g>
<g>
	<g>
		<g>
			<path fill="#ED1C24" d="M22.4,49c-0.9-0.8-2.6,0-3.3,1c-1,1.5-0.9,3.8-0.5,5.5c0.4,1.6,1.1,2.1,2.5,2c1.7-0.2,2.6-1.5,2.8-3.5
				C24.1,52,23.8,48.5,22.4,49z"/>
		</g>
	</g>
	<g>
		<g>
			<path d="M20.7,58c-1.7,0-2.3-1.3-2.5-2.4c-0.4-1.7-0.5-4.2,0.6-5.9c0.8-1.2,2.7-1.9,3.8-1.2c0.3,0,0.7,0,1.1,0.4
				c0.9,1,1,3.6,0.9,5.1c-0.3,3-1.9,3.8-3.2,4C21,58,20.8,58,20.7,58z M21.4,49.2c-0.7,0-1.5,0.5-1.9,1.1c-0.9,1.4-0.8,3.7-0.4,5.1
				c0.4,1.6,1,1.7,2,1.6c1.4-0.2,2.2-1.2,2.4-3.1c0.1-1.6-0.1-3.8-0.6-4.4c-0.2-0.2-0.2-0.1-0.3-0.1l-0.3,0.1l-0.2-0.2
				C21.9,49.3,21.7,49.2,21.4,49.2z"/>
		</g>
	</g>
</g>
<g>
	<g>
		<g>
			<g>
				<polygon fill="#FFFFFF" points="133.9,2.5 110.5,50.7 47.3,57.3 88,88.9 107.6,94.5 178.7,68 197.6,18.8 154.4,39.7 				"/>
			</g>
		</g>
	</g>
	<g>
		<g>
			<g>
				<g>
					<polygon fill="#FFFFFF" points="47.3,57.3 124.6,62 169.1,49.6 197.6,18.8 178.7,68 107.6,94.5 					"/>
				</g>
			</g>
			<g>
				<g>
					<path d="M107.6,95l-0.2-0.1L47.1,57.7l-1-0.9h0.7l77.7,4.7l44.3-12.3l29-31.3l0.9-0.5l-19.7,51L107.6,95z M49.2,57.9l58.5,36
						l70.6-26.3l18-46.7l-27,29.1l-0.1,0l-45.4,12.3l0.3,0.1L49.2,57.9z"/>
				</g>
			</g>
		</g>
		<g>
			<g>
				<g>
					<polygon points="107.5,94.9 87.7,89.3 47,57.7 47.6,56.9 88.2,88.4 107.8,94 					"/>
				</g>
			</g>
		</g>
		<g>
			<g>
				<g>
					<polygon points="108.1,94.7 107.2,94.2 123.8,61.8 124.3,62.1 					"/>
				</g>
			</g>
		</g>
		<g>
			<g>
				<g>
					<rect x="163.5" y="58.3" transform="matrix(0.4631 0.8863 -0.8863 0.4631 145.4421 -122.5522)" width="20.8" height="1"/>
				</g>
			</g>
		</g>
		<g>
			<g>
				<g>
					<polyline fill="#FFFFFF" points="105.1,60.7 133.9,2.5 161,51.6 					"/>
				</g>
			</g>
			<g>
				<g>
					<polygon points="105.5,61 104.6,60.5 133.9,1.4 161.4,51.4 160.5,51.8 134,3.5 					"/>
				</g>
			</g>
		</g>
		<g>
			<g>
				<g>
					<polygon points="138.3,57.2 133.5,2.5 134.4,2.4 146.8,55.1 145.9,55.3 135,9.2 139.3,57.1 					"/>
				</g>
			</g>
		</g>
		<g>
			<g>
				<g>
					<line fill="#FFFFFF" x1="154.4" y1="39.7" x2="197.6" y2="18.8"/>
				</g>
			</g>
			<g>
				<g>
					<rect x="175.5" y="5.2" transform="matrix(0.4355 0.9002 -0.9002 0.4355 125.6834 -141.9637)" width="1" height="48"/>
				</g>
			</g>
		</g>
		<g>
			<g>
				<g>
					<rect x="78.5" y="22.2" transform="matrix(0.1035 0.9946 -0.9946 0.1035 124.4772 -30.102)" width="1" height="63.5"/>
				</g>
			</g>
		</g>
	</g>
</g>
<g>
	<g>
		<g>
			<polygon fill="#B7B7B7" points="155.4,39.6 195.4,19.8 169.1,49.6 161,51.6 			"/>
		</g>
	</g>
</g>
<g>
	<g>
		<g>
			<polygon fill="#42A147" points="155.4,39.6 195.4,19.8 187,30.2 157.8,45.8 			"/>
		</g>
	</g>
</g>
<g>
	<g>
		<g>
			<polygon fill="#42A147" points="109.4,50.9 52.3,56.8 78.7,60 106.6,57.7 			"/>
		</g>
	</g>
</g>
<g>
	<g>
		<g>
			<polygon fill="#B7B7B7" points="105.1,60.7 107.5,55.4 76.3,59 			"/>
		</g>
	</g>
</g>
<g>
	<g>
		<g>
			<polygon fill="#30783B" points="159.9,37.4 166.8,41.1 158,45.8 155.1,39.9 			"/>
		</g>
	</g>
</g>
<g>
	<g>
		<g>
			<polygon fill="#929392" points="166.8,41.1 173.6,44.7 169.1,49.6 161,51.6 157.8,45.8 			"/>
		</g>
	</g>
</g>
<g>
	<g>
		<g>
			<polygon fill="#30783B" points="99,51.5 93.8,56.8 107.8,55.4 109.9,50.8 			"/>
		</g>
	</g>
</g>
<g>
	<g>
		<g>
			<polygon fill="#929392" points="107.8,55.4 105.3,60.7 90.4,60.1 93.8,56.8 			"/>
		</g>
	</g>
</g>
<g>
	<g>
		<g>
			<polygon fill="#B7B7B7" points="47.3,57.3 123.8,62.3 107.6,94.5 			"/>
		</g>
	</g>
</g>
<g>
	<g>
		<g>
			<polygon fill="#373737" points="105.1,60.7 84.1,79.9 47.3,57.3 72.5,59.3 			"/>
		</g>
	</g>
</g>
<g opacity="0.61">
	<g>
		<g>
			<polygon fill="#B7B7B7" points="124.3,62.1 108.7,93.9 178.7,68 169.1,49.6 			"/>
		</g>
	</g>
</g>
<g>
	<g>
		<g>
			<polygon fill="#FFFFFF" points="108.7,67.4 116.8,74.2 153.8,61.3 144,80.7 107.6,94.5 92,84.8 			"/>
		</g>
	</g>
	<g>
		<g>
			<path d="M107.6,95L91.2,84.9l17.4-18.1l8.2,6.9l37.8-13.3l-10.4,20.7L107.6,95z M92.7,84.7l15,9.2l36-13.6l9.1-18.2l-36.1,12.7
				l-8-6.7L92.7,84.7z"/>
		</g>
	</g>
</g>
<g opacity="0.35">
	<g>
		<g>
			<polygon fill="#B7B7B7" points="108.7,67.4 103.2,73.6 113.6,82.1 147.9,72 152.8,62.1 116.5,74.7 			"/>
		</g>
	</g>
</g>
<g>
	<g>
		<g>
			<polygon points="113.5,82.7 102.7,74.4 103.3,73.7 113.7,81.6 148.5,71.5 148.8,72.4 			"/>
		</g>
	</g>
</g>
<g opacity="0.17">
	<g>
		<g>
			<polygon points="123.8,62.3 107,94.5 83.5,79.9 104.4,60.7 			"/>
		</g>
	</g>
</g>
<g>
	<g>
		<g>
			<polygon points="112.4,85.8 106.4,81.8 107,81 112.5,84.7 136.1,77.8 136.3,78.7 			"/>
		</g>
	</g>
</g>
<g>
	<g>
		<g>
			<polygon points="109.8,90.2 103.5,85.3 104.1,84.6 109.9,89.1 136.2,80.3 136.5,81.2 			"/>
		</g>
	</g>
</g>
<g>
	<g>
		<g>
			<g>
				<rect x="107.1" y="74.4" transform="matrix(0.9797 0.2006 -0.2006 0.9797 17.2267 -20.2802)" width="3.1" height="1"/>
			</g>
		</g>
	</g>
	<g>
		<g>
			<g>
				<path d="M112.2,78.1c-0.9,0-1.8-0.5-2.3-1.3c-0.3-0.6-0.4-1.3-0.2-1.9c0.2-0.7,0.6-1.2,1.2-1.6c0.4-0.2,0.8-0.3,1.3-0.3
					c0.9,0,1.8,0.5,2.3,1.3c0.3,0.6,0.4,1.3,0.2,1.9c-0.2,0.7-0.6,1.2-1.2,1.6C113.1,77.9,112.7,78.1,112.2,78.1z M112.2,73.9
					c-0.3,0-0.6,0.1-0.8,0.2c-0.4,0.2-0.7,0.6-0.8,1c-0.1,0.4-0.1,0.8,0.2,1.2c0.4,0.7,1.5,1,2.3,0.6c0.4-0.2,0.7-0.6,0.8-1
					c0.1-0.4,0.1-0.8-0.2-1.2C113.4,74.3,112.8,73.9,112.2,73.9z"/>
			</g>
		</g>
	</g>
</g>
<g>
	<g>
		<g>
			<path d="M138.4,74l2.1-6.8l9-3.3l-3,7.6L138.4,74z M141.2,67.9l-1.4,4.6l5.9-1.9l2-5.2L141.2,67.9z"/>
		</g>
	</g>
</g>
<g>
	<g>
		<g>
			<path fill="#42A147" d="M143.1,70.6L143.1,70.6c-0.2,0-0.3-0.1-0.4-0.2l-0.9-1.1l0.8-0.6l0.5,0.7l2-2.3l0.7,0.6l-2.4,2.7
				C143.4,70.6,143.3,70.6,143.1,70.6z"/>
		</g>
	</g>
</g>
<g>
	<g>
		<g>
			<polygon fill="#A4A4A3" points="197.6,18.8 169.1,49.6 178.7,68 			"/>
		</g>
	</g>
</g>
<g opacity="0.81">
	<g>
		<g>
			<polygon fill="#B7B7B7" points="132.9,4.7 105.1,60.7 123.3,61.9 138.8,57.1 			"/>
		</g>
	</g>
</g>
<g>
	<g>
		<g>
			<polygon fill="#757776" points="107.8,55.7 124,54.5 138.4,53.6 138.7,57.3 123.3,61.9 105.4,60.4 			"/>
		</g>
	</g>
</g>
<g>
	<g>
		<g>
			<polygon fill="#545554" points="135.2,7.8 138.9,57.4 146.4,55.2 			"/>
		</g>
	</g>
</g>
<g>
	<g>
		<g>
			<path fill="#333333" d="M132.4,5.9c0.3,1.2,6.5,52.1,6.5,52.1l3.9-1.4l-8.8-54.2L132.4,5.9z"/>
		</g>
	</g>
</g>
<g>
	<g>
		<g>
			<polygon points="138.3,57.4 132.4,4.7 133.3,4.6 139.3,57.2 			"/>
		</g>
	</g>
</g>
<g>
	<g>
		<g>
			<polygon fill="#B7B7B7" points="146.5,55.2 160.2,52 135.3,6 			"/>
		</g>
	</g>
</g>
<g>
	<g>
		<g>
			<rect x="113.1" y="28.4" transform="matrix(0.2293 0.9734 -0.9734 0.2293 136.1005 -114.1839)" width="54.2" height="1"/>
		</g>
	</g>
</g>
<g>
	<g>
		<g>
			<polygon fill="#757776" points="146.1,51.8 159.3,50.2 160.2,52 146.7,55.3 			"/>
		</g>
	</g>
</g>
<g>
	<g>
		<g>
			<polygon points="123.4,62.4 50.1,57.9 50.1,57 123.3,61.4 168.8,49.1 195.1,19.5 195.8,20.2 169.3,50 			"/>
		</g>
	</g>
</g>
<g>
	<g>
		<g>
			<polygon fill="#A4A4A3" points="52.6,60.5 88,88.9 104.7,93.9 			"/>
		</g>
	</g>
</g>
<g>
	<g>
		<g>
			<path fill="#A4A4A3" d="M71.7,76.2"/>
		</g>
	</g>
</g>
<g>
	<g>
		<g>
			<polygon fill="#262626" points="49.1,57.5 70.6,75.7 83.1,80 			"/>
		</g>
	</g>
</g>
<g>
	<g>
		<g>
			<g>
				<g>
					<path fill="#FFFFFF" d="M68.2,72.1l-0.2-0.1l0.2-0.2l-1.3-1L66.8,71l-0.2-0.1l0.4-0.4l0.2,0.1L67,70.7l1.3,1l0.2-0.2l0.2,0.1
						L68.2,72.1z"/>
				</g>
			</g>
		</g>
		<g>
			<g>
				<g>
					<path fill="#FFFFFF" d="M70.3,73.3c0,0.1-0.1,0-0.3,0c-0.2-0.1-0.3-0.2-0.6-0.4c-0.1-0.1-0.3-0.2-0.4-0.3
						c-0.1-0.1-0.2-0.2-0.2-0.3s0-0.1,0-0.2c0-0.1,0.1,0,0.3,0c0.2,0.1,0.3,0.2,0.6,0.4c0.2,0.2,0.4,0.3,0.5,0.4
						C70.3,73.2,70.3,73.3,70.3,73.3z M69,72.4c0,0,0,0.1,0.1,0.2c0.1,0.1,0.2,0.2,0.4,0.4c0.2,0.1,0.3,0.2,0.4,0.3
						c0.1,0,0.2,0.1,0.2,0c0,0,0-0.1-0.1-0.2c-0.1-0.1-0.2-0.2-0.4-0.4c-0.2-0.1-0.3-0.2-0.4-0.3C69.1,72.3,69,72.3,69,72.4z"/>
				</g>
			</g>
		</g>
		<g>
			<g>
				<g>
					<path fill="#FFFFFF" d="M72.6,75.4l0.2-0.2c0,0,0-0.1,0-0.1c0-0.1-0.1-0.1-0.3-0.2c-0.2-0.1-0.3-0.2-0.4-0.3
						c-0.1,0-0.2,0-0.2,0l-0.2,0.2l-0.2-0.1l0.2-0.2c0-0.1-0.1-0.2-0.3-0.4c-0.2-0.1-0.3-0.2-0.4-0.3c-0.1,0-0.2,0-0.2,0L70.7,74
						l-0.1-0.1l0.3-0.3l0.1,0.1l0,0.1l0,0c0.1,0,0.1,0.1,0.2,0.1c0.1,0.1,0.2,0.1,0.3,0.2c0.3,0.2,0.4,0.3,0.4,0.4l0,0
						c0.1,0,0.2,0.1,0.2,0.1c0.1,0.1,0.2,0.1,0.3,0.2c0.2,0.1,0.3,0.2,0.4,0.3s0.1,0.2,0.1,0.2l-0.2,0.2L72.6,75.4z"/>
				</g>
			</g>
		</g>
		<g>
			<g>
				<g>
					<path fill="#FFFFFF" d="M73.9,76.4c-0.2-0.2-0.4-0.3-0.5-0.5c-0.1-0.1-0.1-0.2-0.1-0.3c0-0.1,0.1,0,0.3,0
						c0.2,0.1,0.3,0.2,0.6,0.3c0.2,0.1,0.3,0.3,0.4,0.4c0.1,0.1,0.1,0.2,0.1,0.2l0,0l-1.2-0.9c0,0,0,0.1,0.1,0.2
						C73.6,76.1,73.8,76.2,73.9,76.4c0.1,0,0.2,0.1,0.3,0.2s0.2,0.1,0.3,0.2l0,0c-0.1-0.1-0.2-0.1-0.3-0.2
						C74.1,76.5,74,76.5,73.9,76.4z M74.2,76.1c-0.2-0.1-0.3-0.2-0.4-0.3c-0.1-0.1-0.2-0.1-0.2,0l1,0.8c0,0,0-0.1,0-0.2
						C74.4,76.3,74.3,76.2,74.2,76.1z"/>
				</g>
			</g>
		</g>
	</g>
	<g>
		<g>
			<g>
				<g>
					<g>
						<path fill="#FFFFFF" d="M64,68.2c0.7,0.6,1.2,1.1,1.1,1.3c-0.1,0.2-0.8-0.2-1.6-0.7c-0.7-0.6-1.2-1.1-1.1-1.3
							C62.5,67.3,63.2,67.6,64,68.2 M64,68.1c-0.8-0.6-1.6-1-1.8-0.8c-0.1,0.2,0.4,0.8,1.2,1.5c0.8,0.6,1.6,1,1.8,0.8
							C65.4,69.4,64.8,68.8,64,68.1L64,68.1z"/>
					</g>
				</g>
			</g>
		</g>
		<g>
			<g>
				<g>
					<g>
						
							<rect x="61.8" y="68.9" transform="matrix(0.7954 0.6061 -0.6061 0.7954 54.7184 -24.2944)" fill="#FFFFFF" width="3.1" height="0"/>
					</g>
				</g>
			</g>
		</g>
	</g>
</g>
<g>
	<g>
		<g>
			<path fill="#373737" d="M84.1,79.9"/>
		</g>
	</g>
</g>
<g>
	<defs>
		<polygon id="SVGID_17_" points="105.1,60.7 84.1,79.9 47.3,57.3 72.5,59.3 		"/>
	</defs>
	<clipPath id="SVGID_2_">
		<use xlink:href="#SVGID_17_"  overflow="visible"/>
	</clipPath>
	<g clip-path="url(#SVGID_2_)">
		<g>
			<g>
				<g>
					<g>
						<path fill="#FFFFFF" d="M71.3,68.5l-1-0.7l-0.9,0.6l-0.2-0.1l2.6-1.6l0.1,0.1l-0.8,2.9L71,69.5L71.3,68.5z M70.5,67.8l0.8,0.6
							l0.3-1c0-0.1,0.1-0.2,0.1-0.3c-0.1,0.1-0.2,0.1-0.3,0.2L70.5,67.8z"/>
					</g>
				</g>
			</g>
			<g>
				<g>
					<g>
						<path fill="#FFFFFF" d="M73.5,68.6c0.1,0.1,0.1,0.1,0.2,0.2l-0.1,0.1c-0.1-0.1-0.1-0.1-0.2-0.2c-0.1-0.1-0.3-0.1-0.5-0.1
							c-0.2,0.1-0.3,0.2-0.5,0.4L71.7,70l-0.2-0.1l1.2-1.7l0.1,0.1l-0.2,0.3l0,0c0.2-0.1,0.3-0.1,0.4-0.1
							C73.2,68.5,73.4,68.6,73.5,68.6z"/>
					</g>
				</g>
			</g>
			<g>
				<g>
					<g>
						<path fill="#FFFFFF" d="M73.3,71c0.1,0.1,0.2,0.1,0.3,0.2l-0.1,0.1c-0.1,0-0.2-0.1-0.3-0.1C73.1,71,73,70.9,73,70.7
							c0-0.1,0-0.3,0.2-0.4l0.8-1.1L73.7,69l0.1-0.1l0.3,0.1l0.4-0.3l0.1,0.1l-0.3,0.4l0.5,0.4l-0.1,0.1l-0.5-0.4l-0.8,1.1
							c-0.1,0.1-0.1,0.2-0.1,0.3C73.2,70.8,73.2,70.9,73.3,71z"/>
					</g>
				</g>
			</g>
			<g>
				<g>
					<g>
						<path fill="#FFFFFF" d="M75.5,69.3c0.1-0.1,0.1-0.1,0.2-0.1c0,0,0,0.1,0,0.1c0,0,0,0.1-0.1,0.1c0,0-0.1,0.1-0.1,0.1
							c0,0-0.1,0-0.1,0C75.4,69.5,75.4,69.4,75.5,69.3z M74,71.6l-0.2-0.1l1.2-1.7l0.2,0.1L74,71.6z"/>
					</g>
				</g>
			</g>
			<g>
				<g>
					<g>
						<path fill="#FFFFFF" d="M76.4,70.9L76,70.6l-1.1,1.5l-0.2-0.1l1.1-1.5l-0.3-0.2l0.1-0.1l0.4,0.2l0.1-0.1
							c0.2-0.2,0.3-0.3,0.5-0.4s0.3,0,0.5,0.1c0.1,0.1,0.2,0.1,0.3,0.2l-0.1,0.1c-0.1-0.1-0.1-0.2-0.2-0.2c-0.1-0.1-0.2-0.1-0.3-0.1
							c-0.1,0-0.2,0.1-0.3,0.3l-0.1,0.2l0.4,0.3L76.4,70.9z"/>
					</g>
				</g>
			</g>
			<g>
				<g>
					<g>
						<path fill="#FFFFFF" d="M76.7,73.4l0.2-0.3l0,0c-0.2,0-0.3,0.1-0.4,0c-0.1,0-0.3-0.1-0.4-0.2c-0.2-0.1-0.3-0.3-0.3-0.4
							c0-0.1,0-0.3,0.1-0.4c0.1-0.2,0.3-0.2,0.5-0.2c0.2,0,0.4,0.1,0.7,0.3l0.3,0.2l0.1-0.1c0.1-0.2,0.2-0.3,0.2-0.4
							c0-0.1-0.1-0.2-0.2-0.3c-0.2-0.1-0.4-0.2-0.6-0.2l0-0.2c0.3,0,0.5,0.1,0.7,0.3c0.2,0.1,0.3,0.3,0.3,0.4c0,0.2,0,0.3-0.2,0.5
							l-0.8,1.1L76.7,73.4z M76.1,72.9c0.2,0.1,0.4,0.2,0.6,0.1c0.2,0,0.3-0.1,0.5-0.3l0.1-0.2l-0.3-0.2c-0.3-0.2-0.5-0.2-0.6-0.2
							c-0.2,0-0.3,0.1-0.4,0.2c-0.1,0.1-0.1,0.2-0.1,0.3C75.9,72.7,76,72.8,76.1,72.9z"/>
					</g>
				</g>
			</g>
			<g>
				<g>
					<g>
						<path fill="#FFFFFF" d="M78,74.4c-0.2-0.2-0.4-0.4-0.4-0.6c0-0.2,0.1-0.5,0.3-0.8c0.2-0.3,0.4-0.4,0.7-0.5
							c0.3-0.1,0.5,0,0.8,0.2c0.2,0.1,0.3,0.2,0.4,0.4l-0.1,0.1c-0.1-0.2-0.2-0.3-0.3-0.3c-0.2-0.1-0.4-0.2-0.6-0.1
							s-0.4,0.2-0.6,0.4c-0.2,0.2-0.2,0.4-0.2,0.6c0,0.2,0.1,0.4,0.3,0.5c0.2,0.1,0.3,0.2,0.5,0.2l-0.1,0.1
							C78.4,74.6,78.2,74.5,78,74.4z"/>
					</g>
				</g>
			</g>
			<g>
				<g>
					<g>
						<path fill="#FFFFFF" d="M79.4,75.2c0.1,0.1,0.2,0.1,0.3,0.2l-0.1,0.1c-0.1,0-0.2-0.1-0.3-0.1c-0.2-0.1-0.2-0.2-0.3-0.4
							c0-0.1,0-0.3,0.2-0.4l0.8-1.1l-0.3-0.2l0.1-0.1l0.3,0.1l0.4-0.3l0.1,0.1l-0.3,0.4l0.5,0.4l-0.1,0.1l-0.5-0.4l-0.8,1.1
							c-0.1,0.1-0.1,0.2-0.1,0.3S79.3,75.1,79.4,75.2z"/>
					</g>
				</g>
			</g>
			<g>
				<g>
					<g>
						<path fill="#FFFFFF" d="M81.4,76c-0.1,0.2-0.3,0.2-0.4,0.2c-0.2,0-0.4-0.1-0.6-0.2c-0.2-0.2-0.4-0.3-0.5-0.5l0.1-0.2
							c0.1,0.2,0.3,0.4,0.5,0.5c0.2,0.1,0.3,0.2,0.5,0.2c0.1,0,0.2,0,0.3-0.1c0.1-0.1,0.1-0.2,0.1-0.3c0-0.1-0.1-0.2-0.2-0.4
							c-0.1-0.2-0.2-0.3-0.2-0.4c0-0.1-0.1-0.2,0-0.3c0-0.1,0-0.2,0.1-0.2c0.1-0.1,0.2-0.2,0.4-0.2c0.2,0,0.3,0.1,0.5,0.2
							c0.2,0.1,0.3,0.3,0.5,0.5l-0.2,0.1c-0.1-0.2-0.3-0.3-0.4-0.4c-0.1-0.1-0.3-0.2-0.4-0.2c-0.1,0-0.2,0-0.3,0.1
							c-0.1,0.1-0.1,0.2-0.1,0.3c0,0.1,0.1,0.2,0.2,0.4c0.1,0.2,0.2,0.3,0.2,0.4c0,0.1,0.1,0.2,0.1,0.3C81.5,75.9,81.5,75.9,81.4,76
							z"/>
					</g>
				</g>
			</g>
		</g>
		<g>
			<g>
				<g>
					<g>
						<g>
							<g>
								<g>
									
										<rect x="66.4" y="67.6" transform="matrix(0.1684 0.9857 -0.9857 0.1684 122.4587 -9.7462)" fill="#FFFFFF" width="1.2" height="0.2"/>
								</g>
							</g>
						</g>
					</g>
				</g>
				<g>
					<g>
						<g>
							<g>
								<g>
									<path fill="#FFFFFF" d="M66.3,67.1C66.1,67,66,66.8,66,66.6c0-0.2,0-0.4,0.1-0.6c0.1-0.2,0.3-0.3,0.5-0.3
										c0.4-0.1,0.9,0.2,1,0.7c0,0.2,0,0.4-0.1,0.6c-0.1,0.2-0.3,0.3-0.5,0.3C66.7,67.3,66.5,67.2,66.3,67.1z M67.1,66
										c-0.1-0.1-0.3-0.1-0.4-0.1c-0.2,0-0.3,0.1-0.4,0.2c-0.1,0.1-0.1,0.3-0.1,0.4c0.1,0.3,0.4,0.5,0.7,0.5
										c0.2,0,0.3-0.1,0.4-0.2s0.1-0.3,0.1-0.4C67.3,66.2,67.3,66.1,67.1,66z"/>
								</g>
							</g>
						</g>
					</g>
				</g>
			</g>
			<g>
				<g>
					<g>
						<g>
							<g>
								<g>
									<polygon fill="#FFFFFF" points="65.1,67.1 63.6,66 65.9,62.8 67.9,62.5 70.2,64.1 68.6,66.4 68.4,66.2 69.9,64.2 
										67.9,62.8 66.1,63 63.9,66 65.3,66.9 									"/>
								</g>
							</g>
						</g>
					</g>
				</g>
				<g>
					<g>
						<g>
							<g>
								<g>
									<polygon fill="#FFFFFF" points="67.1,64 66,63.2 66.1,63 67.1,63.7 67.8,62.7 68,62.9 									"/>
								</g>
							</g>
						</g>
					</g>
				</g>
			</g>
		</g>
	</g>
	<g clip-path="url(#SVGID_2_)">
		<g>
			<g>
				<g>
					<g>
						<path fill="#FFFFFF" d="M79,64.2l-1.1-0.6l-0.9,0.7l-0.2-0.1l2.7-2l0.1,0.1L79,65.4l-0.2-0.1L79,64.2z M78,63.4l1,0.5l0.2-1.1
							c0-0.1,0-0.2,0.1-0.4c-0.1,0.1-0.2,0.2-0.3,0.2L78,63.4z"/>
					</g>
				</g>
			</g>
			<g>
				<g>
					<g>
						<path fill="#FFFFFF" d="M81.3,64c0.1,0.1,0.3,0.2,0.3,0.3c0.1,0.1,0.1,0.3,0.1,0.4l0,0c0.1-0.2,0.2-0.3,0.3-0.4l0.4-0.7
							l0.2,0.1l-1.7,2.8l-0.1-0.1l0.1-0.3l0,0c-0.3,0.1-0.6,0.1-0.9,0c-0.3-0.2-0.4-0.4-0.5-0.6c0-0.2,0-0.5,0.2-0.9
							c0.2-0.3,0.4-0.6,0.7-0.6C80.7,63.8,81,63.9,81.3,64z M81.2,64.2c-0.2-0.1-0.4-0.1-0.6-0.1c-0.2,0.1-0.4,0.3-0.6,0.6
							c-0.3,0.5-0.3,0.9,0.2,1.2c0.2,0.1,0.4,0.2,0.6,0.1c0.2-0.1,0.4-0.2,0.5-0.5l0,0c0.2-0.3,0.3-0.5,0.2-0.7
							C81.5,64.5,81.4,64.3,81.2,64.2z"/>
					</g>
				</g>
			</g>
			<g>
				<g>
					<g>
						<path fill="#FFFFFF" d="M84.1,68.2l0.8-1.3c0.1-0.2,0.2-0.3,0.1-0.5c0-0.1-0.1-0.2-0.3-0.3c-0.2-0.1-0.4-0.1-0.6-0.1
							c-0.2,0.1-0.3,0.2-0.5,0.4L83,67.7l-0.2-0.1l0.8-1.3c0.2-0.3,0.1-0.6-0.2-0.7c-0.2-0.1-0.4-0.1-0.6-0.1
							c-0.2,0.1-0.3,0.2-0.5,0.5L81.8,67l-0.2-0.1l1.2-1.9l0.2,0.1l-0.1,0.3l0,0c0.1-0.1,0.2-0.1,0.4-0.1c0.1,0,0.3,0,0.4,0.1
							c0.3,0.2,0.5,0.4,0.4,0.7l0,0c0.1-0.1,0.3-0.1,0.4-0.1c0.1,0,0.3,0,0.4,0.1c0.2,0.1,0.3,0.3,0.4,0.4c0,0.2,0,0.4-0.2,0.6
							l-0.8,1.3L84.1,68.2z"/>
					</g>
				</g>
			</g>
			<g>
				<g>
					<g>
						<path fill="#FFFFFF" d="M86.4,66.2c0.1-0.1,0.1-0.1,0.2-0.1c0,0,0.1,0.1,0.1,0.1c0,0,0,0.1,0,0.1c0,0.1-0.1,0.1-0.1,0.1
							c0,0-0.1,0-0.1,0C86.3,66.4,86.3,66.3,86.4,66.2z M85.1,68.8l-0.2-0.1l1.2-1.9l0.2,0.1L85.1,68.8z"/>
					</g>
				</g>
			</g>
			<g>
				<g>
					<g>
						<path fill="#FFFFFF" d="M87.2,70l0.8-1.3c0.1-0.2,0.2-0.4,0.1-0.5c0-0.1-0.1-0.3-0.3-0.4c-0.2-0.1-0.5-0.2-0.6-0.1
							c-0.2,0.1-0.4,0.2-0.5,0.5L86,69.3l-0.2-0.1l1.2-1.9l0.2,0.1L87,67.6l0,0c0.3-0.1,0.5-0.1,0.9,0.1c0.5,0.3,0.5,0.6,0.3,1.1
							l-0.8,1.3L87.2,70z"/>
					</g>
				</g>
			</g>
		</g>
		<g>
			<g>
				<g>
					<g>
						<path fill="#FFFFFF" d="M73.3,57.2c-1.3-0.8-3.1-0.3-3.9,1c-0.8,1.3-0.3,3,1,3.7c1.3,0.8,3.1,0.3,3.9-1S74.7,58,73.3,57.2z
							 M73.2,57.4c1.2,0.7,1.7,2.2,0.9,3.4c-0.3,0.5-0.8,0.9-1.3,1.1c0-0.6-0.1-1.1-0.5-1.5c0.3-0.1,0.6-0.3,0.8-0.6
							c0.4-0.6,0.1-1.4-0.5-1.7c-0.6-0.3-1.4-0.1-1.8,0.5c-0.2,0.3-0.2,0.7-0.1,1c-0.5-0.1-1.1,0.1-1.5,0.4c-0.1-0.5,0-1.1,0.3-1.6
							C70.4,57.2,72,56.8,73.2,57.4z M72.3,60.2c-0.1,0-0.3,0-0.4,0c-0.1,0-0.2-0.1-0.3-0.1c-0.1,0-0.1-0.1-0.2-0.2
							c-0.1-0.1-0.2-0.2-0.2-0.3c-0.1-0.3-0.1-0.6,0-0.9c0.3-0.5,0.9-0.7,1.5-0.4s0.7,0.9,0.4,1.4C72.9,60,72.6,60.2,72.3,60.2z
							 M70.6,61.8c-0.6-0.4-1.1-1-1.2-1.6c0.5-0.3,1.1-0.5,1.6-0.4c0.1,0.2,0.3,0.3,0.5,0.5c0.2,0.1,0.5,0.2,0.7,0.2
							c0.4,0.4,0.6,1,0.5,1.6C72,62.2,71.3,62.1,70.6,61.8z"/>
					</g>
				</g>
			</g>
		</g>
	</g>
</g>
<g>
	<g>
		<g>
			<polygon fill="#FFFFFF" points="162.5,59.6 157.2,76 178.7,68 185.5,50.3 180.4,46.8 172.8,56.8 			"/>
		</g>
	</g>
	<g>
		<g>
			<path d="M156.4,76.8l5.7-17.6l10.4-2.8l7.8-10.3l5.7,3.9l-7,18.3L156.4,76.8z M162.9,60l-4.9,15.2l20.4-7.6l6.6-17.1l-4.4-3
				l-7.5,9.8L162.9,60z"/>
		</g>
	</g>
</g>
<g>
	<g>
		<g>
			<polygon points="160,68.2 159.7,67.3 176,62.3 183.8,49.1 184.6,49.6 176.6,63.1 			"/>
		</g>
	</g>
</g>
<g>
	<g>
		<g>
			<rect x="163.7" y="63" transform="matrix(0.8683 0.4961 -0.4961 0.8683 53.2239 -73.5911)" width="2.9" height="1"/>
		</g>
	</g>
</g>
<g>
	<g>
		<g>
			<rect x="164.7" y="61.5" transform="matrix(0.8206 0.5715 -0.5715 0.8206 65.8852 -83.029)" width="1" height="3.9"/>
		</g>
	</g>
</g>
<g>
	<g>
		<g>
			<path d="M170.7,63.4c-0.1,0.1-0.4,0.4-0.8,0.6c-1,0.4-1.9,0.1-2.3-0.9c-0.4-0.9-0.1-1.9,0.9-2.4c0.3-0.1,0.7-0.2,0.9-0.2l0.1,0.5
				c-0.2,0-0.4,0-0.7,0.1c-0.7,0.3-0.9,1-0.6,1.6c0.3,0.7,1,0.9,1.6,0.7c0.3-0.1,0.5-0.3,0.6-0.5L170.7,63.4z"/>
		</g>
	</g>
</g>
<g>
	<g>
		<g>
			<path d="M169.2,58.9l0.6-0.2l2.1,4.5l-0.6,0.2L169.2,58.9z"/>
		</g>
	</g>
</g>
<g>
	<g>
		<g>
			<path d="M174.9,60.1c0.5,1.1-0.1,2-0.8,2.3c-0.8,0.4-1.8,0.1-2.2-0.9c-0.5-1,0-1.9,0.8-2.3C173.5,58.8,174.4,59.1,174.9,60.1z
				 M172.4,61.2c0.3,0.6,0.9,1,1.5,0.7c0.6-0.3,0.7-1,0.4-1.6c-0.2-0.5-0.8-1.1-1.5-0.8C172.1,59.9,172.1,60.7,172.4,61.2z"/>
		</g>
	</g>
</g>
<g>
	<g>
		<g>
			<path d="M176.6,59.3c0.2-0.1,0.4-0.4,0.5-0.6c0.1-0.4,0-0.7-0.2-0.7c-0.3-0.1-0.5,0-0.8,0.4c-0.4,0.5-0.8,0.6-1.2,0.5
				c-0.5-0.2-0.8-0.7-0.5-1.3c0.1-0.3,0.3-0.5,0.5-0.7l0.4,0.3c-0.1,0.1-0.3,0.3-0.4,0.6c-0.1,0.3,0,0.6,0.2,0.6
				c0.3,0.1,0.4,0,0.7-0.4c0.4-0.4,0.8-0.6,1.2-0.5c0.5,0.2,0.8,0.7,0.5,1.4c-0.1,0.3-0.3,0.6-0.5,0.8L176.6,59.3z"/>
		</g>
	</g>
</g>
<g>
	<g>
		<g>
			<path d="M177.3,55.9c0.7,0.4,1.2,0.1,1.5-0.4c0.2-0.3,0.3-0.6,0.3-0.8l0.4,0.1c0,0.2-0.1,0.5-0.3,1c-0.5,0.8-1.3,1-2.1,0.5
				c-0.8-0.5-1.2-1.3-0.7-2c0.5-0.8,1.4-0.6,1.9-0.4c0.1,0.1,0.2,0.1,0.2,0.1L177.3,55.9z M177.8,54.4c-0.3-0.2-0.9-0.3-1.2,0.2
				c-0.3,0.5,0,0.9,0.4,1.2L177.8,54.4z"/>
		</g>
	</g>
</g>
<g opacity="0.23">
	<g>
		<g>
			<polygon points="169.1,49.6 178.7,68 185.5,50.3 198.3,18.1 			"/>
		</g>
	</g>
</g>
<g>
	<g>
		<g>
			<polygon fill="#FFFFFF" points="165,44.7 164.3,50.9 169.1,49.6 177.9,39.6 			"/>
		</g>
	</g>
	<g>
		<g>
			<path d="M163.7,51.4l0.9-7.1l15-6L169.3,50L163.7,51.4z M165.5,45l-0.6,5.3l3.9-1.2l7.4-8.4L165.5,45z"/>
		</g>
	</g>
</g>
<g opacity="0.42">
	<g>
		<g>
			<polygon fill="#757776" points="165.5,45 164.8,50.5 168.9,49.2 173.7,43.9 170.2,43.1 			"/>
		</g>
	</g>
</g>
<g>
	<g>
		<g>
			<polygon points="165.1,47.4 165.1,46.4 173.4,44.3 173.7,45.2 			"/>
		</g>
	</g>
</g>
<g>
	<g>
		<g>
			<polygon fill="#373737" points="113.2,44.5 128.4,60 123.7,61.5 105.4,60.4 			"/>
		</g>
	</g>
</g>
<g>
	<g>
		<g>
			<polygon points="107.5,94.9 87.7,89.3 47,57.7 47.6,56.9 88.2,88.4 107.8,94 			"/>
		</g>
	</g>
</g>
<g>
	<g>
		<g>
			<polygon points="103.8,93.9 47.7,57.2 110.5,50.2 110.6,51.2 50.5,57.8 105,93.5 			"/>
		</g>
	</g>
</g>
<g>
	<g>
		<g>
			<polygon points="154.9,40 154.5,39.1 198.4,17.6 198,18.8 			"/>
		</g>
	</g>
</g>
<g>
	<g>
		<g>
			<path fill="#FFFFFF" d="M18.2,114.3c-0.3-2.6,4.7-2.2,4.1-0.1c-0.5,2-3.8,1.2-4.7,0c-1.2,1.4-2.1,3.3-3,4.9
				c-0.4,0.7-0.7,2.2-0.9,2.7"/>
		</g>
	</g>
	<g>
		<g>
			<path d="M14.3,121.7l-1-0.1c0.1-0.2,0.2-0.6,0.3-1c0.2-0.7,0.4-1.2,0.6-1.7c0.1-0.3,0.3-0.8,0.5-1.1c0.8-1.4,1.5-2.9,2.5-4.1
				l0.4-0.5l0.1,0.2c0.1-0.5,0.5-0.9,0.9-1.1c1-0.6,2.6-0.5,3.5,0.2c0.6,0.4,0.8,1.1,0.6,1.7c-0.2,0.8-0.8,1.3-1.7,1.5
				c-1.1,0.2-2.6-0.2-3.4-1c-0.8,1-1.4,2.3-2.1,3.5c-0.2,0.3-0.3,0.7-0.5,1c-0.2,0.4-0.4,1.1-0.5,1.6
				C14.5,121.3,14.4,121.5,14.3,121.7z M18.5,114.2c0.6,0.4,1.7,0.7,2.4,0.6c0.5-0.1,0.8-0.4,0.9-0.8c0-0.2,0.1-0.4-0.3-0.7
				c-0.6-0.4-1.7-0.5-2.4-0.1c-0.4,0.2-0.6,0.6-0.5,1L18.5,114.2z"/>
		</g>
	</g>
</g>
<g>
	<g>
		<g>
			<path d="M19.8,113.7c0-1.9-0.1-2.4-0.2-2.8c-0.1-0.5-0.2-1-0.1-2.9c0.1-4.3-0.1-8.8-0.2-13.1c-0.1-4.2-0.3-8.1-0.2-11.8l1,0
				c-0.1,3.7,0.1,7.6,0.2,11.7c0.2,4.3,0.3,8.8,0.2,13.1c0,1.8,0,2.3,0.1,2.8c0.1,0.5,0.2,1.1,0.2,3L19.8,113.7z"/>
		</g>
	</g>
</g>
<g>
	<g>
		<g>
			<path d="M25.9,122.7l-0.9-0.4c0.4-0.9,0.1-2.7-0.2-4c-0.3-1.1-0.6-1.8-1-2.5c-0.2-0.3-0.6-0.7-1-1c-0.5-0.5-1-1-1.2-1.4l0.9-0.3
				c0.1,0.3,0.5,0.7,0.9,1.1c0.4,0.4,0.8,0.8,1.1,1.2c0.5,0.7,0.8,1.6,1.2,2.7C25.9,118.8,26.5,121.3,25.9,122.7z"/>
		</g>
	</g>
</g>
<g>
	<g>
		<g>
			<path d="M22.5,124.3c-0.8,0-1.8-0.1-2.9-0.5c-0.4-0.1-0.9-0.4-1.4-0.7c-1-0.6-2.3-1.3-4.2-1.4v-0.9c2.1,0,3.6,0.9,4.7,1.5
				c0.5,0.3,0.8,0.5,1.2,0.6c3.4,1.1,4.9-0.1,5.1-0.6l0.9,0.4C25.6,123.4,24.5,124.3,22.5,124.3z"/>
		</g>
	</g>
</g>
<g>
	<g>
		<g>
			<path d="M27.5,132c-0.4,0-0.7,0-1.1,0l0.1-1c1.3,0.1,2.8,0,4.3-0.2l0.1,1C29.7,131.9,28.6,132,27.5,132z M37.6,129.8l-0.4-0.9
				c1.2-0.6,1.9-1.3,1.9-1.8c0-0.6-0.8-1.2-2.1-1.8l0.4-0.9c1.8,0.7,2.7,1.6,2.7,2.6C40,128.1,39.2,129,37.6,129.8z"/>
		</g>
	</g>
</g>
<g>
	<g>
		<g>
			<path d="M1.8,122.7c-0.5-0.3-1-0.7-1.3-1.1l0.7-0.6c0.3,0.3,0.6,0.6,1.1,0.9L1.8,122.7z M3.2,116.3l-0.5-0.8
				c1.8-1.2,4.2-2.1,6.4-2.5l0.2,1C7.1,114.3,4.9,115.2,3.2,116.3z"/>
		</g>
	</g>
</g>
<g>
	<g>
		<g>
			<polygon points="106.2,60.5 105.2,60.4 133.9,1.4 161,51.3 160.1,51.7 134,3.5 			"/>
		</g>
	</g>
</g>
<g opacity="0.72">
	<g>
		<polygon fill="#FFFFFF" points="92,84.8 83.1,85.1 88,88.9 107.6,94.5 		"/>
	</g>
	<g>
		<path d="M107.5,94.9l-19.8-5.7l-4.9-3.8l0.3-0.9l8.8-0.3l0.3,0.1l15.7,9.7L107.5,94.9z M88.2,88.4l16.1,4.6l-12.5-7.7l-7.3,0.2
			L88.2,88.4z"/>
	</g>
</g>
<g>
	<g>
		<path d="M47.3,56.8"/>
	</g>
</g>
</svg>
