<?xml version="1.0" encoding="utf-8"?>
<!-- Generator: Adobe Illustrator 18.1.1, SVG Export Plug-In . SVG Version: 6.00 Build 0)  -->
<svg version="1.1" id="Layer_1" xmlns="http://www.w3.org/2000/svg" xmlns:xlink="http://www.w3.org/1999/xlink" x="0px" y="0px"
	 viewBox="0 0 352 185.3" enable-background="new 0 0 352 185.3" xml:space="preserve">
<g>
	<g>
		<path fill="none" stroke="#000000" stroke-miterlimit="10" stroke-dasharray="7" d="M277.1,98.6"/>
	</g>
</g>
<g>
	<g>
		<polygon fill="#E2E2E2" points="272,120.3 293.3,115.4 331.8,169.2 		"/>
	</g>
</g>
<g>
	<g>
		<polygon fill="#C2C4C4" points="270.4,129.9 271.4,121 340.2,175.9 		"/>
	</g>
</g>
<g>
	<g>
		<polygon fill="#B2B3B3" points="248.6,140.9 246.6,151.9 341.8,180.3 		"/>
	</g>
</g>
<g>
	<g>
		<path fill="#2A2B2B" d="M348.6,183.2c-0.1,0-0.1,0-0.2,0l-144.3-60.3c-0.2-0.1-0.3-0.3-0.3-0.5c0-0.2,0.2-0.4,0.4-0.4l42.8-8.2
			c0.1,0,0.3,0,0.4,0.1l101.5,68.6c0.2,0.1,0.3,0.4,0.2,0.7C348.9,183.1,348.8,183.2,348.6,183.2z M206,122.5l138.1,57.8L247,114.7
			L206,122.5z"/>
	</g>
</g>
<g>
	<g>
		<path fill="#2A2B2B" d="M348.6,183.2c-0.1,0-0.2,0-0.3-0.1l-89.5-72.2c-0.1-0.1-0.2-0.3-0.2-0.5s0.2-0.3,0.4-0.4l31.6-7.9
			c0.2,0,0.4,0,0.5,0.2l57.9,80.1c0.1,0.2,0.1,0.5-0.1,0.7C348.8,183.1,348.7,183.2,348.6,183.2z M260.2,110.7l85.8,69.2l-55.5-76.8
			L260.2,110.7z"/>
	</g>
</g>
<g>
	<g>
		<path fill="#2A2B2B" d="M348.6,183.2c-0.1,0-0.2,0-0.3-0.1l-90.6-61.2c-0.2-0.1-0.2-0.3-0.2-0.5l1.1-11c0-0.2,0.1-0.3,0.3-0.4
			c0.2-0.1,0.4,0,0.5,0.1l89.5,72.2c0.2,0.2,0.2,0.5,0.1,0.7C348.9,183.1,348.7,183.2,348.6,183.2z M258.5,121.2l80.6,54.5
			l-79.6-64.2L258.5,121.2z"/>
	</g>
</g>
<g>
	<g>
		<path fill="#2A2B2B" d="M348.6,183.2c0,0-0.1,0-0.1,0l-102-30.8c-0.2-0.1-0.4-0.3-0.3-0.6l2-11c0-0.1,0.1-0.3,0.3-0.3
			c0.1-0.1,0.3-0.1,0.4,0l100,41.8c0.2,0.1,0.4,0.4,0.3,0.6C349,183,348.8,183.2,348.6,183.2z M247.2,151.5l92.3,27.9L249,141.6
			L247.2,151.5z"/>
	</g>
</g>
<g opacity="0.89">
	<g>
		<path fill="#2A2B2B" d="M235.3,135.3c8.7-2.9,19.9-6.5,28.6-9.5l-16.8-11.7l-42,8L235.3,135.3z"/>
	</g>
</g>
<g opacity="0.89">
	<g>
		<polygon fill="#2A2B2B" points="271.4,120.4 298,114.5 290.7,102.5 259.1,110.5 		"/>
	</g>
</g>
<g>
	<g>
		<polygon fill="#42A147" points="284.8,104.4 330.7,167.6 346.7,180.5 290.8,103.1 		"/>
	</g>
</g>
<g>
	<g>
		<polygon fill="#2A2B2B" points="271.4,120.4 270.4,129.9 257.9,121.4 259.1,110.5 		"/>
	</g>
</g>
<g>
	<g>
		<g>
			<g>
				<path fill="#FFFFFF" d="M266.1,120.5l0.5,0.3c0.2,0.1,0.4,0.3,0.4,0.4c0.1,0.1,0,0.3-0.1,0.4c-0.1,0.1-0.2,0.2-0.3,0.2
					c-0.1,0-0.2,0-0.4-0.1l0,0c0.1,0.1,0.2,0.2,0.2,0.3c0,0.1,0,0.2-0.1,0.3c-0.1,0.2-0.2,0.3-0.4,0.3c-0.2,0-0.3,0-0.5-0.2
					l-0.5-0.4L266.1,120.5z M265.8,121.4l0.4,0.3c0.2,0.1,0.3,0.2,0.4,0.2c0.1,0,0.2-0.1,0.3-0.2c0.1-0.1,0.1-0.2,0-0.3
					c0-0.1-0.2-0.2-0.3-0.3l-0.4-0.2L265.8,121.4z M265.7,121.5l-0.5,0.8l0.4,0.3c0.3,0.2,0.6,0.2,0.8-0.1c0.2-0.2,0.1-0.5-0.3-0.7
					L265.7,121.5z"/>
			</g>
		</g>
		<g>
			<g>
				<path fill="#FFFFFF" d="M267.5,122l-0.6,0.8c-0.1,0.1-0.1,0.2-0.1,0.3c0,0.1,0.1,0.2,0.2,0.3c0.2,0.1,0.3,0.1,0.4,0.1
					c0.1,0,0.2-0.1,0.4-0.3l0.5-0.7l0.1,0.1l-0.9,1.3l-0.1-0.1l0.1-0.2l0,0c-0.2,0.1-0.4,0-0.6-0.1c-0.3-0.2-0.3-0.5-0.1-0.8
					l0.6-0.9L267.5,122z"/>
			</g>
		</g>
		<g>
			<g>
				<path fill="#FFFFFF" d="M269,122.6c0.1-0.1,0.1-0.1,0.2-0.1c0,0,0,0,0,0.1s0,0.1,0,0.1c0,0,0,0.1-0.1,0.1c0,0-0.1,0-0.1,0
					C269,122.7,269,122.6,269,122.6z M268.1,124.3l-0.1-0.1l0.9-1.3l0.1,0.1L268.1,124.3z"/>
			</g>
		</g>
		<g>
			<g>
				<path fill="#FFFFFF" d="M268.6,124.7l-0.1-0.1l1.2-1.9l0.1,0.1L268.6,124.7z"/>
			</g>
		</g>
		<g>
			<g>
				<path fill="#FFFFFF" d="M270.4,124c0.1,0.1,0.2,0.1,0.2,0.2c0,0.1,0.1,0.2,0.1,0.3l0,0c0.1-0.1,0.1-0.2,0.2-0.3l0.3-0.5l0.1,0.1
					l-1.2,1.9l-0.1-0.1l0.1-0.2l0,0c-0.2,0.1-0.4,0.1-0.6-0.1c-0.2-0.1-0.3-0.3-0.3-0.4s0-0.4,0.2-0.6c0.2-0.2,0.3-0.4,0.5-0.4
					C270.1,123.8,270.2,123.9,270.4,124z M270.3,124.1c-0.1-0.1-0.3-0.1-0.4-0.1c-0.1,0.1-0.3,0.2-0.4,0.4c-0.2,0.4-0.2,0.7,0.1,0.8
					c0.1,0.1,0.3,0.1,0.4,0.1c0.1,0,0.3-0.2,0.4-0.4l0,0c0.1-0.2,0.2-0.4,0.2-0.5C270.6,124.3,270.5,124.2,270.3,124.1z"/>
			</g>
		</g>
		<g>
			<g>
				<path fill="#FFFFFF" d="M271.6,126.2c-0.1,0.1-0.2,0.2-0.3,0.2c-0.1,0-0.3,0-0.4-0.2c-0.2-0.1-0.3-0.2-0.4-0.4l0.1-0.1
					c0.1,0.2,0.2,0.3,0.4,0.4c0.1,0.1,0.2,0.1,0.3,0.1c0.1,0,0.2,0,0.2-0.1c0-0.1,0.1-0.1,0-0.2c0-0.1-0.1-0.2-0.2-0.3
					c-0.1-0.1-0.2-0.2-0.2-0.3c0-0.1,0-0.1,0-0.2c0-0.1,0-0.1,0.1-0.2c0.1-0.1,0.2-0.1,0.3-0.1c0.1,0,0.3,0,0.4,0.1
					c0.1,0.1,0.3,0.2,0.3,0.3l-0.1,0.1c-0.1-0.1-0.2-0.2-0.3-0.3c-0.1-0.1-0.2-0.1-0.3-0.1s-0.1,0-0.2,0.1c0,0.1-0.1,0.1,0,0.2
					c0,0.1,0.1,0.2,0.2,0.3c0.1,0.1,0.1,0.2,0.2,0.3c0,0.1,0,0.1,0,0.2C271.6,126,271.6,126.1,271.6,126.2z"/>
			</g>
		</g>
	</g>
	<g>
		<g>
			<g>
				<g>
					<path fill="#FFFFFF" d="M260.4,120.6c-0.2-0.2-0.3-0.5-0.1-0.7c-0.1-0.1-0.1-0.2-0.2-0.3c-0.3,0-0.5-0.1-0.6-0.4
						c0-0.1,0-0.3,0.1-0.4c0.1-0.1,0.2-0.2,0.3-0.2c0-0.1,0-0.2,0.1-0.3c-0.2-0.2-0.3-0.5-0.1-0.7s0.5-0.3,0.7-0.1
						c0.1-0.1,0.2-0.1,0.3-0.2c0-0.1,0-0.3,0.1-0.4c0.1-0.1,0.2-0.2,0.3-0.2c0.3-0.1,0.5,0.1,0.6,0.4c0.1,0,0.2,0,0.3,0.1
						c0.2-0.2,0.5-0.3,0.7-0.1c0.2,0.2,0.3,0.5,0.1,0.7c0.1,0.1,0.1,0.2,0.2,0.3c0.3,0,0.5,0.1,0.6,0.4c0,0.1,0,0.3-0.1,0.4
						c-0.1,0.1-0.2,0.2-0.3,0.2c0,0.1,0,0.2-0.1,0.3c0.2,0.2,0.3,0.5,0.1,0.7c-0.2,0.2-0.5,0.3-0.7,0.1c-0.1,0.1-0.2,0.1-0.3,0.2
						c0,0.1,0,0.3-0.1,0.4c-0.1,0.1-0.2,0.2-0.3,0.2c-0.3,0.1-0.5-0.1-0.6-0.4c-0.1,0-0.2,0-0.3-0.1
						C261,120.7,260.7,120.8,260.4,120.6z M260.2,119.5L260.2,119.5c0.1,0.2,0.2,0.3,0.3,0.4l0.1,0.1l-0.1,0.1c0,0,0,0,0,0
						c-0.1,0.2-0.1,0.4,0.1,0.5c0.2,0.1,0.4,0.1,0.5-0.1c0,0,0,0,0,0l0-0.1l0.1,0c0.1,0.1,0.3,0.1,0.4,0.1l0.1,0l0,0.1c0,0,0,0,0,0
						c0,0.2,0.2,0.3,0.4,0.3c0.1,0,0.2-0.1,0.2-0.1c0-0.1,0.1-0.2,0-0.2c0,0,0,0,0,0l0-0.1l0.1,0c0.1-0.1,0.3-0.2,0.4-0.3l0.1-0.1
						l0.1,0.1c0,0,0,0,0,0c0.2,0.1,0.4,0.1,0.5-0.1c0.1-0.2,0.1-0.4-0.1-0.5l-0.1,0l0-0.1c0.1-0.1,0.1-0.3,0.1-0.4l0-0.1l0.1,0
						c0,0,0,0,0,0c0.1,0,0.2-0.1,0.2-0.1c0-0.1,0.1-0.2,0-0.2c0-0.2-0.2-0.3-0.4-0.3c0,0,0,0,0,0l-0.1,0l0-0.1
						c-0.1-0.1-0.2-0.3-0.3-0.4l-0.1-0.1l0.1-0.1c0,0,0,0,0,0c0.1-0.2,0.1-0.4-0.1-0.5c-0.2-0.1-0.4-0.1-0.5,0.1c0,0,0,0,0,0l0,0.1
						l-0.1,0c-0.1-0.1-0.3-0.1-0.4-0.1l-0.1,0l0-0.1c0,0,0,0,0,0c0-0.2-0.2-0.3-0.4-0.3c-0.1,0-0.2,0.1-0.2,0.1c0,0.1-0.1,0.2,0,0.2
						c0,0,0,0,0,0l0,0.1l-0.1,0c-0.1,0.1-0.3,0.2-0.4,0.3l-0.1,0.1l-0.1-0.1c0,0,0,0,0,0c-0.2-0.1-0.4-0.1-0.5,0.1
						c-0.1,0.2,0,0.4,0.1,0.5l0.1,0l0,0.1c-0.1,0.1-0.1,0.3-0.1,0.4l0,0.1l-0.1,0c0,0,0,0,0,0c-0.1,0-0.2,0.1-0.2,0.1
						c0,0.1-0.1,0.2,0,0.2c0,0.2,0.2,0.3,0.4,0.3C260.1,119.5,260.1,119.5,260.2,119.5L260.2,119.5z"/>
				</g>
			</g>
		</g>
		<g>
			<g>
				<g>
					<path fill="#FFFFFF" d="M261.3,119.4c-0.3-0.2-0.4-0.6-0.2-0.9c0.2-0.3,0.6-0.4,0.9-0.2c0.3,0.2,0.4,0.6,0.2,0.9
						S261.6,119.6,261.3,119.4z M261.9,118.4c-0.2-0.1-0.5-0.1-0.7,0.1c-0.1,0.2-0.1,0.5,0.1,0.7c0.2,0.1,0.5,0.1,0.7-0.1
						C262.2,118.9,262.1,118.6,261.9,118.4z"/>
				</g>
			</g>
		</g>
		<g>
			<g>
				<g>
					<path fill="#FFFFFF" d="M261,119.9c-0.6-0.4-0.7-1.1-0.3-1.7c0.4-0.6,1.1-0.7,1.7-0.3c0.6,0.4,0.7,1.1,0.3,1.7
						C262.3,120.1,261.5,120.2,261,119.9z M262.2,118c-0.5-0.3-1.1-0.2-1.5,0.3c-0.3,0.5-0.2,1.1,0.3,1.5c0.5,0.3,1.1,0.2,1.5-0.3
						C262.8,118.9,262.7,118.3,262.2,118z"/>
				</g>
			</g>
		</g>
	</g>
</g>
<g>
	<g>
		<g>
			<g>
				<path fill="#FFFFFF" d="M234.5,126.3l0.5,0.3c0.2,0.1,0.4,0.3,0.4,0.4c0.1,0.1,0,0.3-0.1,0.4c-0.1,0.1-0.2,0.2-0.3,0.2
					c-0.1,0-0.2,0-0.4-0.1l0,0c0.1,0.1,0.2,0.2,0.2,0.3c0,0.1,0,0.2-0.1,0.3c-0.1,0.2-0.2,0.3-0.4,0.3c-0.2,0-0.3,0-0.5-0.2
					l-0.5-0.4L234.5,126.3z M234.1,127.2l0.4,0.3c0.2,0.1,0.3,0.2,0.4,0.2c0.1,0,0.2-0.1,0.3-0.2c0.1-0.1,0.1-0.2,0-0.3
					c0-0.1-0.2-0.2-0.3-0.3l-0.4-0.2L234.1,127.2z M234,127.3l-0.5,0.8l0.4,0.3c0.3,0.2,0.6,0.2,0.8-0.1c0.2-0.2,0.1-0.5-0.3-0.7
					L234,127.3z"/>
			</g>
		</g>
		<g>
			<g>
				<path fill="#FFFFFF" d="M235.8,127.8l-0.6,0.8c-0.1,0.1-0.1,0.2-0.1,0.3c0,0.1,0.1,0.2,0.2,0.3c0.2,0.1,0.3,0.1,0.4,0.1
					c0.1,0,0.2-0.1,0.4-0.3l0.5-0.7l0.1,0.1l-0.9,1.3l-0.1-0.1l0.1-0.2l0,0c-0.2,0.1-0.4,0-0.6-0.1c-0.3-0.2-0.3-0.5-0.1-0.8
					l0.6-0.9L235.8,127.8z"/>
			</g>
		</g>
		<g>
			<g>
				<path fill="#FFFFFF" d="M237.3,128.4c0.1-0.1,0.1-0.1,0.2-0.1c0,0,0,0,0,0.1c0,0,0,0.1,0,0.1c0,0,0,0.1-0.1,0.1c0,0-0.1,0-0.1,0
					C237.3,128.5,237.3,128.4,237.3,128.4z M236.4,130.1l-0.1-0.1l0.9-1.3l0.1,0.1L236.4,130.1z"/>
			</g>
		</g>
		<g>
			<g>
				<path fill="#FFFFFF" d="M236.9,130.5l-0.1-0.1l1.2-1.9l0.1,0.1L236.9,130.5z"/>
			</g>
		</g>
		<g>
			<g>
				<path fill="#FFFFFF" d="M238.7,129.8c0.1,0.1,0.2,0.1,0.2,0.2c0,0.1,0.1,0.2,0.1,0.3l0,0c0.1-0.1,0.1-0.2,0.2-0.3l0.3-0.5
					l0.1,0.1l-1.2,1.9l-0.1-0.1l0.1-0.2l0,0c-0.2,0.1-0.4,0.1-0.6-0.1c-0.2-0.1-0.3-0.3-0.3-0.4c0-0.2,0-0.4,0.2-0.6
					c0.2-0.2,0.3-0.4,0.5-0.4C238.4,129.6,238.5,129.6,238.7,129.8z M238.7,129.9c-0.1-0.1-0.3-0.1-0.4-0.1
					c-0.1,0.1-0.3,0.2-0.4,0.4c-0.2,0.4-0.2,0.7,0.1,0.8c0.1,0.1,0.3,0.1,0.4,0.1c0.1,0,0.3-0.2,0.4-0.4l0,0
					c0.1-0.2,0.2-0.4,0.2-0.5C238.9,130.1,238.8,130,238.7,129.9z"/>
			</g>
		</g>
		<g>
			<g>
				<path fill="#FFFFFF" d="M239.9,131.9c-0.1,0.1-0.2,0.2-0.3,0.2c-0.1,0-0.3,0-0.4-0.2c-0.2-0.1-0.3-0.2-0.4-0.4l0.1-0.1
					c0.1,0.2,0.2,0.3,0.4,0.4c0.1,0.1,0.2,0.1,0.3,0.1c0.1,0,0.2,0,0.2-0.1c0-0.1,0.1-0.1,0-0.2c0-0.1-0.1-0.2-0.2-0.3
					c-0.1-0.1-0.2-0.2-0.2-0.3c0-0.1,0-0.1,0-0.2c0-0.1,0-0.1,0.1-0.2c0.1-0.1,0.2-0.1,0.3-0.1c0.1,0,0.3,0,0.4,0.1
					c0.1,0.1,0.3,0.2,0.3,0.3l-0.1,0.1c-0.1-0.1-0.2-0.2-0.3-0.3c-0.1-0.1-0.2-0.1-0.3-0.1c-0.1,0-0.1,0-0.2,0.1
					c0,0.1-0.1,0.1,0,0.2c0,0.1,0.1,0.2,0.2,0.3c0.1,0.1,0.1,0.2,0.2,0.3c0,0.1,0,0.1,0,0.2C239.9,131.8,239.9,131.9,239.9,131.9z"
					/>
			</g>
		</g>
	</g>
	<g>
		<g>
			<g>
				<g>
					<path fill="#FFFFFF" d="M228.8,126.4c-0.2-0.2-0.3-0.5-0.1-0.7c-0.1-0.1-0.1-0.2-0.2-0.3c-0.3,0-0.5-0.1-0.6-0.4
						c0-0.1,0-0.3,0.1-0.4c0.1-0.1,0.2-0.2,0.3-0.2c0-0.1,0-0.2,0.1-0.3c-0.2-0.2-0.3-0.5-0.1-0.7c0.2-0.2,0.5-0.3,0.7-0.1
						c0.1-0.1,0.2-0.1,0.3-0.2c0-0.1,0-0.3,0.1-0.4c0.1-0.1,0.2-0.2,0.3-0.2c0.3-0.1,0.5,0.1,0.6,0.4c0.1,0,0.2,0,0.3,0.1
						c0.2-0.2,0.5-0.3,0.7-0.1c0.2,0.2,0.3,0.5,0.1,0.7c0.1,0.1,0.1,0.2,0.2,0.3c0.3,0,0.5,0.1,0.6,0.4c0,0.1,0,0.3-0.1,0.4
						c-0.1,0.1-0.2,0.2-0.3,0.2c0,0.1,0,0.2-0.1,0.3c0.2,0.2,0.3,0.5,0.1,0.7c-0.2,0.2-0.5,0.3-0.7,0.1c-0.1,0.1-0.2,0.1-0.3,0.2
						c0,0.1,0,0.3-0.1,0.4c-0.1,0.1-0.2,0.2-0.3,0.2c-0.3,0.1-0.5-0.1-0.6-0.4c-0.1,0-0.2,0-0.3-0.1
						C229.3,126.5,229,126.6,228.8,126.4z M228.5,125.2L228.5,125.2c0.1,0.2,0.2,0.3,0.3,0.4l0.1,0.1l-0.1,0.1c0,0,0,0,0,0
						c-0.1,0.2-0.1,0.4,0.1,0.5c0.2,0.1,0.4,0.1,0.5-0.1c0,0,0,0,0,0l0-0.1l0.1,0c0.1,0.1,0.3,0.1,0.4,0.1l0.1,0l0,0.1c0,0,0,0,0,0
						c0,0.2,0.2,0.3,0.4,0.3c0.1,0,0.2-0.1,0.2-0.1c0-0.1,0.1-0.2,0-0.2c0,0,0,0,0,0l0-0.1l0.1,0c0.1-0.1,0.3-0.2,0.4-0.3l0.1-0.1
						l0.1,0.1c0,0,0,0,0,0c0.2,0.1,0.4,0.1,0.5-0.1c0.1-0.2,0.1-0.4-0.1-0.5l-0.1,0l0-0.1c0.1-0.1,0.1-0.3,0.1-0.4l0-0.1l0.1,0
						c0,0,0,0,0,0c0.1,0,0.2-0.1,0.2-0.1c0-0.1,0.1-0.2,0-0.2c0-0.2-0.2-0.3-0.4-0.3c0,0,0,0,0,0l-0.1,0l0-0.1
						c-0.1-0.1-0.2-0.3-0.3-0.4l-0.1-0.1l0.1-0.1c0,0,0,0,0,0c0.1-0.2,0.1-0.4-0.1-0.5c-0.2-0.1-0.4-0.1-0.5,0.1c0,0,0,0,0,0l0,0.1
						l-0.1,0c-0.1-0.1-0.3-0.1-0.4-0.1l-0.1,0l0-0.1c0,0,0,0,0,0c0-0.2-0.2-0.3-0.4-0.3c-0.1,0-0.2,0.1-0.2,0.1c0,0.1-0.1,0.2,0,0.2
						c0,0,0,0,0,0l0,0.1l-0.1,0c-0.1,0.1-0.3,0.2-0.4,0.3l-0.1,0.1l-0.1-0.1c0,0,0,0,0,0c-0.2-0.1-0.4-0.1-0.5,0.1
						c-0.1,0.2,0,0.4,0.1,0.5l0.1,0l0,0.1c-0.1,0.1-0.1,0.3-0.1,0.4l0,0.1l-0.1,0c0,0,0,0,0,0c-0.1,0-0.2,0.1-0.2,0.1
						c0,0.1-0.1,0.2,0,0.2c0,0.2,0.2,0.3,0.4,0.3C228.4,125.3,228.4,125.3,228.5,125.2L228.5,125.2z"/>
				</g>
			</g>
		</g>
		<g>
			<g>
				<g>
					<path fill="#FFFFFF" d="M229.6,125.2c-0.3-0.2-0.4-0.6-0.2-0.9c0.2-0.3,0.6-0.4,0.9-0.2s0.4,0.6,0.2,0.9
						C230.3,125.3,229.9,125.4,229.6,125.2z M230.2,124.2c-0.2-0.1-0.5-0.1-0.7,0.1s-0.1,0.5,0.1,0.7c0.2,0.1,0.5,0.1,0.7-0.1
						S230.4,124.4,230.2,124.2z"/>
				</g>
			</g>
		</g>
		<g>
			<g>
				<g>
					<path fill="#FFFFFF" d="M229.3,125.6c-0.6-0.4-0.7-1.1-0.3-1.7c0.4-0.6,1.1-0.7,1.7-0.3c0.6,0.4,0.7,1.1,0.3,1.7
						C230.6,125.9,229.8,126,229.3,125.6z M230.5,123.7c-0.5-0.3-1.1-0.2-1.5,0.3c-0.3,0.5-0.2,1.1,0.3,1.5c0.5,0.3,1.1,0.2,1.5-0.3
						C231.2,124.7,231,124.1,230.5,123.7z"/>
				</g>
			</g>
		</g>
	</g>
</g>
<g>
	<g>
		<g>
			<g>
				<path fill="#FFFFFF" d="M272,114.7l-0.4-0.7l-0.7,0.1l-0.1-0.1l2-0.2l0,0.1l-1.3,1.5l-0.1-0.1L272,114.7z M271.8,114l0.3,0.6
					l0.5-0.5c0,0,0.1-0.1,0.2-0.2c-0.1,0-0.2,0-0.2,0L271.8,114z"/>
			</g>
		</g>
		<g>
			<g>
				<path fill="#FFFFFF" d="M273.3,115.4c0,0.1,0.1,0.1,0.1,0.2l-0.1,0c0-0.1,0-0.1-0.1-0.2c-0.1-0.1-0.1-0.2-0.3-0.2
					c-0.1,0-0.3,0-0.4,0.1l-0.7,0.4l-0.1-0.1l1.2-0.6l0,0.1l-0.2,0.1l0,0c0.1,0,0.2,0,0.3,0.1C273.2,115.3,273.2,115.4,273.3,115.4z
					"/>
			</g>
		</g>
		<g>
			<g>
				<path fill="#FFFFFF" d="M272.5,116.8c0,0.1,0.1,0.1,0.1,0.2l-0.1,0c0,0-0.1-0.1-0.1-0.2c-0.1-0.1-0.1-0.2,0-0.3
					c0-0.1,0.1-0.2,0.2-0.2l0.8-0.4l-0.1-0.2l0.1,0l0.1,0.2l0.3-0.1l0,0.1l-0.3,0.2l0.2,0.4l-0.1,0.1l-0.2-0.4l-0.8,0.4
					c-0.1,0-0.2,0.1-0.2,0.2C272.4,116.7,272.4,116.7,272.5,116.8z"/>
			</g>
		</g>
		<g>
			<g>
				<path fill="#FFFFFF" d="M274.2,116.5c0.1,0,0.1,0,0.1,0c0,0,0,0,0,0.1c0,0,0,0-0.1,0.1c0,0-0.1,0-0.1,0c0,0,0,0-0.1,0
					C274.1,116.5,274.1,116.5,274.2,116.5z M272.7,117.4l-0.1-0.1l1.2-0.6l0.1,0.1L272.7,117.4z"/>
			</g>
		</g>
		<g>
			<g>
				<path fill="#FFFFFF" d="M274.3,117.7l-0.2-0.3L273,118l-0.1-0.1l1.1-0.6l-0.1-0.2l0.1,0l0.2,0.2l0.1,0c0.2-0.1,0.3-0.1,0.4-0.1
					c0.1,0,0.2,0.1,0.2,0.2c0,0.1,0.1,0.1,0.1,0.2l-0.1,0c0-0.1,0-0.1-0.1-0.2c0-0.1-0.1-0.1-0.2-0.1c-0.1,0-0.2,0-0.3,0.1l-0.1,0.1
					L274.3,117.7L274.3,117.7z"/>
			</g>
		</g>
		<g>
			<g>
				<path fill="#FFFFFF" d="M273.7,119.3l0.2-0.1l0,0c-0.1,0-0.2-0.1-0.3-0.1c-0.1,0-0.1-0.1-0.2-0.2c-0.1-0.1-0.1-0.2-0.1-0.3
					s0.1-0.2,0.2-0.2c0.1-0.1,0.2-0.1,0.4,0c0.1,0.1,0.2,0.2,0.3,0.4l0.1,0.2l0.1,0c0.1-0.1,0.2-0.1,0.2-0.2c0-0.1,0-0.2,0-0.3
					c-0.1-0.1-0.2-0.2-0.3-0.3l0.1-0.1c0.1,0.1,0.2,0.2,0.3,0.4c0.1,0.1,0.1,0.3,0.1,0.4c0,0.1-0.1,0.2-0.3,0.3L273.7,119.3
					L273.7,119.3z M273.5,118.8c0.1,0.1,0.2,0.2,0.3,0.3c0.1,0,0.2,0,0.4,0l0.1-0.1l-0.1-0.2c-0.1-0.2-0.2-0.3-0.3-0.3
					c-0.1-0.1-0.2,0-0.3,0c-0.1,0-0.1,0.1-0.1,0.2C273.4,118.6,273.5,118.7,273.5,118.8z"/>
			</g>
		</g>
		<g>
			<g>
				<path fill="#FFFFFF" d="M274.1,120.3c-0.1-0.2-0.1-0.3,0-0.5c0.1-0.2,0.2-0.3,0.4-0.4c0.2-0.1,0.4-0.1,0.6-0.1
					c0.2,0,0.3,0.2,0.4,0.3c0.1,0.1,0.1,0.2,0.1,0.3l-0.1,0c0-0.1-0.1-0.2-0.1-0.3c-0.1-0.2-0.2-0.2-0.3-0.3c-0.1,0-0.3,0-0.5,0.1
					c-0.2,0.1-0.3,0.2-0.3,0.3c-0.1,0.1,0,0.3,0,0.4c0.1,0.1,0.1,0.2,0.2,0.3l-0.1,0.1C274.3,120.5,274.2,120.4,274.1,120.3z"/>
			</g>
		</g>
		<g>
			<g>
				<path fill="#FFFFFF" d="M274.7,121.2c0,0.1,0.1,0.1,0.1,0.2l-0.1,0c0,0-0.1-0.1-0.1-0.2c-0.1-0.1-0.1-0.2,0-0.3
					c0-0.1,0.1-0.2,0.2-0.2l0.8-0.4l-0.1-0.2l0.1,0l0.1,0.2l0.3-0.1l0,0.1l-0.3,0.2l0.2,0.4l-0.1,0.1l-0.2-0.4l-0.8,0.4
					c-0.1,0-0.2,0.1-0.2,0.2C274.7,121,274.7,121.1,274.7,121.2z"/>
			</g>
		</g>
		<g>
			<g>
				<path fill="#FFFFFF" d="M275.6,122.2c-0.1,0.1-0.2,0.1-0.3,0c-0.1-0.1-0.2-0.2-0.3-0.3c-0.1-0.2-0.1-0.3-0.1-0.4l0.1-0.1
					c0,0.2,0,0.3,0.1,0.4c0.1,0.1,0.1,0.2,0.2,0.2c0.1,0,0.1,0,0.2,0c0.1,0,0.1-0.1,0.1-0.2c0-0.1,0-0.2,0-0.3c0-0.1,0-0.3,0-0.3
					c0-0.1,0-0.1,0.1-0.2c0,0,0.1-0.1,0.1-0.1c0.1,0,0.2,0,0.3,0c0.1,0,0.2,0.1,0.3,0.3c0.1,0.1,0.1,0.3,0.1,0.4l-0.1,0
					c0-0.1,0-0.3-0.1-0.4c-0.1-0.1-0.1-0.2-0.2-0.2c-0.1,0-0.1,0-0.2,0c-0.1,0-0.1,0.1-0.1,0.1c0,0.1,0,0.2,0,0.3c0,0.1,0,0.2,0,0.3
					c0,0.1,0,0.1-0.1,0.2S275.7,122.2,275.6,122.2z"/>
			</g>
		</g>
	</g>
	<g>
		<g>
			<g>
				<g>
					<g>
						<g>
							
								<rect x="269.4" y="112.9" transform="matrix(-0.3014 0.9535 -0.9535 -0.3014 458.836 -110.2392)" fill="#FFFFFF" width="0.8" height="0.2"/>
						</g>
					</g>
				</g>
			</g>
			<g>
				<g>
					<g>
						<g>
							<path fill="#FFFFFF" d="M269.6,112.4c-0.1-0.1-0.1-0.3,0-0.4c0-0.1,0.1-0.2,0.3-0.3c0.1-0.1,0.3-0.1,0.4,0
								c0.3,0.1,0.4,0.4,0.4,0.7c0,0.1-0.1,0.2-0.3,0.3c-0.1,0.1-0.3,0.1-0.4,0C269.8,112.6,269.6,112.5,269.6,112.4z M270.4,112
								c0-0.1-0.1-0.2-0.2-0.2c-0.1,0-0.2,0-0.3,0c-0.1,0-0.2,0.1-0.2,0.2c-0.1,0.2,0.1,0.4,0.3,0.5c0.1,0,0.2,0,0.3,0
								s0.2-0.1,0.2-0.2C270.5,112.2,270.4,112.1,270.4,112z"/>
						</g>
					</g>
				</g>
			</g>
		</g>
		<g>
			<g>
				<g>
					<g>
						<g>
							<polygon fill="#FFFFFF" points="268.9,112 268.3,110.9 270.7,109.7 271.9,110.1 272.8,111.8 271.1,112.6 271,112.5 
								272.6,111.7 271.8,110.2 270.7,109.9 268.5,111 269,112 							"/>
						</g>
					</g>
				</g>
			</g>
			<g>
				<g>
					<g>
						<g>
							<polygon fill="#FFFFFF" points="271,110.8 270.6,109.9 270.7,109.9 271.1,110.5 271.8,110.2 271.8,110.3 							"/>
						</g>
					</g>
				</g>
			</g>
		</g>
	</g>
</g>
<g>
	<g>
		<g>
			<g>
				<path fill="#FFFFFF" d="M241.6,124.2l-0.6-0.5l-0.6,0.3l-0.1-0.1l1.8-0.9l0.1,0.1l-0.7,1.9l-0.1-0.1L241.6,124.2z M241.1,123.6
					l0.5,0.4l0.3-0.7c0-0.1,0-0.1,0.1-0.2c-0.1,0-0.1,0.1-0.2,0.1L241.1,123.6z"/>
			</g>
		</g>
		<g>
			<g>
				<path fill="#FFFFFF" d="M243,124.4c0,0,0.1,0.1,0.1,0.1l-0.1,0.1C243,124.6,242.9,124.5,243,124.4c-0.2,0-0.3,0-0.4,0
					c-0.1,0-0.2,0.1-0.3,0.2l-0.5,0.6l-0.1-0.1l0.9-1l0.1,0.1l-0.2,0.2l0,0c0.1,0,0.2-0.1,0.3,0C242.8,124.3,242.9,124.3,243,124.4z
					"/>
			</g>
		</g>
		<g>
			<g>
				<path fill="#FFFFFF" d="M242.7,126c0.1,0.1,0.1,0.1,0.2,0.1l-0.1,0.1C242.8,126.1,242.7,126.1,242.7,126c-0.2,0-0.2-0.1-0.2-0.2
					c0-0.1,0-0.2,0.1-0.3l0.6-0.7l-0.2-0.1l0-0.1l0.2,0.1l0.3-0.2l0,0l-0.2,0.3l0.3,0.3l-0.1,0.1l-0.3-0.3l-0.6,0.7
					c-0.1,0.1-0.1,0.2-0.1,0.2C242.6,125.8,242.7,125.9,242.7,126z"/>
			</g>
		</g>
		<g>
			<g>
				<path fill="#FFFFFF" d="M244.2,125c0.1-0.1,0.1-0.1,0.1,0c0,0,0,0,0,0.1c0,0,0,0.1,0,0.1c0,0-0.1,0-0.1,0.1c0,0,0,0-0.1,0
					C244.2,125.1,244.2,125.1,244.2,125z M243.2,126.4L243.2,126.4l0.8-1.1l0.1,0.1L243.2,126.4z"/>
			</g>
		</g>
		<g>
			<g>
				<path fill="#FFFFFF" d="M244.7,126.1l-0.2-0.2l-0.8,1l-0.1-0.1l0.8-1l-0.2-0.2l0-0.1l0.2,0.1l0.1-0.1c0.1-0.1,0.2-0.2,0.3-0.2
					c0.1,0,0.2,0,0.3,0.1c0.1,0.1,0.1,0.1,0.2,0.2l-0.1,0.1c0-0.1-0.1-0.1-0.1-0.2c-0.1-0.1-0.1-0.1-0.2-0.1c-0.1,0-0.1,0.1-0.2,0.2
					l-0.1,0.1L244.7,126.1L244.7,126.1z"/>
			</g>
		</g>
		<g>
			<g>
				<path fill="#FFFFFF" d="M244.7,127.8l0.1-0.2l0,0c-0.1,0-0.2,0-0.3,0c-0.1,0-0.2-0.1-0.2-0.1c-0.1-0.1-0.2-0.2-0.2-0.3
					c0-0.1,0-0.2,0.1-0.3c0.1-0.1,0.2-0.1,0.3-0.1c0.1,0,0.3,0.1,0.4,0.2l0.2,0.2l0.1-0.1c0.1-0.1,0.1-0.2,0.1-0.3
					c0-0.1,0-0.2-0.1-0.2c-0.1-0.1-0.2-0.1-0.4-0.2l0-0.1c0.2,0,0.3,0.1,0.4,0.2c0.1,0.1,0.2,0.2,0.2,0.3c0,0.1,0,0.2-0.2,0.4
					L244.7,127.8L244.7,127.8z M244.4,127.4c0.1,0.1,0.2,0.1,0.3,0.1c0.1,0,0.2-0.1,0.3-0.2l0.1-0.1l-0.2-0.2
					c-0.2-0.1-0.3-0.2-0.4-0.2c-0.1,0-0.2,0-0.3,0.1c-0.1,0.1-0.1,0.1-0.1,0.2C244.3,127.3,244.3,127.4,244.4,127.4z"/>
			</g>
		</g>
		<g>
			<g>
				<path fill="#FFFFFF" d="M245.5,128.6c-0.1-0.1-0.2-0.3-0.2-0.5c0-0.2,0.1-0.3,0.2-0.5c0.2-0.2,0.3-0.3,0.5-0.3
					c0.2,0,0.3,0,0.5,0.2c0.1,0.1,0.2,0.2,0.2,0.3l-0.1,0.1c-0.1-0.1-0.1-0.2-0.2-0.3c-0.1-0.1-0.3-0.2-0.4-0.1s-0.3,0.1-0.4,0.3
					c-0.1,0.1-0.2,0.3-0.2,0.4C245.4,128.3,245.5,128.4,245.5,128.6c0.2,0,0.3,0.1,0.4,0.1l-0.1,0.1
					C245.8,128.7,245.7,128.7,245.5,128.6z"/>
			</g>
		</g>
		<g>
			<g>
				<path fill="#FFFFFF" d="M246.4,129.2c0.1,0.1,0.1,0.1,0.2,0.1l-0.1,0.1C246.5,129.4,246.4,129.3,246.4,129.2
					c-0.2,0-0.2-0.1-0.2-0.2c0-0.1,0-0.2,0.1-0.3l0.6-0.7l-0.2-0.1l0-0.1l0.2,0.1l0.3-0.2l0,0l-0.2,0.3l0.3,0.3l-0.1,0.1l-0.3-0.3
					l-0.6,0.7c-0.1,0.1-0.1,0.2-0.1,0.2C246.3,129.1,246.4,129.1,246.4,129.2z"/>
			</g>
		</g>
		<g>
			<g>
				<path fill="#FFFFFF" d="M247.6,129.9c-0.1,0.1-0.2,0.1-0.3,0.1c-0.1,0-0.2-0.1-0.4-0.2c-0.1-0.1-0.2-0.2-0.3-0.4l0.1-0.1
					c0.1,0.1,0.1,0.3,0.3,0.4c0.1,0.1,0.2,0.1,0.3,0.2c0.1,0,0.2,0,0.2-0.1c0-0.1,0.1-0.1,0.1-0.2c0-0.1-0.1-0.2-0.1-0.3
					c-0.1-0.1-0.1-0.2-0.1-0.3c0-0.1,0-0.1,0-0.2c0-0.1,0-0.1,0.1-0.2c0.1-0.1,0.2-0.1,0.3-0.1c0.1,0,0.2,0.1,0.3,0.2
					c0.1,0.1,0.2,0.2,0.3,0.3l-0.1,0.1c-0.1-0.1-0.1-0.2-0.2-0.3c-0.1-0.1-0.2-0.1-0.2-0.1c-0.1,0-0.1,0-0.2,0.1
					c0,0.1-0.1,0.1-0.1,0.2c0,0.1,0.1,0.2,0.1,0.3c0.1,0.1,0.1,0.2,0.1,0.3c0,0.1,0,0.1,0,0.2S247.7,129.8,247.6,129.9z"/>
			</g>
		</g>
	</g>
	<g>
		<g>
			<g>
				<g>
					<g>
						<g>
							
								<rect x="238.5" y="123.3" transform="matrix(6.415460e-02 0.9979 -0.9979 6.415460e-02 346.6186 -122.9345)" fill="#FFFFFF" width="0.8" height="0.2"/>
						</g>
					</g>
				</g>
			</g>
			<g>
				<g>
					<g>
						<g>
							<path fill="#FFFFFF" d="M238.4,122.9c-0.1-0.1-0.2-0.2-0.2-0.4c0-0.1,0-0.3,0.1-0.4c0.1-0.1,0.2-0.2,0.4-0.2
								c0.3,0,0.6,0.2,0.6,0.5c0,0.1,0,0.3-0.1,0.4s-0.2,0.2-0.4,0.2C238.7,123,238.6,123,238.4,122.9z M239.1,122.2
								c-0.1-0.1-0.2-0.1-0.3-0.1c-0.1,0-0.2,0.1-0.3,0.1s-0.1,0.2-0.1,0.3c0,0.2,0.2,0.4,0.4,0.4c0.1,0,0.2-0.1,0.3-0.1
								s0.1-0.2,0.1-0.3C239.2,122.4,239.1,122.3,239.1,122.2z"/>
						</g>
					</g>
				</g>
			</g>
		</g>
		<g>
			<g>
				<g>
					<g>
						<g>
							<polygon fill="#FFFFFF" points="237.7,122.8 236.7,122 238.5,120 239.8,119.9 241.2,121.2 240,122.5 239.8,122.4 241,121.2 
								239.7,120.1 238.6,120.1 237,122 237.8,122.7 							"/>
						</g>
					</g>
				</g>
			</g>
			<g>
				<g>
					<g>
						<g>
							<polygon fill="#FFFFFF" points="239.2,120.8 238.5,120.2 238.6,120.1 239.2,120.6 239.7,120 239.8,120.1 							"/>
						</g>
					</g>
				</g>
			</g>
		</g>
	</g>
</g>
<g>
	<g>
		<g>
			<g>
				<path fill="#FFFFFF" d="M281.4,112.4l-0.1-0.1l0.9-0.4l-0.5-1l-0.9,0.4l-0.1-0.1l1.8-0.8l0.1,0.1l-0.8,0.4l0.5,1l0.8-0.4
					l0.1,0.1L281.4,112.4z"/>
			</g>
		</g>
		<g>
			<g>
				<path fill="#FFFFFF" d="M282.8,113.6c-0.2,0.1-0.4,0.1-0.6,0.1c-0.2,0-0.3-0.2-0.4-0.3c-0.1-0.1-0.1-0.2-0.1-0.3
					c0-0.1,0.1-0.2,0.1-0.3c0.1-0.1,0.2-0.2,0.3-0.2c0.2-0.1,0.4-0.1,0.6-0.1c0.2,0,0.3,0.2,0.4,0.3c0.1,0.2,0.1,0.3,0,0.5
					C283.2,113.4,283,113.5,282.8,113.6z M282.3,112.6c-0.2,0.1-0.3,0.2-0.4,0.3c-0.1,0.1-0.1,0.3,0,0.4s0.2,0.2,0.3,0.3
					c0.1,0,0.3,0,0.5-0.1c0.2-0.1,0.3-0.2,0.4-0.3c0.1-0.1,0.1-0.3,0-0.4c-0.1-0.1-0.2-0.2-0.3-0.3
					C282.7,112.5,282.5,112.5,282.3,112.6z"/>
			</g>
		</g>
		<g>
			<g>
				<path fill="#FFFFFF" d="M283.1,115.9l0.9-0.4c0.1-0.1,0.2-0.1,0.2-0.2c0-0.1,0-0.2,0-0.3c-0.1-0.1-0.1-0.2-0.3-0.2
					c-0.1,0-0.2,0-0.4,0.1l-0.8,0.4l-0.1-0.1l0.9-0.4c0.2-0.1,0.3-0.3,0.2-0.5c-0.1-0.1-0.2-0.2-0.3-0.2c-0.1,0-0.3,0-0.4,0.1
					l-0.7,0.3l-0.1-0.1l1.3-0.6l0,0.1l-0.2,0.1l0,0c0.1,0,0.2,0,0.2,0.1c0.1,0,0.1,0.1,0.2,0.2c0.1,0.2,0.1,0.4,0,0.5l0,0
					c0.1,0,0.2,0,0.3,0.1c0.1,0.1,0.1,0.1,0.2,0.2c0.1,0.1,0.1,0.3,0,0.4c0,0.1-0.1,0.2-0.3,0.3l-0.9,0.4L283.1,115.9z"/>
			</g>
		</g>
		<g>
			<g>
				<path fill="#FFFFFF" d="M283.6,117c-0.1-0.2-0.1-0.4,0-0.5c0.1-0.2,0.2-0.3,0.4-0.4c0.2-0.1,0.4-0.1,0.6-0.1
					c0.2,0,0.3,0.1,0.4,0.3c0.1,0.2,0.1,0.3,0,0.4c-0.1,0.1-0.2,0.3-0.4,0.3l-0.1,0l-0.5-0.9c-0.2,0.1-0.3,0.2-0.3,0.3
					c-0.1,0.1,0,0.3,0,0.4c0,0.1,0.1,0.1,0.1,0.2c0,0.1,0.1,0.1,0.2,0.2l-0.1,0.1c-0.1-0.1-0.1-0.1-0.2-0.2
					C283.7,117.2,283.7,117.1,283.6,117z M284.9,116.4c-0.1-0.1-0.2-0.2-0.3-0.2c-0.1,0-0.3,0-0.4,0l0.4,0.8
					c0.2-0.1,0.3-0.2,0.3-0.3C284.9,116.6,284.9,116.5,284.9,116.4z"/>
			</g>
		</g>
	</g>
	<g>
		<g>
			<g>
				<g>
					<path fill="#FFFFFF" d="M281.2,108c0.3,0.6,0,1.3-0.6,1.6s-1.4,0.1-1.7-0.5c-0.3-0.6,0-1.3,0.6-1.6
						C280.1,107.2,280.9,107.4,281.2,108 M281.3,107.9c-0.3-0.7-1.2-0.9-1.9-0.6c-0.7,0.3-1,1.2-0.7,1.8c0.3,0.7,1.2,0.9,1.9,0.6
						C281.3,109.4,281.6,108.6,281.3,107.9L281.3,107.9z"/>
				</g>
			</g>
		</g>
		<g>
			<g>
				<g>
					
						<rect x="277.2" y="109.4" transform="matrix(0.4363 0.8998 -0.8998 0.4363 255.2555 -188.7239)" fill="#FFFFFF" width="2.2" height="0"/>
				</g>
			</g>
		</g>
	</g>
</g>
<g>
	<g>
		<g>
			<g>
				<path fill="#FFFFFF" d="M251.6,122.6l-0.8-0.5l-0.7,0.5l-0.1-0.1l2-1.4l0.1,0.1l-0.5,2.4l-0.1-0.1L251.6,122.6z M251,122
					l0.7,0.5l0.2-0.8c0-0.1,0-0.2,0.1-0.3c-0.1,0.1-0.2,0.1-0.2,0.2L251,122z"/>
			</g>
		</g>
		<g>
			<g>
				<path fill="#FFFFFF" d="M253.3,122.6c0.1,0.1,0.2,0.1,0.2,0.2c0,0.1,0.1,0.2,0.1,0.3l0,0c0.1-0.1,0.1-0.2,0.2-0.3l0.3-0.5
					l0.1,0.1l-1.3,2l-0.1-0.1l0.1-0.2l0,0c-0.2,0.1-0.4,0.1-0.6-0.1c-0.2-0.1-0.3-0.3-0.3-0.5c0-0.2,0-0.4,0.2-0.6
					c0.2-0.2,0.3-0.4,0.5-0.4S253.1,122.5,253.3,122.6z M253.2,122.7c-0.2-0.1-0.3-0.1-0.5-0.1c-0.1,0.1-0.3,0.2-0.4,0.4
					c-0.3,0.4-0.2,0.7,0.1,0.9c0.2,0.1,0.3,0.1,0.4,0.1c0.1,0,0.3-0.2,0.4-0.4l0,0c0.1-0.2,0.2-0.4,0.2-0.5
					C253.5,123,253.4,122.8,253.2,122.7z"/>
			</g>
		</g>
		<g>
			<g>
				<path fill="#FFFFFF" d="M255.1,125.9l0.6-0.9c0.1-0.1,0.1-0.3,0.1-0.4c0-0.1-0.1-0.2-0.2-0.3c-0.1-0.1-0.3-0.1-0.4-0.1
					c-0.1,0-0.2,0.1-0.4,0.3l-0.6,0.8l-0.1-0.1l0.6-1c0.2-0.2,0.1-0.4-0.1-0.6c-0.1-0.1-0.3-0.1-0.4-0.1c-0.1,0-0.2,0.2-0.4,0.3
					l-0.5,0.8l-0.1-0.1l0.9-1.4l0.1,0.1l-0.1,0.2l0,0c0.1,0,0.2-0.1,0.3,0c0.1,0,0.2,0,0.3,0.1c0.2,0.1,0.3,0.3,0.3,0.5l0,0
					c0.1,0,0.2-0.1,0.3-0.1c0.1,0,0.2,0,0.3,0.1c0.2,0.1,0.2,0.2,0.3,0.4c0,0.1,0,0.3-0.1,0.5l-0.6,0.9L255.1,125.9z"/>
			</g>
		</g>
		<g>
			<g>
				<path fill="#FFFFFF" d="M256.9,124.5c0.1-0.1,0.1-0.1,0.2-0.1c0,0,0,0,0,0.1c0,0,0,0.1,0,0.1c0,0-0.1,0.1-0.1,0.1
					c0,0-0.1,0-0.1,0C256.8,124.7,256.8,124.6,256.9,124.5z M255.8,126.4l-0.1-0.1l0.9-1.4l0.1,0.1L255.8,126.4z"/>
			</g>
		</g>
		<g>
			<g>
				<path fill="#FFFFFF" d="M257.3,127.4l0.6-0.9c0.1-0.1,0.1-0.3,0.1-0.4c0-0.1-0.1-0.2-0.2-0.3c-0.2-0.1-0.3-0.2-0.5-0.1
					c-0.1,0-0.3,0.1-0.4,0.3l-0.5,0.8l-0.1-0.1l0.9-1.4l0.1,0.1l-0.1,0.2l0,0c0.2-0.1,0.4,0,0.6,0.1c0.3,0.2,0.4,0.5,0.1,0.8
					l-0.6,0.9L257.3,127.4z"/>
			</g>
		</g>
	</g>
	<g>
		<g>
			<g>
				<path fill="#FFFFFF" d="M247.9,117.1c-0.9-0.6-2.2-0.4-2.8,0.5s-0.4,2.2,0.5,2.8c0.9,0.6,2.2,0.4,2.8-0.5
					C249.1,119,248.9,117.8,247.9,117.1z M247.9,117.3c0.9,0.6,1.1,1.7,0.5,2.6c-0.2,0.4-0.6,0.6-1,0.7c0.1-0.4,0-0.8-0.2-1.2
					c0.2,0,0.5-0.2,0.6-0.4c0.3-0.4,0.2-1-0.3-1.3c-0.4-0.3-1-0.2-1.3,0.3c-0.2,0.2-0.2,0.5-0.1,0.7c-0.4-0.1-0.8,0-1.1,0.2
					c0-0.4,0.1-0.8,0.3-1.2C245.8,116.9,247,116.7,247.9,117.3z M247,119.3c-0.1,0-0.2,0-0.3,0c-0.1,0-0.1,0-0.2-0.1
					c-0.1,0-0.1-0.1-0.1-0.1c-0.1-0.1-0.1-0.2-0.1-0.2c-0.1-0.2-0.1-0.5,0.1-0.7c0.2-0.4,0.7-0.4,1.1-0.2s0.4,0.7,0.2,1.1
					C247.5,119.2,247.2,119.3,247,119.3z M245.7,120.4c-0.4-0.3-0.7-0.8-0.8-1.3c0.4-0.2,0.8-0.3,1.2-0.2c0.1,0.1,0.2,0.3,0.3,0.4
					c0.1,0.1,0.3,0.2,0.5,0.2c0.3,0.3,0.4,0.7,0.3,1.2C246.7,120.8,246.2,120.7,245.7,120.4z"/>
			</g>
		</g>
	</g>
</g>
<g>
	<g>
		<g>
			<path fill="#FFFFFF" d="M291.3,109.6l0.4-0.6l-0.4-0.6l-0.6,0.2l-0.1-0.2l2-0.5l0.1,0.2l-1.2,1.7L291.3,109.6z M291.8,108.9
				l0.4-0.5c0-0.1,0.1-0.1,0.2-0.2c-0.1,0-0.2,0.1-0.3,0.1l-0.6,0.2L291.8,108.9z"/>
		</g>
	</g>
	<g>
		<g>
			<path fill="#FFFFFF" d="M293.2,109.7c0,0.1,0.1,0.1,0.1,0.2l-0.2,0.1c0-0.1,0-0.1-0.1-0.1c-0.1-0.1-0.2-0.2-0.3-0.2
				c-0.1,0-0.2,0-0.4,0.1l-0.6,0.4l-0.1-0.2l1.2-0.8l0.1,0.1l-0.2,0.2l0,0c0.1,0,0.2,0,0.3,0C293.1,109.6,293.2,109.6,293.2,109.7z"
				/>
		</g>
	</g>
	<g>
		<g>
			<path fill="#FFFFFF" d="M292.6,111.2C292.7,111.3,292.7,111.3,292.6,111.2c0.1,0.1,0.1,0.1,0.1,0.1l-0.1,0.1c0,0-0.1,0-0.1-0.1
				c0,0-0.1-0.1-0.1-0.1c-0.2-0.2-0.1-0.4,0.1-0.6l0.7-0.5l-0.1-0.2l0.1-0.1l0.2,0.1l0.3-0.1l0.1,0.1l-0.3,0.2l0.2,0.3l-0.1,0.1
				l-0.2-0.3l-0.7,0.5c-0.1,0-0.1,0.1-0.1,0.2C292.6,111.1,292.6,111.2,292.6,111.2z"/>
		</g>
	</g>
	<g>
		<g>
			<path fill="#FFFFFF" d="M294.3,110.7c0,0,0.1,0,0.1,0c0,0,0.1,0,0.1,0.1c0,0,0,0.1,0,0.1c0,0,0,0.1-0.1,0.1c0,0-0.1,0-0.1,0
				c0,0-0.1,0-0.1-0.1C294.2,110.8,294.2,110.8,294.3,110.7C294.2,110.7,294.3,110.7,294.3,110.7z M292.9,111.9l-0.1-0.2l1.2-0.8
				l0.1,0.2L292.9,111.9z"/>
		</g>
	</g>
	<g>
		<g>
			<path fill="#FFFFFF" d="M294.6,112.1l-0.2-0.3l-1.1,0.7l-0.1-0.2l1.1-0.7l-0.1-0.2l0.1-0.1l0.2,0.2l0.1,0
				c0.3-0.2,0.5-0.2,0.7,0.1c0,0.1,0.1,0.1,0.1,0.2l-0.2,0.1c0-0.1-0.1-0.2-0.1-0.2c0-0.1-0.1-0.1-0.2-0.1c-0.1,0-0.2,0-0.3,0.1
				l-0.1,0.1l0.2,0.3L294.6,112.1z"/>
		</g>
	</g>
	<g>
		<g>
			<path fill="#FFFFFF" d="M294.2,113.8l0.1-0.2l0,0c-0.1,0-0.2,0-0.3-0.1c-0.1,0-0.1-0.1-0.2-0.2c-0.1-0.1-0.1-0.2-0.1-0.3
				c0-0.1,0.1-0.2,0.2-0.3c0.2-0.2,0.5-0.1,0.8,0.3l0.1,0.2l0.1-0.1c0.1-0.1,0.1-0.1,0.2-0.2c0-0.1,0-0.2-0.1-0.2
				c-0.1-0.1-0.2-0.2-0.3-0.3l0.1-0.2c0.1,0,0.1,0.1,0.2,0.1c0.1,0.1,0.1,0.1,0.2,0.2c0.1,0.1,0.1,0.3,0.1,0.4
				c0,0.1-0.1,0.2-0.2,0.3l-0.8,0.6L294.2,113.8z M294.1,113.3c0.1,0.1,0.2,0.2,0.3,0.2c0.1,0,0.2,0,0.3-0.1l0.1-0.1l-0.1-0.2
				c-0.1-0.1-0.2-0.2-0.3-0.3c-0.1,0-0.2,0-0.3,0c-0.1,0-0.1,0.1-0.1,0.2C294,113.1,294,113.2,294.1,113.3z"/>
		</g>
	</g>
	<g>
		<g>
			<path fill="#FFFFFF" d="M294.9,114.8c-0.1-0.2-0.2-0.3-0.1-0.5c0-0.2,0.2-0.3,0.4-0.5c0.2-0.1,0.4-0.2,0.6-0.2
				c0.2,0,0.3,0.1,0.4,0.3c0,0.1,0.1,0.1,0.1,0.2c0,0.1,0,0.1,0,0.2l-0.2,0.1c0-0.1,0-0.1-0.1-0.2c0-0.1,0-0.1-0.1-0.1
				c-0.2-0.2-0.4-0.3-0.7,0c-0.1,0.1-0.2,0.2-0.3,0.3c0,0.1,0,0.2,0.1,0.3c0.1,0.1,0.2,0.2,0.3,0.3l-0.2,0.1
				C295.1,115,295,114.9,294.9,114.8z"/>
		</g>
	</g>
	<g>
		<g>
			<path fill="#FFFFFF" d="M295.7,115.7C295.7,115.7,295.7,115.7,295.7,115.7c0.1,0.1,0.1,0.1,0.1,0.1l-0.1,0.1c0,0-0.1,0-0.1-0.1
				c0,0-0.1-0.1-0.1-0.1c-0.2-0.2-0.1-0.4,0.1-0.6l0.7-0.5l-0.1-0.2l0.1-0.1l0.2,0.1l0.3-0.1l0.1,0.1l-0.3,0.2l0.2,0.3l-0.1,0.1
				l-0.2-0.3l-0.7,0.5c-0.1,0-0.1,0.1-0.1,0.2C295.6,115.5,295.7,115.6,295.7,115.7z"/>
		</g>
	</g>
	<g>
		<g>
			<path fill="#FFFFFF" d="M297.2,116.8c-0.2,0.1-0.4,0.2-0.6,0.2c-0.2,0-0.3-0.1-0.4-0.3c-0.1-0.1-0.1-0.2-0.1-0.3
				c0-0.1,0-0.2,0.1-0.3c0.1-0.1,0.2-0.2,0.3-0.3c0.2-0.1,0.4-0.2,0.6-0.2c0.2,0,0.3,0.1,0.4,0.3c0.1,0.2,0.2,0.3,0.1,0.5
				C297.5,116.5,297.4,116.6,297.2,116.8z M296.5,115.9c-0.2,0.1-0.2,0.2-0.3,0.3s0,0.2,0.1,0.4c0.1,0.1,0.2,0.2,0.3,0.2
				c0.1,0,0.3,0,0.4-0.1c0.2-0.1,0.2-0.2,0.3-0.3c0-0.1,0-0.2-0.1-0.4c-0.1-0.1-0.2-0.2-0.3-0.2
				C296.8,115.7,296.7,115.7,296.5,115.9z"/>
		</g>
	</g>
	<g>
		<g>
			<path fill="#FFFFFF" d="M298.4,117.2c0,0.1,0.1,0.1,0.1,0.2l-0.2,0.1c0-0.1,0-0.1-0.1-0.1c-0.1-0.1-0.2-0.2-0.3-0.2
				c-0.1,0-0.2,0-0.4,0.1l-0.6,0.4l-0.1-0.2l1.2-0.8l0.1,0.1l-0.2,0.2l0,0c0.1,0,0.2,0,0.3,0C298.3,117.1,298.3,117.1,298.4,117.2z"
				/>
		</g>
	</g>
	<g>
		<g>
			<path fill="#FFFFFF" d="M298.5,117.4l0.1,0.2l-0.5,0.7c-0.1,0.2-0.2,0.3-0.3,0.3l0,0c0,0,0.1,0,0.2-0.1c0.1,0,0.5-0.1,1-0.3
				l0.1,0.2l-1.7,0.4c-0.2,0-0.3,0-0.4,0c-0.1,0-0.2-0.1-0.3-0.2c0-0.1-0.1-0.1-0.1-0.2l0.1-0.1c0,0,0,0.1,0.1,0.1
				c0.1,0.1,0.2,0.2,0.4,0.1l0.2-0.1L298.5,117.4z"/>
		</g>
	</g>
</g>
<g>
	<g>
		<g>
			<path fill="#FFFFFF" d="M288.8,106c-0.4-0.6-0.3-1.4,0.3-1.7c0.6-0.4,1.4-0.3,1.7,0.3c0.4,0.6,0.3,1.4-0.3,1.7
				C290,106.7,289.2,106.5,288.8,106z M290.7,104.7c-0.3-0.5-1-0.6-1.4-0.3c-0.5,0.3-0.6,1-0.3,1.4s1,0.6,1.4,0.3
				S291,105.1,290.7,104.7z"/>
		</g>
	</g>
</g>
<g>
	<g>
		<g>
			
				<rect x="286.3" y="106.5" transform="matrix(0.5681 0.8229 -0.8229 0.5681 212.307 -191.1957)" fill="#FFFFFF" width="4.1" height="0.3"/>
		</g>
	</g>
</g>
<g opacity="0.4">
	<g>
		<g>
			<polygon fill="#2A2B2B" points="328.8,166.2 284.4,104.7 285.2,104.1 331.1,168.2 			"/>
		</g>
	</g>
</g>
<g>
	<g>
		<polygon fill="#E2E2E2" points="236.9,135.5 344.2,180.5 263.9,125.8 		"/>
	</g>
</g>
<g>
	<g>
		<polygon fill="#FFFFFF" points="282.2,128.5 293.3,125.2 303.1,140.9 297.9,141.8 		"/>
	</g>
	<g>
		<path d="M297.7,142.3l-16.6-14l12.4-3.7l10.4,16.7L297.7,142.3z M283.2,128.7l14.8,12.5l4.3-0.7l-9.2-14.8L283.2,128.7z"/>
	</g>
</g>
<g>
	<g>
		<polygon fill="#DEDDDD" points="282.2,128.5 281.4,137.8 295.4,146.8 297.9,141.8 		"/>
	</g>
	<g>
		<path d="M295.6,147.5l-14.8-9.4l1-10.6l16.7,14.1L295.6,147.5z M281.9,137.6l13.3,8.5l2-4.1l-14.6-12.4L281.9,137.6z"/>
	</g>
</g>
<g>
	<g>
		<polygon fill="#FFFFFF" points="284.8,140.2 270.2,145.5 249.7,135.4 268,128.6 		"/>
	</g>
	<g>
		<path d="M270.2,146.1l-21.8-10.8l19.7-7.3l17.8,12.4L270.2,146.1z M250.9,135.4l19.3,9.6l13.5-4.9l-15.8-11L250.9,135.4z"/>
	</g>
</g>
<g>
	<g>
		<polygon fill="#FFFFFF" points="289.6,143 278.2,147.7 301.3,158.4 308.3,155.5 		"/>
	</g>
	<g>
		<path d="M301.3,159L277,147.7l12.6-5.2l19.8,13.1L301.3,159z M279.5,147.7l21.9,10.1l5.9-2.5l-17.8-11.8L279.5,147.7z"/>
	</g>
</g>
<g>
	<g>
		<polygon fill="#FFFFFF" points="304.3,142.4 311.9,152.4 300,143.5 		"/>
	</g>
	<g>
		<path d="M314.5,155l-15.6-11.7l5.5-1.4L314.5,155z M301.2,143.7l8.1,6.1l-5.2-6.8L301.2,143.7z"/>
	</g>
</g>
<g>
	<g>
		<polygon fill="#FFFFFF" points="300,143.5 299.5,148.6 311.4,156.9 311.9,152.4 		"/>
	</g>
	<g>
		<path d="M311.8,157.8l-12.8-9l0.6-6.2l12.8,9.6L311.8,157.8z M300,148.3l11,7.7l0.3-3.4l-10.9-8.2L300,148.3z"/>
	</g>
</g>
<g>
	<g>
		<line fill="#FFFFFF" x1="259" y1="134.6" x2="269.8" y2="140.4"/>
	</g>
	<g>
		<rect x="258.3" y="137" transform="matrix(0.8792 0.4765 -0.4765 0.8792 97.4442 -109.3737)" width="12.2" height="1"/>
	</g>
</g>
<g>
	<g>
		<line fill="#FFFFFF" x1="262.3" y1="132.5" x2="273" y2="138.4"/>
	</g>
	<g>
		<rect x="261.5" y="134.9" transform="matrix(0.8792 0.4765 -0.4765 0.8792 96.8715 -111.1631)" width="12.2" height="1"/>
	</g>
</g>
<g>
	<g>
		<line fill="#FFFFFF" x1="287.1" y1="147.5" x2="297.9" y2="153.3"/>
	</g>
	<g>
		<rect x="286.4" y="149.9" transform="matrix(0.8792 0.4764 -0.4764 0.8792 106.9968 -121.1901)" width="12.2" height="1"/>
	</g>
</g>
<g>
	<g>
		<polygon fill="#E0E0E0" points="290.2,126.1 297.9,141.8 303.1,140.9 293.3,125.2 		"/>
	</g>
	<g>
		<path d="M297.6,142.3l-8.1-16.5l4-1.2l10.4,16.7L297.6,142.3z M290.9,126.4l7.2,14.8l4.1-0.7l-9.2-14.8L290.9,126.4z"/>
	</g>
</g>
<g>
	<g>
		<polygon fill="#DEDDDD" points="252.8,143 251.6,148.5 276.4,157.1 276.8,153.3 		"/>
	</g>
	<g>
		<path d="M276.8,157.8l-25.8-8.9l1.5-6.6l24.9,10.7L276.8,157.8z M252.2,148.2l23.8,8.2l0.3-2.8l-23.1-10L252.2,148.2z"/>
	</g>
</g>
<g>
	<g>
		<polygon fill="#DEDDDD" points="281.9,155.1 281.6,157.9 294.2,160.3 		"/>
	</g>
	<g>
		<path d="M298.6,161.7l-17.6-3.3l0.4-4L298.6,161.7z M282.1,157.5l7.7,1.4l-7.5-3.2L282.1,157.5z"/>
	</g>
</g>
<g>
	<g>
		<path d="M47.3,153.6h-0.6v-1h0.6c3.5,0,7-0.1,10.4-0.2l0,1C54.3,153.6,50.8,153.6,47.3,153.6z M35.7,153.6h-11v-1h11V153.6z
			 M13.7,153.6h-11v-1h11V153.6z M68.8,152.7l-0.1-1c3.7-0.3,7.3-0.8,10.9-1.3l0.1,1C76.1,151.9,72.4,152.3,68.8,152.7z M90.6,149.5
			l-0.2-1c3.6-0.7,7.2-1.5,10.7-2.4l0.2,1C97.8,148,94.2,148.8,90.6,149.5z M111.9,144l-0.3-1c3.5-1.1,7-2.4,10.3-3.7l0.4,0.9
			C118.9,141.6,115.4,142.8,111.9,144z M132.4,135.9L132,135c3.3-1.6,6.6-3.2,9.8-5l0.5,0.9C139.1,132.7,135.8,134.3,132.4,135.9z
			 M151.7,125.2l-0.5-0.8c3.1-2,6.1-4.1,8.9-6.4l0.6,0.8C157.8,121,154.8,123.2,151.7,125.2z M169.1,111.7l-0.7-0.7
			c2.7-2.4,5.3-5,7.8-7.7l0.7,0.7C174.5,106.6,171.9,109.2,169.1,111.7z M237.5,104.3c-2.8-1.6-5.8-3.3-9.6-5.4l0.5-0.9
			c3.8,2,6.8,3.8,9.6,5.4L237.5,104.3z M184.3,95.6l-0.8-0.6c2.3-2.8,4.4-5.8,6.5-8.8l0.8,0.6C188.7,89.8,186.5,92.8,184.3,95.6z
			 M218.2,93.8c-2.9-1.5-6.3-3.4-9.7-5.2l0.5-0.9c3.4,1.9,6.8,3.7,9.7,5.2L218.2,93.8z M198.9,83.1c-3.4-2-6.4-3.9-9.4-5.8l0.5-0.8
			c2.9,1.9,6,3.8,9.3,5.8L198.9,83.1z M196.6,77.3l-0.9-0.5c1.8-3.3,3.5-6.6,4.8-9.8l0.9,0.4C200.1,70.7,198.4,74,196.6,77.3z
			 M180.5,71c-3-2.3-5.9-4.6-8.6-7l0.7-0.7c2.6,2.3,5.5,4.7,8.5,6.9L180.5,71z M205,57l-1-0.3c1-3.6,1.6-7.3,1.9-10.7l1,0.1
			C206.7,49.6,206,53.3,205,57z M164.1,56.3c-1.2-1.3-2.4-2.7-3.6-4c-1.3-1.5-2.5-3-3.5-4.5l0.8-0.6c1.1,1.4,2.2,2.9,3.5,4.4
			c1.1,1.3,2.3,2.7,3.6,4L164.1,56.3z M151.4,38.3c-1.6-3.7-2.5-7.3-2.7-10.8l1,0c0.2,3.3,1.1,6.8,2.6,10.4L151.4,38.3z M205.6,35.1
			c-0.5-3.6-1.5-7.1-2.9-10.4l0.9-0.4c1.5,3.4,2.5,7,3,10.7L205.6,35.1z M151.7,17l-0.9-0.4c1.6-3.2,4.1-6.1,7.3-8.4l0.6,0.8
			C155.7,11.2,153.2,14,151.7,17z M197.2,15.4c-2.3-2.9-5-5.4-8-7.3l0.5-0.8c3,1.9,5.8,4.5,8.2,7.5L197.2,15.4z M168.5,4.6l-0.2-1
			c3.7-0.9,7.5-1,11.1-0.4l-0.2,1C175.8,3.6,172.1,3.7,168.5,4.6z"/>
	</g>
</g>
</svg>
