<?xml version="1.0" encoding="utf-8"?>
<!-- Generator: Adobe Illustrator 21.0.0, SVG Export Plug-In . SVG Version: 6.00 Build 0)  -->
<svg version="1.1" xmlns="http://www.w3.org/2000/svg" xmlns:xlink="http://www.w3.org/1999/xlink" x="0px" y="0px"
	 viewBox="0 0 560 198" style="enable-background:new 0 0 560 198;" xml:space="preserve">
<style type="text/css">
	.st0{fill:#F7F7F7;}
	.st1{fill:#429F46;}
	.st2{fill:#FFFFFF;}
	.st3{fill:none;stroke:#6EBA75;stroke-miterlimit:10;}
	.st4{fill:none;stroke:#4DA454;stroke-miterlimit:10;}
	.st5{fill:#373737;}
	.st6{fill:none;stroke:#2C2C2C;stroke-miterlimit:10;}
	.st7{opacity:0.5;fill:#373737;stroke:#413E3E;stroke-miterlimit:10;}
	.st8{fill:#EAEAEA;}
	.st9{fill:none;stroke:#FFFFFF;stroke-linecap:round;stroke-linejoin:round;stroke-miterlimit:10;}
	.st10{fill:#FFFFFF;stroke:#000000;stroke-linejoin:round;stroke-miterlimit:10;}
	.st11{clip-path:url(#SVGID_2_);}
	.st12{clip-path:url(#SVGID_4_);}
	.st13{clip-path:url(#SVGID_8_);}
	.st14{clip-path:url(#SVGID_10_);}
	.st15{clip-path:url(#SVGID_14_);}
	.st16{clip-path:url(#SVGID_16_);}
	.st17{clip-path:url(#SVGID_20_);}
	.st18{clip-path:url(#SVGID_22_);}
	.st19{fill:#F1F1F1;}
	.st20{fill:#3E3E3E;}
	.st21{fill:none;stroke:#888888;stroke-linecap:round;stroke-linejoin:round;stroke-miterlimit:10;}
	.st22{clip-path:url(#SVGID_26_);}
	.st23{clip-path:url(#SVGID_28_);}
	.st24{clip-path:url(#SVGID_32_);}
	.st25{clip-path:url(#SVGID_34_);}
	.st26{clip-path:url(#SVGID_38_);}
	.st27{clip-path:url(#SVGID_40_);}
	.st28{clip-path:url(#SVGID_44_);}
	.st29{clip-path:url(#SVGID_46_);}
	.st30{clip-path:url(#SVGID_50_);}
	.st31{clip-path:url(#SVGID_52_);}
	.st32{clip-path:url(#SVGID_56_);}
	.st33{clip-path:url(#SVGID_58_);}
	.st34{clip-path:url(#SVGID_62_);}
	.st35{clip-path:url(#SVGID_64_);}
	.st36{clip-path:url(#SVGID_68_);}
	.st37{clip-path:url(#SVGID_70_);}
	.st38{clip-path:url(#SVGID_74_);}
	.st39{clip-path:url(#SVGID_76_);}
	.st40{clip-path:url(#SVGID_80_);}
	.st41{clip-path:url(#SVGID_82_);}
	.st42{clip-path:url(#SVGID_86_);}
	.st43{clip-path:url(#SVGID_88_);}
	.st44{clip-path:url(#SVGID_92_);}
	.st45{clip-path:url(#SVGID_94_);}
	.st46{fill:#C9C9C9;stroke:#000000;stroke-linejoin:round;stroke-miterlimit:10;}
	.st47{fill:#E6E6E6;stroke:#000000;stroke-linejoin:round;stroke-miterlimit:10;}
	.st48{stroke:#000000;stroke-linejoin:round;stroke-miterlimit:10;}
	.st49{fill:#B3B3B3;stroke:#000000;stroke-linejoin:round;stroke-miterlimit:10;}
	.st50{fill:#F7F7F7;stroke:#000000;stroke-miterlimit:10;}
	.st51{fill:#707070;stroke:#000000;stroke-linejoin:round;stroke-miterlimit:10;}
	.st52{fill:none;stroke:#000000;stroke-miterlimit:10;}
	.st53{fill:#FFFFFF;stroke:#000000;stroke-linecap:round;stroke-linejoin:round;stroke-miterlimit:10;}
	.st54{fill:none;stroke:#000000;stroke-linejoin:round;stroke-miterlimit:10;}
	.st55{fill:#4AAA5D;}
	.st56{fill:none;stroke:#48A95D;stroke-miterlimit:10;}
	.st57{fill:#43A047;}
	.st58{fill:none;stroke:#292B2A;stroke-width:3;stroke-linejoin:round;stroke-miterlimit:10;}
	.st59{fill:#373737;stroke:#000000;stroke-linejoin:round;stroke-miterlimit:10;}
	.st60{fill:#E64A19;stroke:#000000;stroke-linecap:round;stroke-linejoin:round;stroke-miterlimit:10;}
	.st61{fill:#FFFFFF;stroke:#000000;stroke-linecap:round;stroke-miterlimit:10;}
	.st62{fill:#DCEDC8;stroke:#000000;stroke-linecap:round;stroke-linejoin:round;stroke-miterlimit:10;}
	.st63{fill:#292B2A;}
	.st64{fill:#C9C9C9;}
	.st65{fill:none;stroke:#373737;stroke-miterlimit:10;}
	.st66{clip-path:url(#SVGID_98_);}
	.st67{fill:#2A2B2A;}
	.st68{fill:#E2E2E2;}
	.st69{fill:#C2C3C3;}
	.st70{fill:#B2B1B2;}
	.st71{fill:none;stroke:#2A2B2A;stroke-linejoin:round;stroke-miterlimit:10;}
	.st72{opacity:0.89;clip-path:url(#SVGID_102_);}
	.st73{clip-path:url(#SVGID_104_);fill:#2A2B2A;}
	.st74{clip-path:url(#SVGID_106_);fill:#2A2B2A;}
	.st75{fill:#41A148;}
	.st76{clip-path:url(#SVGID_108_);fill:#FFFFFF;}
	.st77{opacity:0.4;clip-path:url(#SVGID_108_);}
	.st78{clip-path:url(#SVGID_110_);fill:none;stroke:#2A2B2A;stroke-linejoin:round;stroke-miterlimit:10;}
	.st79{clip-path:url(#SVGID_108_);fill:#E2E2E2;}
	.st80{clip-path:url(#SVGID_108_);fill:none;stroke:#231F20;stroke-miterlimit:10;}
	.st81{clip-path:url(#SVGID_108_);fill:#DDDDDC;}
	.st82{clip-path:url(#SVGID_108_);fill:#E0E0E0;}
	.st83{clip-path:url(#SVGID_108_);fill:none;stroke:#231F20;stroke-miterlimit:10;stroke-dasharray:11,11;}
	.st84{clip-path:url(#SVGID_108_);fill:#41A148;}
	.st85{fill:none;}
	.st86{fill:#F7F7F7;stroke:#F7931E;stroke-miterlimit:10;}
	.st87{fill:none;stroke:#F7931E;stroke-miterlimit:10;}
	.st88{fill:#FFFFFF;stroke:#000000;stroke-miterlimit:10;}
	.st89{fill:none;stroke:#000000;stroke-width:2;stroke-linejoin:round;stroke-dasharray:1.0027,1.0027;}
	.st90{fill:none;stroke:#000000;stroke-width:2;stroke-linejoin:round;stroke-dasharray:1.001,1.001;}
	.st91{fill:none;stroke:#000000;stroke-linecap:round;stroke-linejoin:round;stroke-miterlimit:10;}
	.st92{fill:#E6E6E6;stroke:#000000;stroke-linecap:round;stroke-linejoin:round;stroke-miterlimit:10;}
	.st93{stroke:#000000;stroke-linecap:round;stroke-linejoin:round;stroke-miterlimit:10;}
	.st94{fill:#9E9E9E;}
	.st95{fill:url(#SVGID_111_);}
	.st96{fill:url(#SVGID_112_);}
	.st97{fill:url(#SVGID_113_);}
	.st98{fill:#E64A19;}
	.st99{fill:#DCEDC8;}
</style>
<g id="Layer_1">
</g>
<g id="main">
</g>
<g id="Layer_4">
</g>
<g id="grid">
</g>
<g id="notifications">
</g>
<g id="info">
	<g>
		<polygon class="st5" points="514.8,68.3 522.3,74.9 350.9,74.9 358.5,68.3 		"/>
		<path d="M522.3,75.4H350.9c-0.2,0-0.4-0.1-0.5-0.3c-0.1-0.2,0-0.4,0.1-0.6l7.6-6.6c0.1-0.1,0.2-0.1,0.3-0.1h156.3
			c0.1,0,0.2,0,0.3,0.1l7.5,6.6c0.2,0.1,0.2,0.4,0.1,0.6C522.6,75.3,522.5,75.4,522.3,75.4z M352.3,74.4h168.7l-6.3-5.6H358.7
			L352.3,74.4z"/>
	</g>
	<g>
		<polygon class="st5" points="514.8,123.7 522.3,130.4 350.9,130.4 358.5,123.7 		"/>
		<path d="M522.3,130.9H350.9c-0.2,0-0.4-0.1-0.5-0.3c-0.1-0.2,0-0.4,0.1-0.6l7.6-6.6c0.1-0.1,0.2-0.1,0.3-0.1h156.3
			c0.1,0,0.2,0,0.3,0.1l7.5,6.6c0.2,0.1,0.2,0.4,0.1,0.6C522.6,130.7,522.5,130.9,522.3,130.9z M352.3,129.9h168.7l-6.3-5.6H358.7
			L352.3,129.9z"/>
	</g>
	<g>
		<polygon class="st5" points="514.8,179.6 522.3,186.2 350.9,186.2 358.5,179.6 		"/>
		<path d="M522.3,186.7H350.9c-0.2,0-0.4-0.1-0.5-0.3c-0.1-0.2,0-0.4,0.1-0.6l7.6-6.6c0.1-0.1,0.2-0.1,0.3-0.1h156.3
			c0.1,0,0.2,0,0.3,0.1l7.5,6.6c0.2,0.1,0.2,0.4,0.1,0.6C522.6,186.6,522.5,186.7,522.3,186.7z M352.3,185.7h168.7l-6.3-5.6H358.7
			L352.3,185.7z"/>
	</g>
	<g>
		<rect x="358.5" y="12.9" class="st5" width="156.3" height="173.4"/>
		<path d="M514.8,186.7H358.5c-0.3,0-0.5-0.2-0.5-0.5V12.9c0-0.3,0.2-0.5,0.5-0.5h156.3c0.3,0,0.5,0.2,0.5,0.5v173.4
			C515.3,186.5,515.1,186.7,514.8,186.7z M359,185.7h155.3V13.4H359V185.7z"/>
	</g>
	<g>
		<rect x="350.9" y="131" class="st64" width="171.3" height="48.5"/>
		<path d="M522.3,180H350.9c-0.3,0-0.5-0.2-0.5-0.5V131c0-0.3,0.2-0.5,0.5-0.5h171.3c0.3,0,0.5,0.2,0.5,0.5v48.5
			C522.8,179.8,522.5,180,522.3,180z M351.4,179h170.3v-47.5H351.4V179z"/>
	</g>
	<g>
		<path d="M420.5,172.8h-62c-0.3,0-0.5-0.2-0.5-0.5s0.2-0.5,0.5-0.5h62c0.3,0,0.5,0.2,0.5,0.5S420.8,172.8,420.5,172.8z"/>
	</g>
	<g>
		<path d="M420.5,164.7h-62c-0.3,0-0.5-0.2-0.5-0.5s0.2-0.5,0.5-0.5h62c0.3,0,0.5,0.2,0.5,0.5S420.8,164.7,420.5,164.7z"/>
	</g>
	<g>
		<path d="M420.5,156.6h-62c-0.3,0-0.5-0.2-0.5-0.5s0.2-0.5,0.5-0.5h62c0.3,0,0.5,0.2,0.5,0.5S420.8,156.6,420.5,156.6z"/>
	</g>
	<g>
		<path d="M420.5,148.5h-62c-0.3,0-0.5-0.2-0.5-0.5s0.2-0.5,0.5-0.5h62c0.3,0,0.5,0.2,0.5,0.5S420.8,148.5,420.5,148.5z"/>
	</g>
	<g>
		<path d="M420.5,140.4h-62c-0.3,0-0.5-0.2-0.5-0.5s0.2-0.5,0.5-0.5h62c0.3,0,0.5,0.2,0.5,0.5S420.8,140.4,420.5,140.4z"/>
	</g>
	<g>
		
			<ellipse transform="matrix(0.8249 -0.5653 0.5653 0.8249 -6.0647 316.967)" class="st98" cx="508.6" cy="168.3" rx="4.1" ry="4.1"/>
		<path d="M508.6,172.9c-1.5,0-2.9-0.7-3.8-2l0,0c-0.7-1-1-2.2-0.7-3.4s0.9-2.3,1.9-3c2.1-1.4,5-0.9,6.4,1.2c1.4,2.1,0.9,5-1.2,6.4
			C510.4,172.6,509.5,172.9,508.6,172.9z M508.6,164.7c-0.7,0-1.4,0.2-2,0.6c-1.6,1.1-2.1,3.4-0.9,5l0,0c1.1,1.6,3.4,2.1,5,0.9
			c1.6-1.1,2.1-3.4,0.9-5C510.8,165.2,509.7,164.7,508.6,164.7z"/>
	</g>
	<g>
		
			<ellipse transform="matrix(0.8249 -0.5653 0.5653 0.8249 -8.9201 307.7498)" class="st98" cx="492.3" cy="168.3" rx="4.1" ry="4.1"/>
		<path d="M492.3,172.9c-0.3,0-0.6,0-0.9-0.1c-1.2-0.2-2.3-0.9-3-1.9c-1.4-2.1-0.9-5,1.2-6.4c1-0.7,2.2-1,3.4-0.7
			c1.2,0.2,2.3,0.9,3,1.9c1.4,2.1,0.9,5-1.2,6.4C494.1,172.6,493.2,172.9,492.3,172.9z M492.2,164.7c-0.7,0-1.4,0.2-2,0.6
			c-1.6,1.1-2.1,3.4-0.9,5l0,0c0.5,0.8,1.4,1.3,2.3,1.5c0.9,0.2,1.9,0,2.7-0.6c1.6-1.1,2.1-3.4,0.9-5c-0.5-0.8-1.4-1.3-2.3-1.5
			C492.7,164.7,492.5,164.7,492.2,164.7z"/>
	</g>
	<g>
		
			<ellipse transform="matrix(0.8249 -0.5653 0.5653 0.8249 -11.7754 298.5327)" class="st98" cx="476" cy="168.3" rx="4.1" ry="4.1"/>
		<path d="M476,172.9c-1.5,0-2.9-0.7-3.8-2l0,0c-1.4-2.1-0.9-5,1.2-6.4c2.1-1.4,5-0.9,6.4,1.2c0.7,1,1,2.2,0.7,3.4s-0.9,2.3-1.9,3
			C477.8,172.6,476.9,172.9,476,172.9z M475.9,164.7c-0.7,0-1.4,0.2-2,0.6c-1.6,1.1-2.1,3.4-0.9,5l0,0c1.1,1.6,3.4,2.1,5,0.9
			c0.8-0.5,1.3-1.4,1.5-2.3c0.2-0.9,0-1.9-0.6-2.7C478.2,165.2,477.1,164.7,475.9,164.7z"/>
	</g>
	<g>
		
			<ellipse transform="matrix(0.8249 -0.5653 0.5653 0.8249 -14.6308 289.3155)" class="st98" cx="459.6" cy="168.3" rx="4.1" ry="4.1"/>
		<path d="M459.7,172.9c-0.3,0-0.6,0-0.9-0.1c-1.2-0.2-2.3-0.9-3-1.9l0,0c-1.4-2.1-0.9-5,1.2-6.4c1-0.7,2.2-1,3.4-0.7
			c1.2,0.2,2.3,0.9,3,1.9c1.4,2.1,0.9,5-1.2,6.4C461.5,172.6,460.6,172.9,459.7,172.9z M459.6,164.7c-0.7,0-1.4,0.2-2,0.6
			c-1.6,1.1-2.1,3.4-0.9,5l0,0c0.5,0.8,1.4,1.3,2.3,1.5c0.9,0.2,1.9,0,2.7-0.6c1.6-1.1,2.1-3.4,0.9-5c-0.5-0.8-1.4-1.3-2.3-1.5
			C460.1,164.7,459.9,164.7,459.6,164.7z"/>
	</g>
	<g>
		
			<ellipse transform="matrix(0.8249 -0.5653 0.5653 0.8249 -17.4861 280.0983)" class="st98" cx="443.3" cy="168.3" rx="4.1" ry="4.1"/>
		<path d="M443.3,172.9c-1.5,0-2.9-0.7-3.8-2c-1.4-2.1-0.9-5,1.2-6.4c2.1-1.4,5-0.9,6.4,1.2c0.7,1,1,2.2,0.7,3.4s-0.9,2.3-1.9,3
			C445.2,172.6,444.2,172.9,443.3,172.9z M443.3,164.7c-0.7,0-1.4,0.2-2,0.6c-1.6,1.1-2.1,3.4-0.9,5l0,0c1.1,1.6,3.4,2.1,5,0.9
			c0.8-0.5,1.3-1.4,1.5-2.3c0.2-0.9,0-1.9-0.6-2.7C445.6,165.2,444.5,164.7,443.3,164.7z"/>
	</g>
	<g>
		<rect x="350.9" y="75.3" class="st64" width="171.3" height="48.5"/>
		<path d="M522.3,124.2H350.9c-0.3,0-0.5-0.2-0.5-0.5V75.3c0-0.3,0.2-0.5,0.5-0.5h171.3c0.3,0,0.5,0.2,0.5,0.5v48.5
			C522.8,124,522.5,124.2,522.3,124.2z M351.4,123.2h170.3V75.8H351.4V123.2z"/>
	</g>
	<g>
		
			<ellipse transform="matrix(0.8249 -0.5653 0.5653 0.8249 25.468 307.1986)" class="st99" cx="508.6" cy="112.5" rx="4.1" ry="4.1"/>
		<path d="M508.6,117.1c-1.5,0-2.9-0.7-3.8-2l0,0c-0.7-1-1-2.2-0.7-3.4s0.9-2.3,1.9-3c2.1-1.4,5-0.9,6.4,1.2c0.7,1,1,2.2,0.7,3.4
			c-0.2,1.2-0.9,2.3-1.9,3C510.4,116.8,509.5,117.1,508.6,117.1z M508.6,108.9c-0.7,0-1.4,0.2-2,0.6c-0.8,0.5-1.3,1.4-1.5,2.3
			c-0.2,0.9,0,1.9,0.6,2.7l0,0c1.1,1.6,3.4,2.1,5,0.9c0.8-0.5,1.3-1.4,1.5-2.3c0.2-0.9,0-1.9-0.6-2.7
			C510.8,109.4,509.7,108.9,508.6,108.9z"/>
	</g>
	<g>
		
			<ellipse transform="matrix(0.8249 -0.5653 0.5653 0.8249 22.6127 297.9814)" class="st99" cx="492.3" cy="112.5" rx="4.1" ry="4.1"/>
		<path d="M492.3,117.1c-0.3,0-0.6,0-0.9-0.1c-1.2-0.2-2.3-0.9-3-1.9s-1-2.2-0.7-3.4c0.2-1.2,0.9-2.3,1.9-3c1-0.7,2.2-1,3.4-0.7
			c1.2,0.2,2.3,0.9,3,1.9s1,2.2,0.7,3.4c-0.2,1.2-0.9,2.3-1.9,3C494.1,116.8,493.2,117.1,492.3,117.1z M492.2,108.9
			c-0.7,0-1.4,0.2-2,0.6c-0.8,0.5-1.3,1.4-1.5,2.3c-0.2,0.9,0,1.9,0.6,2.7l0,0c0.5,0.8,1.4,1.3,2.3,1.5c0.9,0.2,1.9,0,2.7-0.6
			c0.8-0.5,1.3-1.4,1.5-2.3c0.2-0.9,0-1.9-0.6-2.7c-0.5-0.8-1.4-1.3-2.3-1.5C492.7,108.9,492.5,108.9,492.2,108.9z"/>
	</g>
	<g>
		
			<ellipse transform="matrix(0.8249 -0.5653 0.5653 0.8249 19.7574 288.7643)" class="st99" cx="476" cy="112.5" rx="4.1" ry="4.1"/>
		<path d="M476,117.1c-1.5,0-2.9-0.7-3.8-2l0,0c-0.7-1-1-2.2-0.7-3.4c0.2-1.2,0.9-2.3,1.9-3c2.1-1.4,5-0.9,6.4,1.2
			c0.7,1,1,2.2,0.7,3.4s-0.9,2.3-1.9,3C477.8,116.8,476.9,117.1,476,117.1z M475.9,108.9c-0.7,0-1.4,0.2-2,0.6
			c-0.8,0.5-1.3,1.4-1.5,2.3c-0.2,0.9,0,1.9,0.6,2.7l0,0c1.1,1.6,3.4,2.1,5,0.9c0.8-0.5,1.3-1.4,1.5-2.3c0.2-0.9,0-1.9-0.6-2.7
			C478.2,109.4,477.1,108.9,475.9,108.9z"/>
	</g>
	<g>
		
			<ellipse transform="matrix(0.8249 -0.5653 0.5653 0.8249 16.902 279.5471)" class="st98" cx="459.6" cy="112.5" rx="4.1" ry="4.1"/>
		<path d="M459.7,117.1c-0.3,0-0.6,0-0.9-0.1c-1.2-0.2-2.3-0.9-3-1.9l0,0c-0.7-1-1-2.2-0.7-3.4c0.2-1.2,0.9-2.3,1.9-3
			c1-0.7,2.2-1,3.4-0.7c1.2,0.2,2.3,0.9,3,1.9s1,2.2,0.7,3.4c-0.2,1.2-0.9,2.3-1.9,3C461.5,116.8,460.6,117.1,459.7,117.1z
			 M459.6,108.9c-0.7,0-1.4,0.2-2,0.6c-0.8,0.5-1.3,1.4-1.5,2.3c-0.2,0.9,0,1.9,0.6,2.7l0,0c0.5,0.8,1.4,1.3,2.3,1.5
			c0.9,0.2,1.9,0,2.7-0.6c0.8-0.5,1.3-1.4,1.5-2.3c0.2-0.9,0-1.9-0.6-2.7c-0.5-0.8-1.4-1.3-2.3-1.5
			C460.1,108.9,459.9,108.9,459.6,108.9z"/>
	</g>
	<g>
		
			<ellipse transform="matrix(0.8249 -0.5653 0.5653 0.8249 14.0467 270.3299)" class="st98" cx="443.3" cy="112.5" rx="4.1" ry="4.1"/>
		<path d="M443.3,117.1c-1.5,0-2.9-0.7-3.8-2c-0.7-1-1-2.2-0.7-3.4c0.2-1.2,0.9-2.3,1.9-3c2.1-1.4,5-0.9,6.4,1.2
			c0.7,1,1,2.2,0.7,3.4s-0.9,2.3-1.9,3C445.2,116.8,444.2,117.1,443.3,117.1z M443.3,108.9c-0.7,0-1.4,0.2-2,0.6
			c-0.8,0.5-1.3,1.4-1.5,2.3c-0.2,0.9,0,1.9,0.6,2.7l0,0c1.1,1.6,3.4,2.1,5,0.9c0.8-0.5,1.3-1.4,1.5-2.3c0.2-0.9,0-1.9-0.6-2.7
			C445.6,109.4,444.5,108.9,443.3,108.9z"/>
	</g>
	<g>
		<polygon class="st5" points="516.4,11.2 523.4,18.3 352.5,7.3 360.4,1.2 		"/>
		<path d="M523.4,18.8C523.4,18.8,523.4,18.8,523.4,18.8l-171-11c-0.2,0-0.4-0.2-0.4-0.4c-0.1-0.2,0-0.4,0.2-0.5l8-6.1
			c0.1-0.1,0.2-0.1,0.3-0.1l156,10c0.1,0,0.2,0.1,0.3,0.1l7,7.1c0.1,0.1,0.2,0.4,0.1,0.6C523.8,18.7,523.6,18.8,523.4,18.8z
			 M353.8,6.9l168.3,10.8l-6-6l-155.6-10L353.8,6.9z"/>
	</g>
	<g>
		
			<rect x="350.7" y="12.7" transform="matrix(0.9979 6.417986e-02 -6.417986e-02 0.9979 3.2727 -27.9307)" class="st64" width="171.3" height="48.5"/>
		<path d="M520.3,67.2C520.3,67.2,520.3,67.2,520.3,67.2l-171-11c-0.1,0-0.3-0.1-0.3-0.2s-0.1-0.2-0.1-0.4L352,7.3
			c0-0.3,0.2-0.5,0.5-0.5l171,11c0.3,0,0.5,0.3,0.5,0.5l-3.1,48.4c0,0.1-0.1,0.3-0.2,0.3C520.5,67.1,520.4,67.2,520.3,67.2z
			 M349.9,55.2l170,10.9l3-47.4l-170-10.9L349.9,55.2z"/>
	</g>
	<g>
		
			<rect x="436.8" y="23.7" transform="matrix(0.9979 6.417986e-02 -6.417986e-02 0.9979 3.0485 -30.4747)" class="st2" width="78.2" height="17"/>
		<path d="M514.3,43.7C514.3,43.7,514.3,43.7,514.3,43.7l-78.1-5c-0.3,0-0.5-0.3-0.5-0.5l1.1-16.9c0-0.1,0.1-0.3,0.2-0.3
			c0.1-0.1,0.2-0.1,0.4-0.1l78,5c0.1,0,0.3,0.1,0.3,0.2s0.1,0.2,0.1,0.4l-1.1,16.9C514.8,43.5,514.6,43.7,514.3,43.7z M436.8,37.7
			l77,5l1-15.9l-77-5L436.8,37.7z"/>
	</g>
	<g>
		
			<ellipse transform="matrix(0.8595 -0.5112 0.5112 0.8595 43.4203 267.0388)" class="st98" cx="507.4" cy="54.6" rx="4.1" ry="4.1"/>
		<path d="M507.4,59.2c-1.6,0-3.1-0.8-4-2.2c-1.3-2.2-0.6-5,1.6-6.3s5-0.6,6.3,1.6c1.3,2.2,0.6,5-1.6,6.3
			C509,58.9,508.2,59.2,507.4,59.2z M507.4,51c-0.6,0-1.3,0.2-1.8,0.5c-1.7,1-2.3,3.2-1.3,4.9c1,1.7,3.2,2.3,4.9,1.3
			c1.7-1,2.3-3.2,1.3-4.9C509.8,51.6,508.6,51,507.4,51z"/>
	</g>
	<g>
		
			<ellipse transform="matrix(0.8595 -0.5112 0.5112 0.8595 41.6684 258.5739)" class="st98" cx="491.1" cy="53.5" rx="4.1" ry="4.1"/>
		<path d="M491.1,58.1c-1.6,0-3.1-0.8-4-2.2c-1.3-2.2-0.6-5,1.6-6.3c2.2-1.3,5-0.6,6.3,1.6c0.6,1.1,0.8,2.3,0.5,3.5
			s-1.1,2.2-2.1,2.8C492.7,57.9,491.9,58.1,491.1,58.1z M491.1,49.9c-0.6,0-1.3,0.2-1.8,0.5c-1.7,1-2.3,3.2-1.3,4.9
			c1,1.7,3.2,2.3,4.9,1.3c1.7-1,2.3-3.2,1.3-4.9C493.5,50.5,492.3,49.9,491.1,49.9z"/>
	</g>
	<g>
		
			<ellipse transform="matrix(0.8595 -0.5112 0.5112 0.8595 39.9166 250.109)" class="st98" cx="474.8" cy="52.5" rx="4.1" ry="4.1"/>
		<path d="M474.8,57.1c-1.6,0-3.1-0.8-4-2.2c-1.3-2.2-0.6-5,1.6-6.3c2.2-1.3,5-0.6,6.3,1.6c1.3,2.2,0.6,5-1.6,6.3
			C476.4,56.9,475.6,57.1,474.8,57.1z M474.8,48.9c-0.6,0-1.3,0.2-1.8,0.5c-1.7,1-2.3,3.2-1.3,4.9c1,1.7,3.2,2.3,4.9,1.3
			c1.7-1,2.3-3.2,1.3-4.9C477.2,49.5,476,48.9,474.8,48.9z"/>
	</g>
	<g>
		
			<ellipse transform="matrix(0.8595 -0.5112 0.5112 0.8595 38.1647 241.6441)" class="st98" cx="458.6" cy="51.4" rx="4.1" ry="4.1"/>
		<path d="M458.6,56c-1.6,0-3.1-0.8-4-2.2c-1.3-2.2-0.6-5,1.6-6.3c2.2-1.3,5-0.6,6.3,1.6s0.6,5-1.6,6.3
			C460.2,55.8,459.4,56,458.6,56z M458.5,47.8c-0.6,0-1.3,0.2-1.8,0.5c-1.7,1-2.3,3.2-1.3,4.9c1,1.7,3.2,2.3,4.9,1.3
			c1.7-1,2.3-3.2,1.3-4.9C461,48.4,459.8,47.8,458.5,47.8z"/>
	</g>
	<g>
		
			<ellipse transform="matrix(0.8595 -0.5112 0.5112 0.8595 36.4129 233.1792)" class="st98" cx="442.3" cy="50.4" rx="4.1" ry="4.1"/>
		<path d="M442.3,55c-1.6,0-3.1-0.8-4-2.2c-1.3-2.2-0.6-5,1.6-6.3c2.2-1.3,5-0.6,6.3,1.6c1.3,2.2,0.6,5-1.6,6.3
			C443.9,54.8,443.1,55,442.3,55z M442.3,46.8c-0.6,0-1.3,0.2-1.8,0.5c-1.7,1-2.3,3.2-1.3,4.9c1,1.7,3.2,2.3,4.9,1.3
			c1.7-1,2.3-3.2,1.3-4.9C444.7,47.4,443.5,46.8,442.3,46.8z"/>
	</g>
	<g>
		<path d="M557,196.8H3c-0.3,0-0.5-0.2-0.5-0.5s0.2-0.5,0.5-0.5h554c0.3,0,0.5,0.2,0.5,0.5S557.3,196.8,557,196.8z"/>
	</g>
	<g>
		<polygon class="st5" points="326,65 333.6,71.7 159.6,71.7 167.2,65 		"/>
		<path d="M333.6,72.2h-174c-0.2,0-0.4-0.1-0.5-0.3c-0.1-0.2,0-0.4,0.1-0.6l7.7-6.7c0.1-0.1,0.2-0.1,0.3-0.1H326
			c0.1,0,0.2,0,0.3,0.1l7.6,6.7c0.2,0.1,0.2,0.4,0.1,0.6C334,72.1,333.8,72.2,333.6,72.2z M160.9,71.2h171.4l-6.4-5.7H167.4
			L160.9,71.2z"/>
	</g>
	<g>
		<polygon class="st5" points="326,121.3 333.6,128 159.6,128 167.2,121.3 		"/>
		<path d="M333.6,128.5h-174c-0.2,0-0.4-0.1-0.5-0.3c-0.1-0.2,0-0.4,0.1-0.6l7.7-6.7c0.1-0.1,0.2-0.1,0.3-0.1H326
			c0.1,0,0.2,0,0.3,0.1l7.6,6.7c0.2,0.1,0.2,0.4,0.1,0.6C334,128.4,333.8,128.5,333.6,128.5z M160.9,127.5h171.4l-6.4-5.7H167.4
			L160.9,127.5z"/>
	</g>
	<g>
		<polygon class="st5" points="326,178.1 333.6,184.8 159.6,184.8 167.2,178.1 		"/>
		<path d="M333.6,185.3h-174c-0.2,0-0.4-0.1-0.5-0.3c-0.1-0.2,0-0.4,0.1-0.6l7.7-6.7c0.1-0.1,0.2-0.1,0.3-0.1H326
			c0.1,0,0.2,0,0.3,0.1l7.6,6.7c0.2,0.1,0.2,0.4,0.1,0.6C334,185.2,333.8,185.3,333.6,185.3z M160.9,184.3h171.4l-6.4-5.7H167.4
			L160.9,184.3z"/>
	</g>
	<g>
		<rect x="167.2" y="8.7" class="st5" width="158.8" height="176.1"/>
		<path d="M326,185.3H167.2c-0.3,0-0.5-0.2-0.5-0.5V8.7c0-0.3,0.2-0.5,0.5-0.5H326c0.3,0,0.5,0.2,0.5,0.5v176.1
			C326.5,185.1,326.3,185.3,326,185.3z M167.7,184.3h157.8V9.2H167.7V184.3z"/>
	</g>
	<g>
		<rect x="159.6" y="128.7" class="st64" width="174" height="49.3"/>
		<path d="M333.6,178.5h-174c-0.3,0-0.5-0.2-0.5-0.5v-49.3c0-0.3,0.2-0.5,0.5-0.5h174c0.3,0,0.5,0.2,0.5,0.5V178
			C334.1,178.3,333.9,178.5,333.6,178.5z M160.1,177.5h173v-48.3h-173V177.5z"/>
	</g>
	<g>
		<g>
			<path d="M230.2,170.3h-63c-0.3,0-0.5-0.2-0.5-0.5s0.2-0.5,0.5-0.5h63c0.3,0,0.5,0.2,0.5,0.5S230.5,170.3,230.2,170.3z"/>
		</g>
		<g>
			<path d="M230.2,162.1h-63c-0.3,0-0.5-0.2-0.5-0.5s0.2-0.5,0.5-0.5h63c0.3,0,0.5,0.2,0.5,0.5S230.5,162.1,230.2,162.1z"/>
		</g>
		<g>
			<path d="M230.2,153.9h-63c-0.3,0-0.5-0.2-0.5-0.5s0.2-0.5,0.5-0.5h63c0.3,0,0.5,0.2,0.5,0.5S230.5,153.9,230.2,153.9z"/>
		</g>
		<g>
			<path d="M230.2,145.7h-63c-0.3,0-0.5-0.2-0.5-0.5s0.2-0.5,0.5-0.5h63c0.3,0,0.5,0.2,0.5,0.5S230.5,145.7,230.2,145.7z"/>
		</g>
		<g>
			<path d="M230.2,137.5h-63c-0.3,0-0.5-0.2-0.5-0.5s0.2-0.5,0.5-0.5h63c0.3,0,0.5,0.2,0.5,0.5S230.5,137.5,230.2,137.5z"/>
		</g>
	</g>
	<g>
		
			<ellipse transform="matrix(0.8249 -0.5653 0.5653 0.8249 -38.1779 209.8972)" class="st98" cx="319.7" cy="166.6" rx="4.2" ry="4.2"/>
		<path d="M319.7,171.2c-0.3,0-0.6,0-0.9-0.1c-1.2-0.2-2.3-0.9-3-1.9l0,0c-0.7-1-1-2.3-0.7-3.5c0.2-1.2,0.9-2.3,1.9-3
			c1-0.7,2.3-1,3.5-0.7c1.2,0.2,2.3,0.9,3,1.9c0.7,1,1,2.3,0.7,3.5c-0.2,1.2-0.9,2.3-1.9,3C321.5,171,320.6,171.2,319.7,171.2z
			 M319.7,162.9c-0.7,0-1.4,0.2-2.1,0.6c-0.8,0.6-1.4,1.4-1.5,2.4c-0.2,1,0,1.9,0.6,2.7l0,0c0.6,0.8,1.4,1.4,2.4,1.5
			c1,0.2,1.9,0,2.7-0.6c1.7-1.1,2.1-3.4,1-5.1c-0.6-0.8-1.4-1.4-2.4-1.5C320.1,162.9,319.9,162.9,319.7,162.9z"/>
	</g>
	<g>
		
			<ellipse transform="matrix(0.8249 -0.5653 0.5653 0.8249 -41.0787 200.5332)" class="st98" cx="303.1" cy="166.6" rx="4.2" ry="4.2"/>
		<path d="M303.1,171.2c-0.3,0-0.6,0-0.9-0.1c-1.2-0.2-2.3-0.9-3-1.9c-0.7-1-1-2.3-0.7-3.5c0.2-1.2,0.9-2.3,1.9-3
			c1-0.7,2.3-1,3.5-0.7c1.2,0.2,2.3,0.9,3,1.9c0.7,1,1,2.3,0.7,3.5c-0.2,1.2-0.9,2.3-1.9,3C305,171,304.1,171.2,303.1,171.2z
			 M303.1,162.9c-0.7,0-1.4,0.2-2.1,0.6c-0.8,0.6-1.4,1.4-1.5,2.4c-0.2,1,0,1.9,0.6,2.7l0,0c0.6,0.8,1.4,1.4,2.4,1.5
			c1,0.2,1.9,0,2.7-0.6s1.4-1.4,1.5-2.4c0.2-1,0-1.9-0.6-2.7c-0.6-0.8-1.4-1.4-2.4-1.5C303.6,162.9,303.3,162.9,303.1,162.9z"/>
	</g>
	<g>
		
			<ellipse transform="matrix(0.8249 -0.5653 0.5653 0.8249 -43.9795 191.1692)" class="st98" cx="286.6" cy="166.6" rx="4.2" ry="4.2"/>
		<path d="M286.6,171.2c-1.5,0-3-0.7-3.9-2c-0.7-1-1-2.3-0.7-3.5c0.2-1.2,0.9-2.3,1.9-3c2.1-1.5,5-0.9,6.5,1.2c0.7,1,1,2.3,0.7,3.5
			c-0.2,1.2-0.9,2.3-1.9,3C288.4,171,287.5,171.2,286.6,171.2z M286.6,162.9c-0.7,0-1.4,0.2-2.1,0.6c-1.7,1.1-2.1,3.4-1,5.1l0,0
			c1.1,1.7,3.4,2.1,5.1,1c0.8-0.6,1.4-1.4,1.5-2.4c0.2-1,0-1.9-0.6-2.7C288.9,163.5,287.7,162.9,286.6,162.9z"/>
	</g>
	<g>
		
			<ellipse transform="matrix(0.8249 -0.5653 0.5653 0.8249 -46.8803 181.8052)" class="st98" cx="270" cy="166.6" rx="4.2" ry="4.2"/>
		<path d="M270,171.2c-1.5,0-3-0.7-3.9-2l0,0c-1.5-2.1-0.9-5,1.2-6.5c1-0.7,2.3-1,3.5-0.7c1.2,0.2,2.3,0.9,3,1.9
			c0.7,1,1,2.3,0.7,3.5c-0.2,1.2-0.9,2.3-1.9,3C271.8,171,270.9,171.2,270,171.2z M267,168.6c1.1,1.7,3.4,2.1,5.1,1
			c1.7-1.1,2.1-3.4,1-5.1c-0.6-0.8-1.4-1.4-2.4-1.5c-1-0.2-1.9,0-2.7,0.6C266.3,164.7,265.8,167,267,168.6L267,168.6z"/>
	</g>
	<g>
		
			<ellipse transform="matrix(0.8249 -0.5653 0.5653 0.8249 -49.7811 172.4412)" class="st98" cx="253.4" cy="166.6" rx="4.2" ry="4.2"/>
		<path d="M253.4,171.2c-0.3,0-0.6,0-0.9-0.1c-1.2-0.2-2.3-0.9-3-1.9c-0.7-1-1-2.3-0.7-3.5c0.2-1.2,0.9-2.3,1.9-3
			c1-0.7,2.3-1,3.5-0.7c1.2,0.2,2.3,0.9,3,1.9c0.7,1,1,2.3,0.7,3.5c-0.2,1.2-0.9,2.3-1.9,3C255.3,171,254.4,171.2,253.4,171.2z
			 M253.4,162.9c-0.7,0-1.4,0.2-2.1,0.6c-0.8,0.6-1.4,1.4-1.5,2.4c-0.2,1,0,1.9,0.6,2.7l0,0c0.6,0.8,1.4,1.4,2.4,1.5
			c1,0.2,1.9,0,2.7-0.6c0.8-0.6,1.4-1.4,1.5-2.4c0.2-1,0-1.9-0.6-2.7c-0.6-0.8-1.4-1.4-2.4-1.5C253.9,162.9,253.7,162.9,253.4,162.9
			z"/>
	</g>
	<g>
		<rect x="159.6" y="72.1" class="st64" width="174" height="49.3"/>
		<path d="M333.6,121.8h-174c-0.3,0-0.5-0.2-0.5-0.5V72.1c0-0.3,0.2-0.5,0.5-0.5h174c0.3,0,0.5,0.2,0.5,0.5v49.3
			C334.1,121.6,333.9,121.8,333.6,121.8z M160.1,120.8h173V72.6h-173V120.8z"/>
	</g>
	<g>
		<g>
			<path d="M230.2,113.7h-63c-0.3,0-0.5-0.2-0.5-0.5s0.2-0.5,0.5-0.5h63c0.3,0,0.5,0.2,0.5,0.5S230.5,113.7,230.2,113.7z"/>
		</g>
		<g>
			<path d="M230.2,105.5h-63c-0.3,0-0.5-0.2-0.5-0.5s0.2-0.5,0.5-0.5h63c0.3,0,0.5,0.2,0.5,0.5S230.5,105.5,230.2,105.5z"/>
		</g>
		<g>
			<path d="M230.2,97.3h-63c-0.3,0-0.5-0.2-0.5-0.5s0.2-0.5,0.5-0.5h63c0.3,0,0.5,0.2,0.5,0.5S230.5,97.3,230.2,97.3z"/>
		</g>
		<g>
			<path d="M230.2,89h-63c-0.3,0-0.5-0.2-0.5-0.5s0.2-0.5,0.5-0.5h63c0.3,0,0.5,0.2,0.5,0.5S230.5,89,230.2,89z"/>
		</g>
		<g>
			<path d="M230.2,80.8h-63c-0.3,0-0.5-0.2-0.5-0.5s0.2-0.5,0.5-0.5h63c0.3,0,0.5,0.2,0.5,0.5S230.5,80.8,230.2,80.8z"/>
		</g>
	</g>
	<g>
		<g>
			<path d="M421.5,116.3h-63c-0.3,0-0.5-0.2-0.5-0.5s0.2-0.5,0.5-0.5h63c0.3,0,0.5,0.2,0.5,0.5S421.7,116.3,421.5,116.3z"/>
		</g>
		<g>
			<path d="M421.5,108h-63c-0.3,0-0.5-0.2-0.5-0.5s0.2-0.5,0.5-0.5h63c0.3,0,0.5,0.2,0.5,0.5S421.7,108,421.5,108z"/>
		</g>
		<g>
			<path d="M421.5,99.8h-63c-0.3,0-0.5-0.2-0.5-0.5s0.2-0.5,0.5-0.5h63c0.3,0,0.5,0.2,0.5,0.5S421.7,99.8,421.5,99.8z"/>
		</g>
		<g>
			<path d="M421.5,91.6h-63c-0.3,0-0.5-0.2-0.5-0.5s0.2-0.5,0.5-0.5h63c0.3,0,0.5,0.2,0.5,0.5S421.7,91.6,421.5,91.6z"/>
		</g>
		<g>
			<path d="M421.5,83.4h-63c-0.3,0-0.5-0.2-0.5-0.5s0.2-0.5,0.5-0.5h63c0.3,0,0.5,0.2,0.5,0.5S421.7,83.4,421.5,83.4z"/>
		</g>
	</g>
	<g>
		
			<ellipse transform="matrix(0.8249 -0.5653 0.5653 0.8249 -6.1428 199.9732)" class="st99" cx="319.7" cy="109.9" rx="4.2" ry="4.2"/>
		<path d="M319.7,114.6c-0.3,0-0.6,0-0.9-0.1c-1.2-0.2-2.3-0.9-3-1.9l0,0c-0.7-1-1-2.3-0.7-3.5c0.2-1.2,0.9-2.3,1.9-3s2.3-1,3.5-0.7
			c1.2,0.2,2.3,0.9,3,1.9c0.7,1,1,2.3,0.7,3.5c-0.2,1.2-0.9,2.3-1.9,3C321.5,114.3,320.6,114.6,319.7,114.6z M319.7,106.2
			c-0.7,0-1.4,0.2-2.1,0.6c-0.8,0.6-1.4,1.4-1.5,2.4c-0.2,1,0,1.9,0.6,2.7l0,0c0.6,0.8,1.4,1.4,2.4,1.5c1,0.2,1.9,0,2.7-0.6
			c1.7-1.1,2.1-3.4,1-5.1c-0.6-0.8-1.4-1.4-2.4-1.5C320.1,106.3,319.9,106.2,319.7,106.2z"/>
	</g>
	<g>
		
			<ellipse transform="matrix(0.8249 -0.5653 0.5653 0.8249 -9.0436 190.6092)" class="st99" cx="303.1" cy="109.9" rx="4.2" ry="4.2"/>
		<path d="M303.1,114.6c-0.3,0-0.6,0-0.9-0.1c-1.2-0.2-2.3-0.9-3-1.9c-0.7-1-1-2.3-0.7-3.5c0.2-1.2,0.9-2.3,1.9-3
			c1-0.7,2.3-1,3.5-0.7c1.2,0.2,2.3,0.9,3,1.9c0.7,1,1,2.3,0.7,3.5c-0.2,1.2-0.9,2.3-1.9,3C305,114.3,304.1,114.6,303.1,114.6z
			 M303.1,106.2c-0.7,0-1.4,0.2-2.1,0.6c-0.8,0.6-1.4,1.4-1.5,2.4c-0.2,1,0,1.9,0.6,2.7l0,0c0.6,0.8,1.4,1.4,2.4,1.5
			c1,0.2,1.9,0,2.7-0.6s1.4-1.4,1.5-2.4c0.2-1,0-1.9-0.6-2.7c-0.6-0.8-1.4-1.4-2.4-1.5C303.6,106.3,303.3,106.2,303.1,106.2z"/>
	</g>
	<g>
		
			<ellipse transform="matrix(0.8249 -0.5653 0.5653 0.8249 -11.9444 181.2452)" class="st99" cx="286.6" cy="109.9" rx="4.2" ry="4.2"/>
		<path d="M286.6,114.6c-1.5,0-3-0.7-3.9-2c-0.7-1-1-2.3-0.7-3.5c0.2-1.2,0.9-2.3,1.9-3c2.1-1.5,5-0.9,6.5,1.2c0.7,1,1,2.3,0.7,3.5
			c-0.2,1.2-0.9,2.3-1.9,3C288.4,114.3,287.5,114.6,286.6,114.6z M286.6,106.2c-0.7,0-1.4,0.2-2.1,0.6c-1.7,1.1-2.1,3.4-1,5.1l0,0
			c1.1,1.7,3.4,2.1,5.1,1c0.8-0.6,1.4-1.4,1.5-2.4c0.2-1,0-1.9-0.6-2.7C288.9,106.8,287.7,106.2,286.6,106.2z"/>
	</g>
	<g>
		
			<ellipse transform="matrix(0.8249 -0.5653 0.5653 0.8249 -14.8452 171.8812)" class="st98" cx="270" cy="109.9" rx="4.2" ry="4.2"/>
		<path d="M270,114.6c-1.5,0-3-0.7-3.9-2l0,0c-1.5-2.1-0.9-5,1.2-6.5c1-0.7,2.3-1,3.5-0.7c1.2,0.2,2.3,0.9,3,1.9
			c0.7,1,1,2.3,0.7,3.5c-0.2,1.2-0.9,2.3-1.9,3C271.8,114.3,270.9,114.6,270,114.6z M267,112c1.1,1.7,3.4,2.1,5.1,1
			c1.7-1.1,2.1-3.4,1-5.1c-0.6-0.8-1.4-1.4-2.4-1.5c-1-0.2-1.9,0-2.7,0.6C266.3,108,265.8,110.3,267,112L267,112z"/>
	</g>
	<g>
		
			<ellipse transform="matrix(0.8249 -0.5653 0.5653 0.8249 -17.7461 162.5173)" class="st98" cx="253.4" cy="109.9" rx="4.2" ry="4.2"/>
		<path d="M253.4,114.6c-0.3,0-0.6,0-0.9-0.1c-1.2-0.2-2.3-0.9-3-1.9c-0.7-1-1-2.3-0.7-3.5c0.2-1.2,0.9-2.3,1.9-3
			c1-0.7,2.3-1,3.5-0.7c1.2,0.2,2.3,0.9,3,1.9c0.7,1,1,2.3,0.7,3.5c-0.2,1.2-0.9,2.3-1.9,3C255.3,114.3,254.4,114.6,253.4,114.6z
			 M253.4,106.2c-0.7,0-1.4,0.2-2.1,0.6c-0.8,0.6-1.4,1.4-1.5,2.4c-0.2,1,0,1.9,0.6,2.7l0,0c0.6,0.8,1.4,1.4,2.4,1.5
			c1,0.2,1.9,0,2.7-0.6c0.8-0.6,1.4-1.4,1.5-2.4c0.2-1,0-1.9-0.6-2.7c-0.6-0.8-1.4-1.4-2.4-1.5C253.9,106.3,253.7,106.2,253.4,106.2
			z"/>
	</g>
	<g>
		<polygon class="st5" points="326.3,8.2 333.8,15 159.8,13 167.6,6.4 		"/>
		<path d="M333.8,15.5C333.8,15.5,333.8,15.5,333.8,15.5l-174-2c-0.2,0-0.4-0.1-0.5-0.3c-0.1-0.2,0-0.4,0.1-0.6l7.8-6.6
			c0.1-0.1,0.2-0.1,0.3-0.1l158.8,1.8c0.1,0,0.2,0,0.3,0.1l7.5,6.8c0.2,0.1,0.2,0.4,0.1,0.6C334.2,15.4,334,15.5,333.8,15.5z
			 M161.1,12.6l171.4,2l-6.4-5.8L167.7,6.9L161.1,12.6z"/>
	</g>
	<g>
		
			<rect x="159.5" y="14" transform="matrix(0.9999 1.146548e-02 -1.146548e-02 0.9999 0.4595 -2.824)" class="st64" width="174" height="49.3"/>
		<path d="M333.3,64.8C333.3,64.8,333.3,64.8,333.3,64.8l-174-2c-0.3,0-0.5-0.2-0.5-0.5l0.6-49.3c0-0.1,0.1-0.3,0.2-0.4
			c0.1-0.1,0.2-0.1,0.4-0.1l174,2c0.3,0,0.5,0.2,0.5,0.5l-0.6,49.3c0,0.1-0.1,0.3-0.2,0.4C333.5,64.7,333.4,64.8,333.3,64.8z
			 M159.7,61.8l173,2l0.6-48.3l-173-2L159.7,61.8z"/>
	</g>
	<g>
		
			<ellipse transform="matrix(0.8313 -0.5558 0.5558 0.8313 24.6107 186.4643)" class="st98" cx="319.5" cy="52.7" rx="4.2" ry="4.2"/>
		<path d="M319.5,57.4c-1.5,0-3-0.7-3.9-2.1c-1.4-2.1-0.9-5,1.3-6.5c2.1-1.4,5-0.9,6.5,1.3c0.7,1,0.9,2.3,0.7,3.5
			c-0.2,1.2-0.9,2.3-2,3C321.3,57.1,320.4,57.4,319.5,57.4z M319.5,49c-0.7,0-1.4,0.2-2,0.6c-1.7,1.1-2.1,3.4-1,5.1
			c1.1,1.7,3.4,2.1,5.1,1c1.7-1.1,2.1-3.4,1-5.1C321.8,49.6,320.7,49,319.5,49z"/>
	</g>
	<g>
		
			<ellipse transform="matrix(0.8313 -0.5558 0.5558 0.8313 21.9221 177.2261)" class="st98" cx="302.9" cy="52.5" rx="4.2" ry="4.2"/>
		<path d="M302.9,57.2c-1.5,0-3-0.7-3.9-2.1c-0.7-1-0.9-2.3-0.7-3.5c0.2-1.2,0.9-2.3,2-3c2.1-1.4,5-0.9,6.5,1.3
			c1.4,2.1,0.9,5-1.3,6.5C304.7,56.9,303.8,57.2,302.9,57.2z M302.9,48.8c-0.7,0-1.4,0.2-2,0.6c-1.7,1.1-2.1,3.4-1,5.1
			c1.1,1.7,3.4,2.1,5.1,1c1.7-1.1,2.1-3.4,1-5.1C305.3,49.4,304.1,48.8,302.9,48.8z"/>
	</g>
	<g>
		
			<ellipse transform="matrix(0.8313 -0.5558 0.5558 0.8313 19.2335 167.988)" class="st98" cx="286.4" cy="52.3" rx="4.2" ry="4.2"/>
		<path d="M286.4,57c-1.5,0-3-0.7-3.9-2.1c-1.4-2.1-0.9-5,1.3-6.5c2.1-1.4,5-0.9,6.5,1.3c1.4,2.1,0.9,5-1.3,6.5
			C288.2,56.7,287.3,57,286.4,57z M286.4,48.6c-0.7,0-1.4,0.2-2,0.6c-1.7,1.1-2.1,3.4-1,5.1c1.1,1.7,3.4,2.1,5.1,1
			c1.7-1.1,2.1-3.4,1-5.1C288.7,49.2,287.5,48.6,286.4,48.6z"/>
	</g>
	<g>
		
			<ellipse transform="matrix(0.8313 -0.5558 0.5558 0.8313 16.5449 158.7498)" class="st99" cx="269.8" cy="52.1" rx="4.2" ry="4.2"/>
		<path d="M269.8,56.8c-0.3,0-0.6,0-0.9-0.1c-1.2-0.2-2.3-0.9-3-2l0,0c-0.7-1-0.9-2.3-0.7-3.5c0.2-1.2,0.9-2.3,2-3
			c2.1-1.4,5-0.9,6.5,1.3c1.4,2.1,0.9,5-1.3,6.5C271.6,56.5,270.7,56.8,269.8,56.8z M269.8,48.5c-0.7,0-1.4,0.2-2,0.6
			c-0.8,0.5-1.4,1.4-1.6,2.3c-0.2,1,0,1.9,0.5,2.8l0,0c0.5,0.8,1.4,1.4,2.3,1.6c1,0.2,1.9,0,2.8-0.5c1.7-1.1,2.1-3.4,1-5.1
			C272.1,49,271,48.5,269.8,48.5z"/>
	</g>
	<g>
		
			<ellipse transform="matrix(0.8313 -0.5558 0.5558 0.8313 13.8563 149.5117)" class="st99" cx="253.2" cy="51.9" rx="4.2" ry="4.2"/>
		<path d="M253.2,56.6c-0.3,0-0.6,0-0.9-0.1c-1.2-0.2-2.3-0.9-3-2l0,0c-0.7-1-0.9-2.3-0.7-3.5c0.2-1.2,0.9-2.3,2-3
			c2.1-1.4,5-0.9,6.5,1.3c0.7,1,0.9,2.3,0.7,3.5c-0.2,1.2-0.9,2.3-2,3C255,56.3,254.2,56.6,253.2,56.6z M253.2,48.3
			c-0.7,0-1.4,0.2-2,0.6c-0.8,0.5-1.4,1.4-1.6,2.3c-0.2,1,0,1.9,0.5,2.8l0,0c0.5,0.8,1.4,1.4,2.3,1.6c1,0.2,1.9,0,2.8-0.5
			c0.8-0.5,1.4-1.4,1.6-2.3s0-1.9-0.5-2.8C255.6,48.8,254.4,48.3,253.2,48.3z"/>
	</g>
	<g>
		<g>
			<g>
				
					<rect x="246.8" y="137.4" transform="matrix(0.9989 -4.682662e-02 4.682662e-02 0.9989 -6.5212 13.5789)" class="st2" width="79.4" height="17.2"/>
				<path d="M247.3,156.9c-0.3,0-0.5-0.2-0.5-0.5l-0.8-17.2c0-0.3,0.2-0.5,0.5-0.5l79.4-3.7c0.1,0,0.3,0,0.4,0.1
					c0.1,0.1,0.2,0.2,0.2,0.3l0.8,17.2c0,0.1,0,0.3-0.1,0.4c-0.1,0.1-0.2,0.2-0.3,0.2L247.3,156.9
					C247.3,156.9,247.3,156.9,247.3,156.9z M247,139.7l0.8,16.2l78.4-3.7l-0.8-16.2L247,139.7z"/>
			</g>
		</g>
		<g>
			<polyline class="st2" points="246.9,148 251.8,143.1 260.6,151 267.4,144.5 274.9,148 279.9,144 281.9,151 295.4,142 303.1,148 
				311.1,139.9 320.7,146 326,137.8 			"/>
			<path d="M260.6,151.5c-0.1,0-0.2,0-0.3-0.1l-8.4-7.6l-4.6,4.6l-0.7-0.7l4.9-4.9c0.2-0.2,0.5-0.2,0.7,0l8.4,7.6l6.5-6.2
				c0.2-0.1,0.4-0.2,0.6-0.1l7.2,3.4l4.7-3.8c0.1-0.1,0.3-0.1,0.5-0.1c0.2,0.1,0.3,0.2,0.3,0.3l1.8,6.3l12.9-8.6
				c0.2-0.1,0.4-0.1,0.6,0l7.4,5.7l7.6-7.8c0.2-0.2,0.4-0.2,0.6-0.1l9.2,5.8l5-7.8l0.8,0.5l-5.3,8.2c-0.1,0.2-0.5,0.3-0.7,0.2
				l-9.3-5.8l-7.7,7.8c-0.2,0.2-0.5,0.2-0.7,0l-7.5-5.8l-13.2,8.8c-0.1,0.1-0.3,0.1-0.4,0.1c-0.1-0.1-0.3-0.2-0.3-0.3l-1.8-6.2
				l-4.4,3.5c-0.2,0.1-0.4,0.1-0.5,0.1l-7.2-3.4l-6.6,6.3C260.8,151.4,260.7,151.5,260.6,151.5z"/>
		</g>
	</g>
	<g>
		<path class="st63" d="M453.8,29.8c1.2,0.1,2.1,0.4,2.7,1.1c0.6,0.7,0.9,1.5,0.9,2.6c-0.1,1.2-0.5,2.2-1.3,2.8
			c-0.8,0.6-1.9,0.9-3.3,0.8c-1.3-0.1-2.3-0.3-3-0.8l0.1-1.7c0.4,0.3,0.9,0.5,1.4,0.6c0.5,0.2,1.1,0.3,1.5,0.3
			c0.8,0,1.5-0.1,1.9-0.4c0.5-0.3,0.7-0.9,0.8-1.6c0.1-1.4-0.8-2.1-2.5-2.2c-0.2,0-0.6,0-0.9,0c-0.4,0-0.7,0.1-1,0.1l-0.8-0.5
			l0.8-5.6l6,0.4l-0.1,1.7l-4.4-0.3l-0.4,2.8c0.2,0,0.4,0,0.7-0.1C453.1,29.8,453.4,29.8,453.8,29.8z"/>
		<path class="st63" d="M478.7,38.5l-2.2-0.1l-2.6-4.9l-3.2,4.5l-2-0.1l4.2-5.8l-3.3-5.8l2.1,0.1l2.4,4.5l2.9-4.2l2,0.1l-3.9,5.4
			L478.7,38.5z"/>
		<path class="st63" d="M499.4,39.7l-2.2-0.1l-2.6-4.9l-3.2,4.6l-2-0.1l4.2-5.8l-3.3-5.8l2.1,0.1l2.4,4.5l2.9-4.2l2,0.1l-3.9,5.4
			L499.4,39.7z"/>
	</g>
	<g>
		<g>
			<g>
				<rect x="436.4" y="139.5" class="st2" width="78.2" height="17"/>
				<path d="M514.6,157h-78.2c-0.3,0-0.5-0.2-0.5-0.5v-17c0-0.3,0.2-0.5,0.5-0.5h78.2c0.3,0,0.5,0.2,0.5,0.5v17
					C515.1,156.8,514.9,157,514.6,157z M436.9,156h77.2v-16h-77.2V156z"/>
			</g>
		</g>
		<g>
			<g>
				<path class="st63" d="M454.3,146.9c1.2,0,2.1,0.3,2.8,0.9c0.7,0.6,1,1.5,1,2.5c0,1.2-0.4,2.2-1.2,2.9c-0.8,0.7-1.9,1-3.3,1
					c-1.3,0-2.3-0.2-3-0.6V152c0.4,0.2,0.9,0.4,1.5,0.6s1.1,0.2,1.5,0.2c0.8,0,1.5-0.2,1.9-0.6c0.4-0.4,0.7-0.9,0.7-1.6
					c0-1.4-0.9-2.1-2.6-2.1c-0.2,0-0.6,0-0.9,0.1s-0.7,0.1-1,0.2l-0.8-0.5l0.4-5.6h6v1.7h-4.4l-0.3,2.9c0.2,0,0.4-0.1,0.7-0.1
					S453.9,146.9,454.3,146.9z"/>
			</g>
			<g>
				<path class="st63" d="M479.7,154.2h-2.2l-2.9-4.7l-2.9,4.7h-2l3.8-6l-3.6-5.6h2.1l2.7,4.4l2.7-4.4h2l-3.6,5.6L479.7,154.2z"/>
			</g>
			<g>
				<path class="st63" d="M500.4,154.2h-2.2l-2.9-4.7l-2.9,4.7h-2l3.8-6l-3.6-5.6h2.1l2.7,4.4l2.7-4.4h2l-3.6,5.6L500.4,154.2z"/>
			</g>
		</g>
	</g>
	<g>
		<g>
			<g>
				<rect x="248.2" y="80.2" class="st2" width="78.2" height="17"/>
				<path d="M326.4,97.7h-78.2c-0.3,0-0.5-0.2-0.5-0.5v-17c0-0.3,0.2-0.5,0.5-0.5h78.2c0.3,0,0.5,0.2,0.5,0.5v17
					C326.9,97.5,326.7,97.7,326.4,97.7z M248.7,96.7h77.2v-16h-77.2V96.7z"/>
			</g>
		</g>
		<g>
			<g>
				<path class="st63" d="M266.1,87.7c1.2,0,2.1,0.3,2.8,0.9c0.7,0.6,1,1.5,1,2.5c0,1.2-0.4,2.2-1.2,2.9c-0.8,0.7-1.9,1-3.3,1
					c-1.3,0-2.3-0.2-3-0.6v-1.7c0.4,0.2,0.9,0.4,1.5,0.6c0.6,0.1,1.1,0.2,1.5,0.2c0.8,0,1.5-0.2,1.9-0.6s0.7-0.9,0.7-1.6
					c0-1.4-0.9-2.1-2.6-2.1c-0.2,0-0.6,0-0.9,0.1s-0.7,0.1-1,0.2l-0.8-0.5l0.4-5.6h6V85h-4.4l-0.3,2.9c0.2,0,0.4-0.1,0.7-0.1
					C265.4,87.7,265.7,87.7,266.1,87.7z"/>
			</g>
			<g>
				<path class="st63" d="M291.4,94.9h-2.2l-2.9-4.7l-2.9,4.7h-2l3.8-6l-3.6-5.6h2.1l2.7,4.4l2.7-4.4h2l-3.6,5.6L291.4,94.9z"/>
			</g>
			<g>
				<path class="st63" d="M312.2,94.9H310l-2.9-4.7l-2.9,4.7h-2l3.8-6l-3.6-5.6h2.1l2.7,4.4l2.7-4.4h2l-3.6,5.6L312.2,94.9z"/>
			</g>
		</g>
	</g>
	<g>
		<g>
			<g>
				<rect x="248.2" y="22.9" class="st2" width="78.2" height="17"/>
				<path d="M326.4,40.4h-78.2c-0.3,0-0.5-0.2-0.5-0.5v-17c0-0.3,0.2-0.5,0.5-0.5h78.2c0.3,0,0.5,0.2,0.5,0.5v17
					C326.9,40.2,326.7,40.4,326.4,40.4z M248.7,39.4h77.2v-16h-77.2V39.4z"/>
			</g>
		</g>
	</g>
	<g>
		<polyline class="st2" points="248.4,31.4 253.5,26.8 261.7,34.9 268.7,28.8 275.9,32.6 280.9,28.9 282.6,35.9 296.2,27.6 
			303.5,33.9 311.7,26.3 320.9,32.6 326.4,24.8 		"/>
		<path d="M282.6,36.4c-0.1,0-0.1,0-0.2,0c-0.1-0.1-0.3-0.2-0.3-0.3l-1.5-6.2l-4.4,3.2c-0.2,0.1-0.4,0.1-0.5,0l-6.9-3.6l-6.8,5.9
			c-0.2,0.2-0.5,0.2-0.7,0l-7.9-7.8l-4.7,4.3l-0.7-0.7l5-4.6c0.2-0.2,0.5-0.2,0.7,0l7.9,7.8l6.7-5.8c0.2-0.1,0.4-0.2,0.6-0.1
			l6.9,3.6l4.8-3.5c0.1-0.1,0.3-0.1,0.5-0.1c0.2,0.1,0.3,0.2,0.3,0.4l1.5,6.2l13-7.9c0.2-0.1,0.4-0.1,0.6,0l7,5.9l7.8-7.3
			c0.2-0.2,0.4-0.2,0.6,0l8.8,6.1l5.3-7.4l0.8,0.6l-5.5,7.8c-0.2,0.2-0.5,0.3-0.7,0.1l-8.9-6.1l-7.9,7.3c-0.2,0.2-0.5,0.2-0.7,0
			l-7.1-6l-13.3,8C282.8,36.3,282.7,36.4,282.6,36.4z"/>
	</g>
	<g>
		<g>
			<g>
				<g>
					<rect x="436.4" y="83.2" class="st2" width="78.2" height="17"/>
					<path d="M514.6,100.6h-78.2c-0.3,0-0.5-0.2-0.5-0.5v-17c0-0.3,0.2-0.5,0.5-0.5h78.2c0.3,0,0.5,0.2,0.5,0.5v17
						C515.1,100.4,514.9,100.6,514.6,100.6z M436.9,99.6h77.2v-16h-77.2V99.6z"/>
				</g>
			</g>
		</g>
		<g>
			<polyline class="st2" points="436.6,91.7 441.7,87.1 449.9,95.2 456.9,89.1 464.1,92.9 469.1,89.2 470.8,96.1 484.4,87.9 
				491.7,94.1 499.9,86.6 509.1,92.9 514.6,85.1 			"/>
			<path d="M470.8,96.6c-0.1,0-0.1,0-0.2,0c-0.1-0.1-0.3-0.2-0.3-0.3l-1.5-6.2l-4.4,3.2c-0.2,0.1-0.4,0.1-0.5,0l-6.9-3.6l-6.8,5.9
				c-0.2,0.2-0.5,0.2-0.7,0l-7.9-7.8L437,92l-0.7-0.7l5-4.6c0.2-0.2,0.5-0.2,0.7,0l7.9,7.8l6.7-5.8c0.2-0.1,0.4-0.2,0.6-0.1l6.9,3.6
				l4.8-3.5c0.1-0.1,0.3-0.1,0.5-0.1c0.2,0.1,0.3,0.2,0.3,0.4l1.5,6.2l13-7.9c0.2-0.1,0.4-0.1,0.6,0l7,5.9l7.8-7.3
				c0.2-0.2,0.4-0.2,0.6,0l8.8,6.1l5.3-7.4l0.8,0.6l-5.5,7.8c-0.2,0.2-0.5,0.3-0.7,0.1l-8.9-6.1l-7.9,7.3c-0.2,0.2-0.5,0.2-0.7,0
				l-7.1-6l-13.3,8C471,96.6,470.9,96.6,470.8,96.6z"/>
		</g>
	</g>
	<g>
		<g>
			<line class="st2" x1="167" y1="54.1" x2="230" y2="55"/>
			<path d="M230,55.5C230,55.5,230,55.5,230,55.5l-63-0.8c-0.3,0-0.5-0.2-0.5-0.5c0-0.3,0.2-0.5,0.5-0.5c0,0,0,0,0,0l63,0.8
				c0.3,0,0.5,0.2,0.5,0.5C230.5,55.2,230.3,55.5,230,55.5z"/>
		</g>
		<g>
			<line class="st2" x1="167.1" y1="45.9" x2="230.1" y2="46.7"/>
			<path d="M230.1,47.2C230.1,47.2,230.1,47.2,230.1,47.2l-63-0.8c-0.3,0-0.5-0.2-0.5-0.5c0-0.3,0.2-0.5,0.5-0.5c0,0,0,0,0,0l63,0.8
				c0.3,0,0.5,0.2,0.5,0.5C230.6,47,230.4,47.2,230.1,47.2z"/>
		</g>
		<g>
			<line class="st2" x1="167.2" y1="37.7" x2="230.2" y2="38.5"/>
			<path d="M230.2,39C230.2,39,230.2,39,230.2,39l-63-0.8c-0.3,0-0.5-0.2-0.5-0.5c0-0.3,0.2-0.5,0.5-0.5c0,0,0,0,0,0l63,0.8
				c0.3,0,0.5,0.2,0.5,0.5C230.7,38.8,230.5,39,230.2,39z"/>
		</g>
		<g>
			<line class="st2" x1="167.4" y1="29.5" x2="230.3" y2="30.3"/>
			<path d="M230.3,30.8C230.3,30.8,230.3,30.8,230.3,30.8l-63-0.8c-0.3,0-0.5-0.2-0.5-0.5c0-0.3,0.2-0.5,0.5-0.5l63,0.8
				c0.3,0,0.5,0.2,0.5,0.5C230.8,30.6,230.6,30.8,230.3,30.8z"/>
		</g>
		<g>
			<line class="st2" x1="167.5" y1="21.3" x2="230.4" y2="22.1"/>
			<path d="M230.4,22.6C230.4,22.6,230.4,22.6,230.4,22.6l-63-0.8c-0.3,0-0.5-0.2-0.5-0.5c0-0.3,0.2-0.5,0.5-0.5c0,0,0,0,0,0l63,0.8
				c0.3,0,0.5,0.2,0.5,0.5C230.9,22.4,230.7,22.6,230.4,22.6z"/>
		</g>
	</g>
	<g>
		<g>
			<line class="st2" x1="357.5" y1="48.1" x2="420.3" y2="52.6"/>
			<path d="M420.3,53.1C420.3,53.1,420.3,53.1,420.3,53.1l-62.8-4.5c-0.3,0-0.5-0.3-0.5-0.5c0-0.3,0.3-0.5,0.5-0.5l62.8,4.5
				c0.3,0,0.5,0.3,0.5,0.5C420.8,52.9,420.6,53.1,420.3,53.1z"/>
		</g>
		<g>
			<line class="st2" x1="358.1" y1="39.9" x2="420.9" y2="44.4"/>
			<path d="M420.9,44.9C420.9,44.9,420.9,44.9,420.9,44.9l-62.8-4.5c-0.3,0-0.5-0.3-0.5-0.5c0-0.3,0.3-0.5,0.5-0.5l62.8,4.5
				c0.3,0,0.5,0.3,0.5,0.5C421.4,44.7,421.2,44.9,420.9,44.9z"/>
		</g>
		<g>
			<line class="st2" x1="358.7" y1="31.7" x2="421.5" y2="36.3"/>
			<path d="M421.5,36.8C421.5,36.8,421.5,36.8,421.5,36.8l-62.8-4.5c-0.3,0-0.5-0.3-0.5-0.5c0-0.3,0.3-0.5,0.5-0.5l62.8,4.5
				c0.3,0,0.5,0.3,0.5,0.5C422,36.6,421.7,36.8,421.5,36.8z"/>
		</g>
		<g>
			<line class="st2" x1="359.3" y1="23.5" x2="422.1" y2="28.1"/>
			<path d="M422.1,28.6C422.1,28.6,422.1,28.6,422.1,28.6L359.2,24c-0.3,0-0.5-0.3-0.5-0.5c0-0.3,0.3-0.5,0.5-0.5l62.8,4.5
				c0.3,0,0.5,0.3,0.5,0.5C422.6,28.4,422.3,28.6,422.1,28.6z"/>
		</g>
		<g>
			<line class="st2" x1="359.9" y1="15.4" x2="422.7" y2="19.9"/>
			<path d="M422.7,20.4C422.7,20.4,422.6,20.4,422.7,20.4l-62.8-4.5c-0.3,0-0.5-0.3-0.5-0.5c0-0.3,0.3-0.5,0.5-0.5l62.8,4.5
				c0.3,0,0.5,0.3,0.5,0.5C423.1,20.2,422.9,20.4,422.7,20.4z"/>
		</g>
	</g>
</g>
</svg>
