<svg xmlns="http://www.w3.org/2000/svg" width="326.33" height="35.48" viewBox="0 0 326.33 35.48"><defs><style>.a{isolation:isolate;}.b{fill:#fff;}</style></defs><title>conan_ce_logo</title><g class="a"><path class="b" d="M39.79,21.14v-13H43V20.8a14.79,14.79,0,0,1-.23,3.08,5.37,5.37,0,0,1-3.67,3.69l-1.47-1.63A4.49,4.49,0,0,0,39.48,24,8.43,8.43,0,0,0,39.79,21.14Z" transform="translate(0 -0.31)"/><path class="b" d="M46,23.86V8.16h8.54l-.36,2.56h-5v3.6h4V16.9h-4v7Z" transform="translate(0 -0.31)"/><path class="b" d="M56.1,16.11a10.12,10.12,0,0,0-.43-3.4L58.39,12a3.91,3.91,0,0,1,.48,1.65,4.55,4.55,0,0,1,1.72-1.47,2.36,2.36,0,0,1,1-.18,2.9,2.9,0,0,1,1.13.25l-.84,2.67a1.88,1.88,0,0,0-.88-.23,2.43,2.43,0,0,0-1.86,1v8.2h-3Z" transform="translate(0 -0.31)"/><path class="b" d="M62.83,18.1a6.53,6.53,0,0,1,1.43-4.4A4.73,4.73,0,0,1,68,12,4.9,4.9,0,0,1,72,13.78,6.3,6.3,0,0,1,73.31,18a6.5,6.5,0,0,1-1.44,4.47A4.88,4.88,0,0,1,68,24.11a4.78,4.78,0,0,1-3.78-1.63A6.4,6.4,0,0,1,62.83,18.1Zm6.57-3.22a1.57,1.57,0,0,0-1.31-.61,1.55,1.55,0,0,0-1.56,1.18A8.31,8.31,0,0,0,66.2,18,8,8,0,0,0,66.6,21a1.5,1.5,0,0,0,1.53.93Q70,21.91,70,18A5.46,5.46,0,0,0,69.39,14.89Z" transform="translate(0 -0.31)"/><path class="b" d="M83.28,12.6a3.53,3.53,0,0,0,2.4-1l1.27,1.92a3,3,0,0,1-2.13.86q-.2,0-.79-.07a2.88,2.88,0,0,1,.68,1.9,3,3,0,0,1-1.21,2.47,4.74,4.74,0,0,1-3.07,1l-.45,0q-1.2.58-1.2,1c0,.19.17.28.5.28H80.9a5.1,5.1,0,0,1,3.51,1,3.21,3.21,0,0,1,1,2.47,3.4,3.4,0,0,1-.93,2.4q-1.4,1.49-4.58,1.49T75.51,27a2.73,2.73,0,0,1-1-2.06,2.6,2.6,0,0,1,.27-1.18h2.81a2.23,2.23,0,0,0-.14.75Q77.5,26,79.68,26a3.65,3.65,0,0,0,1.92-.38,1.39,1.39,0,0,0,.72-1.18,1.08,1.08,0,0,0-.54-1A3.77,3.77,0,0,0,80.2,23l-1.29,0A14.87,14.87,0,0,1,77,22.91a2.21,2.21,0,0,1-1.59-.82,2.1,2.1,0,0,1-.23-1,1.54,1.54,0,0,1,.36-1.06,3.46,3.46,0,0,1,1.77-.88A3,3,0,0,1,74.87,16a3.46,3.46,0,0,1,1.34-2.85,5.54,5.54,0,0,1,3.56-1.06,8.51,8.51,0,0,1,2.08.29A6.5,6.5,0,0,0,83.28,12.6ZM81.58,16q0-1.72-1.83-1.72T77.93,16q0,1.65,1.79,1.65T81.58,16Z" transform="translate(0 -0.31)"/><path class="b" d="M93.67,23.86,98.84,8.07h3.42l5,15.79h-3.4l-1.11-3.74H98.09L97,23.86Zm6-9.29q-.41,1.61-.84,2.92h3.08q-.27-.82-.86-3.17-.16-.68-.63-2.79Z" transform="translate(0 -0.31)"/><path class="b" d="M108.44,16.11a10.12,10.12,0,0,0-.43-3.4l2.72-.72a3.91,3.91,0,0,1,.48,1.65,4.55,4.55,0,0,1,1.72-1.47,2.36,2.36,0,0,1,1-.18,2.9,2.9,0,0,1,1.13.25l-.84,2.67a1.88,1.88,0,0,0-.88-.23,2.43,2.43,0,0,0-1.86,1v8.2h-3Z" transform="translate(0 -0.31)"/><path class="b" d="M119.08,12.24h2.72l-.77,2h-1.95v5.91a2.76,2.76,0,0,0,.27,1.48,1.22,1.22,0,0,0,1,.37,4.55,4.55,0,0,0,1.09-.23l.38,1.81a6.47,6.47,0,0,1-2.47.52,4.12,4.12,0,0,1-2-.46,2.27,2.27,0,0,1-1.12-1.23,5.84,5.84,0,0,1-.2-1.79V14.25h-1.16v-2h1.16a23.61,23.61,0,0,1,.11-2.76l3.08-.77A32.87,32.87,0,0,0,119.08,12.24Z" transform="translate(0 -0.31)"/><path class="b" d="M122.39,9.07a1.81,1.81,0,0,1,.55-1.32,1.83,1.83,0,0,1,1.35-.55,1.75,1.75,0,0,1,1.3.54,1.92,1.92,0,0,1,0,2.66,1.8,1.8,0,0,1-1.34.55,1.77,1.77,0,0,1-1.31-.55A1.83,1.83,0,0,1,122.39,9.07Zm.34,14.79V12.46l3-.48V23.86Z" transform="translate(0 -0.31)"/><path class="b" d="M135.07,7.8l-1,1.88a3.13,3.13,0,0,0-1.25-.38q-1.27,0-1.27,1.31v1.63h2.94l-.78,2.13h-2.17v9.49h-3V14.37h-1V12.24h1.11a11,11,0,0,1-.11-1.56,3.52,3.52,0,0,1,1-2.66,3.82,3.82,0,0,1,2.76-.94A5.51,5.51,0,0,1,135.07,7.8Z" transform="translate(0 -0.31)"/><path class="b" d="M135.8,15.82l-1.29-2.17a11.47,11.47,0,0,1,1.88-1,8.45,8.45,0,0,1,3.17-.68q3,0,3.74,2a6.64,6.64,0,0,1,.2,2.08l-.07,3.9v.2a3.85,3.85,0,0,0,.18,1.36,2.65,2.65,0,0,0,.91,1l-1.61,1.86a3,3,0,0,1-1.63-1.4,7.14,7.14,0,0,1-.7.61,3.92,3.92,0,0,1-2.33.63,4.24,4.24,0,0,1-3-.94,3.45,3.45,0,0,1-1-2.68q0-4,5.57-4l.68,0v-.48a2.41,2.41,0,0,0-.27-1.36,1.3,1.3,0,0,0-1.09-.36A6.34,6.34,0,0,0,135.8,15.82Zm4.62,5.46,0-2.49h-.14a4.62,4.62,0,0,0-2.22.37,1.5,1.5,0,0,0-.61,1.39,1.59,1.59,0,0,0,.37,1.1,1.23,1.23,0,0,0,1,.42A2.13,2.13,0,0,0,140.42,21.27Z" transform="translate(0 -0.31)"/><path class="b" d="M153.15,12.44a5.93,5.93,0,0,1,1.13.82l-1.47,2a2.81,2.81,0,0,0-1.83-.91q-2,0-2,3.9a5,5,0,0,0,.59,2.92,1.65,1.65,0,0,0,1.36.66,3.24,3.24,0,0,0,2.08-1l.18-.16,1.38,1.83a5.53,5.53,0,0,1-1.06.86,5.45,5.45,0,0,1-2.83.72A4.6,4.6,0,0,1,147,22.55a6.64,6.64,0,0,1-1.33-4.41q0-3.76,2.38-5.37a5,5,0,0,1,2.88-.86A5,5,0,0,1,153.15,12.44Z" transform="translate(0 -0.31)"/><path class="b" d="M159.1,12.24h2.72l-.77,2H159.1v5.91a2.75,2.75,0,0,0,.27,1.48,1.22,1.22,0,0,0,1,.37,4.53,4.53,0,0,0,1.09-.23l.38,1.81a6.46,6.46,0,0,1-2.47.52,4.12,4.12,0,0,1-2-.46,2.27,2.27,0,0,1-1.12-1.23,5.83,5.83,0,0,1-.2-1.79V14.25h-1.16v-2h1.16a23.73,23.73,0,0,1,.11-2.76l3.08-.77A32.77,32.77,0,0,0,159.1,12.24Z" transform="translate(0 -0.31)"/><path class="b" d="M162.07,18.1a6.54,6.54,0,0,1,1.43-4.4A4.73,4.73,0,0,1,167.28,12a4.9,4.9,0,0,1,3.94,1.74A6.3,6.3,0,0,1,172.55,18a6.5,6.5,0,0,1-1.44,4.47,4.88,4.88,0,0,1-3.84,1.62,4.78,4.78,0,0,1-3.78-1.63A6.4,6.4,0,0,1,162.07,18.1Zm6.57-3.22a1.57,1.57,0,0,0-1.31-.61,1.55,1.55,0,0,0-1.56,1.18,8.3,8.3,0,0,0-.32,2.58,8,8,0,0,0,.4,2.94,1.5,1.5,0,0,0,1.53.93q1.88,0,1.88-3.92A5.46,5.46,0,0,0,168.64,14.89Z" transform="translate(0 -0.31)"/><path class="b" d="M174.73,16.11a10.14,10.14,0,0,0-.43-3.4L177,12a3.91,3.91,0,0,1,.48,1.65,4.54,4.54,0,0,1,1.72-1.47,2.36,2.36,0,0,1,1-.18,2.9,2.9,0,0,1,1.13.25l-.84,2.67a1.88,1.88,0,0,0-.88-.23,2.43,2.43,0,0,0-1.86,1v8.2h-3Z" transform="translate(0 -0.31)"/><path class="b" d="M183.61,20.59l-2.74-8.13,3.1-.36,2,6.75q.2.66.61,2.4.11-.66.36-1.86.2-.79.45-1.61l1.74-5.5h3.19L188.14,24q-1.06,3-2.22,3.84a5.86,5.86,0,0,1-2.81,1.05l-1-2a6.23,6.23,0,0,0,1.88-.77,3.32,3.32,0,0,0,.86-1,8.2,8.2,0,0,0,.66-1.36h-.77q-.09-.27-.24-.67t-.24-.69Z" transform="translate(0 -0.31)"/><path class="b" d="M207.48,7.78a5.87,5.87,0,0,1,4,1.25L210,11.17a4.11,4.11,0,0,0-2.51-.88,3,3,0,0,0-2.65,1.34A7.35,7.35,0,0,0,204,15.7a9.52,9.52,0,0,0,.66,4.21,3.23,3.23,0,0,0,3,1.77,4.23,4.23,0,0,0,2.7-1l1.45,2a6.66,6.66,0,0,1-4.37,1.47A6.51,6.51,0,0,1,202.3,22a8.21,8.21,0,0,1-1.91-5.65,10.28,10.28,0,0,1,1.06-4.89,6.73,6.73,0,0,1,6-3.65Z" transform="translate(0 -0.31)"/><path class="b" d="M213.34,23.86V8.12h9l-.41,2.58h-5.39v3.65H221v2.58h-4.46v4.21h6v2.72Z" transform="translate(0 -0.31)"/><path class="b" d="M238.66,7.8l-1,1.88a3.13,3.13,0,0,0-1.25-.38,1.14,1.14,0,0,0-1.27,1.31v1.63h2.94l-.78,2.13h-2.17v9.49h-3V14.37h-1V12.24h1.11a10.93,10.93,0,0,1-.11-1.56,3.53,3.53,0,0,1,1-2.66,3.82,3.82,0,0,1,2.76-.94A5.51,5.51,0,0,1,238.66,7.8Z" transform="translate(0 -0.31)"/><path class="b" d="M237.76,18.1a6.54,6.54,0,0,1,1.43-4.4A4.73,4.73,0,0,1,243,12a4.9,4.9,0,0,1,3.94,1.74A6.3,6.3,0,0,1,248.24,18a6.5,6.5,0,0,1-1.44,4.47A4.88,4.88,0,0,1,243,24.11a4.78,4.78,0,0,1-3.78-1.63A6.4,6.4,0,0,1,237.76,18.1Zm6.57-3.22a1.57,1.57,0,0,0-1.31-.61,1.55,1.55,0,0,0-1.56,1.18,8.3,8.3,0,0,0-.32,2.58,8,8,0,0,0,.4,2.94,1.5,1.5,0,0,0,1.53.93q1.88,0,1.88-3.92A5.46,5.46,0,0,0,244.33,14.89Z" transform="translate(0 -0.31)"/><path class="b" d="M250.42,16.11a10.14,10.14,0,0,0-.43-3.4L252.7,12a3.91,3.91,0,0,1,.48,1.65,4.54,4.54,0,0,1,1.72-1.47,2.36,2.36,0,0,1,1-.18,2.9,2.9,0,0,1,1.13.25l-.84,2.67a1.88,1.88,0,0,0-.88-.23,2.43,2.43,0,0,0-1.86,1v8.2h-3Z" transform="translate(0 -0.31)"/><path class="b" d="M271.84,7.78a5.87,5.87,0,0,1,4,1.25l-1.43,2.15a4.11,4.11,0,0,0-2.51-.88,3,3,0,0,0-2.65,1.34,7.35,7.35,0,0,0-.91,4.08,9.52,9.52,0,0,0,.66,4.21,3.23,3.23,0,0,0,3,1.77,4.23,4.23,0,0,0,2.7-1l1.45,2a6.66,6.66,0,0,1-4.37,1.47A6.51,6.51,0,0,1,266.67,22a8.21,8.21,0,0,1-1.91-5.65,10.28,10.28,0,0,1,1.06-4.89,6.73,6.73,0,0,1,6-3.65Z" transform="translate(0 -0.31)"/><path class="b" d="M285.45,24.26l-2.56.79L276.1,7.41l2.58-.79Z" transform="translate(0 -0.31)"/><path class="b" d="M293.18,7.78a5.87,5.87,0,0,1,4,1.25l-1.43,2.15a4.11,4.11,0,0,0-2.51-.88,3,3,0,0,0-2.65,1.34,7.35,7.35,0,0,0-.91,4.08,9.52,9.52,0,0,0,.66,4.21,3.23,3.23,0,0,0,3,1.77,4.23,4.23,0,0,0,2.7-1l1.45,2a6.66,6.66,0,0,1-4.37,1.47A6.51,6.51,0,0,1,288,22a8.21,8.21,0,0,1-1.91-5.65,10.28,10.28,0,0,1,1.06-4.89,6.73,6.73,0,0,1,6-3.65Z" transform="translate(0 -0.31)"/><path class="b" d="M298.84,18.42V15.57h4.78V10.79h2.85v4.78h4.78v2.85h-4.78V23.2h-2.85V18.42Z" transform="translate(0 -0.31)"/><path class="b" d="M313.92,18.42V15.57h4.78V10.79h2.85v4.78h4.78v2.85h-4.78V23.2H318.7V18.42Z" transform="translate(0 -0.31)"/></g><path class="b" d="M29.67,35.79H1.38a1.38,1.38,0,0,1,0-2.76H29.67a1.38,1.38,0,1,1,0,2.76Z" transform="translate(0 -0.31)"/><path class="b" d="M23.87,15.45a1.38,1.38,0,0,1-1.38,1.38H20.86v1.63a1.38,1.38,0,0,1-2.76,0V16.83H16.47a1.38,1.38,0,1,1,0-2.76H18.1V12.44a1.38,1.38,0,1,1,2.76,0v1.63h1.63A1.38,1.38,0,0,1,23.87,15.45Z" transform="translate(0 -0.31)"/><path class="b" d="M30.45,9.43a1.38,1.38,0,0,1-1.38,1.38H27.44v1.63a1.38,1.38,0,0,1-2.76,0V10.81H23A1.38,1.38,0,0,1,23,8h1.63V6.42a1.38,1.38,0,0,1,2.76,0V8h1.63A1.38,1.38,0,0,1,30.45,9.43Z" transform="translate(0 -0.31)"/><path class="b" d="M15,27.28c-7.77,0-14.09-6-14.09-13.48S7.21.31,15,.31a14.65,14.65,0,0,1,6.35,1.44,1.38,1.38,0,1,1-1.2,2.49A11.87,11.87,0,0,0,15,3.07C8.73,3.07,3.65,7.88,3.65,13.79S8.73,24.51,15,24.51a11.54,11.54,0,0,0,6.49-1.95A1.38,1.38,0,1,1,23,24.86,14.29,14.29,0,0,1,15,27.28Z" transform="translate(0 -0.31)"/></svg>