<svg xmlns="http://www.w3.org/2000/svg" width="226.6" height="34.11" viewBox="0 0 226.6 34.11"><defs><style>.a{fill:#fff;}</style></defs><title>artifactory_edge</title><path class="a" d="M14.3,26.4h.4A13.12,13.12,0,0,0,25.3,21a1.22,1.22,0,0,0-2-1.4A10.67,10.67,0,0,1,4,13,10.72,10.72,0,0,1,7.4,5.5a10.46,10.46,0,0,1,7.7-2.9A10.52,10.52,0,0,1,23.4,7a1.22,1.22,0,0,0,2-1.4A12.93,12.93,0,0,0,15.2.2,13.15,13.15,0,0,0,1.7,13,12.92,12.92,0,0,0,14.3,26.4Z" transform="translate(-0.3 -0.19)"/><path class="a" d="M21.3,13.6a4.4,4.4,0,1,0,4.4-4.4A4.44,4.44,0,0,0,21.3,13.6Zm6.9,0a2.4,2.4,0,1,1-2.4-2.4A2.43,2.43,0,0,1,28.2,13.6Z" transform="translate(-0.3 -0.19)"/><rect class="a" y="31.71" width="26.5" height="2.4"/><path class="a" d="M37.6,19.8V6.9h3.2V19.5a21.61,21.61,0,0,1-.2,3.1A5.32,5.32,0,0,1,37,26.3l-1.5-1.6a4.07,4.07,0,0,0,1.8-1.9A10.53,10.53,0,0,0,37.6,19.8Z" transform="translate(-0.3 -0.19)"/><path class="a" d="M42.9,22.5V6.9h8.5L51,9.5H46V13h4v2.6H46v6.9Z" transform="translate(-0.3 -0.19)"/><path class="a" d="M51.1,14.8a10.15,10.15,0,0,0-.4-3.4l2.7-.7a4.28,4.28,0,0,1,.5,1.6,4.86,4.86,0,0,1,1.7-1.5,3,3,0,0,1,1-.2,4.25,4.25,0,0,1,1.1.2l-.8,2.6a2.92,2.92,0,0,0-.9-.2,2.12,2.12,0,0,0-1.8,1v8.1h-3V14.8Z" transform="translate(-0.3 -0.19)"/><path class="a" d="M57.3,16.8a6.82,6.82,0,0,1,1.4-4.4,4.57,4.57,0,0,1,3.7-1.6,5.07,5.07,0,0,1,3.9,1.7,6,6,0,0,1,1.3,4.2,6.45,6.45,0,0,1-1.4,4.4,4.78,4.78,0,0,1-3.8,1.6,4.44,4.44,0,0,1-3.7-1.6A6.53,6.53,0,0,1,57.3,16.8Zm6.5-3.2a1.49,1.49,0,0,0-1.3-.6A1.42,1.42,0,0,0,61,14.2a8.8,8.8,0,0,0-.3,2.6,7.15,7.15,0,0,0,.4,2.9,1.55,1.55,0,0,0,1.5.9c1.2,0,1.9-1.3,1.9-3.9A6.05,6.05,0,0,0,63.8,13.6Z" transform="translate(-0.3 -0.19)"/><path class="a" d="M76.7,11.3a3.41,3.41,0,0,0,2.4-1l1.3,1.9a2.88,2.88,0,0,1-2.1.9,3.22,3.22,0,0,1-.8-.1,3.16,3.16,0,0,1,.7,1.9A2.85,2.85,0,0,1,77,17.3a4.91,4.91,0,0,1-3,1h-.4c-.8.4-1.2.7-1.2,1s.2.3.5.3h1.6a5.41,5.41,0,0,1,3.5,1A3,3,0,0,1,79,23a3.58,3.58,0,0,1-.9,2.4q-1.35,1.5-4.5,1.5a6.61,6.61,0,0,1-4.4-1.2,2.83,2.83,0,0,1-.9-2,2.66,2.66,0,0,1,.3-1.2h2.8a.62.62,0,0,0-.4.7c0,.9.7,1.4,2.2,1.4a3.16,3.16,0,0,0,1.9-.4,1.31,1.31,0,0,0,.7-1.2,1.1,1.1,0,0,0-.5-1,3.51,3.51,0,0,0-1.6-.3H72.4c-.9,0-1.5-.1-1.8-.1a2.23,2.23,0,0,1-1.6-.8,2.92,2.92,0,0,1-.2-.9,1.5,1.5,0,0,1,.4-1.1,3.42,3.42,0,0,1,1.7-.9,3.05,3.05,0,0,1-2.5-3.2,3.29,3.29,0,0,1,1.3-2.8,5.62,5.62,0,0,1,3.5-1.1,8.81,8.81,0,0,1,2.1.3A11.48,11.48,0,0,0,76.7,11.3ZM75,14.7c0-1.1-.6-1.7-1.8-1.7s-1.8.6-1.8,1.7.6,1.6,1.8,1.6S75,15.8,75,14.7Z" transform="translate(-0.3 -0.19)"/><path class="a" d="M83.8,22.5,89,6.8h3.4l4.9,15.6H93.9l-1.1-3.7H88.2l-1.1,3.7H83.8Zm6-9.2c-.3,1.1-.5,2-.8,2.9h3c-.2-.5-.5-1.6-.9-3.1-.1-.4-.3-1.4-.6-2.8Z" transform="translate(-0.3 -0.19)"/><path class="a" d="M97.6,14.8a10.15,10.15,0,0,0-.4-3.4l2.7-.7a4.28,4.28,0,0,1,.5,1.6,4.86,4.86,0,0,1,1.7-1.5,3,3,0,0,1,1-.2,4.25,4.25,0,0,1,1.1.2l-.8,2.6a2.92,2.92,0,0,0-.9-.2,2.12,2.12,0,0,0-1.8,1v8.1h-3V14.8Z" transform="translate(-0.3 -0.19)"/><path class="a" d="M109,11h2.7l-.8,2H109v5.9a2.81,2.81,0,0,0,.3,1.5,1.33,1.33,0,0,0,1,.4,8.92,8.92,0,0,0,1.1-.2l.4,1.8a7.36,7.36,0,0,1-2.4.5,4.23,4.23,0,0,1-2-.5,2.13,2.13,0,0,1-1.1-1.2,7.45,7.45,0,0,1-.2-1.8V13H105V11h1.1a17.89,17.89,0,0,1,.1-2.7l3.1-.8A19.83,19.83,0,0,0,109,11Z" transform="translate(-0.3 -0.19)"/><path class="a" d="M112.3,7.8a2.11,2.11,0,0,1,.5-1.3,1.66,1.66,0,0,1,1.3-.5,2.11,2.11,0,0,1,1.3.5,1.66,1.66,0,0,1,.5,1.3,2.11,2.11,0,0,1-.5,1.3,1.66,1.66,0,0,1-1.3.5,2.11,2.11,0,0,1-1.3-.5A1.9,1.9,0,0,1,112.3,7.8Zm.3,14.7V11.2l3-.5V22.5Z" transform="translate(-0.3 -0.19)"/><path class="a" d="M124.4,6.6l-1,1.9a2.38,2.38,0,0,0-1.2-.4,1.16,1.16,0,0,0-1.3,1.3V11h2.9l-.8,2.1h-2.1v9.4h-3V13.1h-1V11H118a7.57,7.57,0,0,1-.1-1.5,3.25,3.25,0,0,1,1-2.6,3.83,3.83,0,0,1,2.7-.9A4.61,4.61,0,0,1,124.4,6.6Z" transform="translate(-0.3 -0.19)"/><path class="a" d="M125.1,14.5l-1.3-2.2a8.38,8.38,0,0,1,1.9-.9,9.75,9.75,0,0,1,3.1-.7c2,0,3.2.7,3.7,2a9.1,9.1,0,0,1,.2,2.1l-.1,3.9v.2a3.92,3.92,0,0,0,.2,1.3,2,2,0,0,0,.9,1L132.1,23a2.81,2.81,0,0,1-1.6-1.4,3.19,3.19,0,0,1-.7.6,4.14,4.14,0,0,1-2.3.6,4.2,4.2,0,0,1-2.9-.9,3.34,3.34,0,0,1-1-2.7c0-2.6,1.8-3.9,5.5-3.9h.7v-.5a1.88,1.88,0,0,0-.3-1.3,1.42,1.42,0,0,0-1.1-.4A7.35,7.35,0,0,0,125.1,14.5Zm4.6,5.4V17.4h-.1a3.87,3.87,0,0,0-2.2.4c-.4.2-.6.7-.6,1.4a1.5,1.5,0,0,0,.4,1.1,1.16,1.16,0,0,0,1,.4A2.24,2.24,0,0,0,129.7,19.9Z" transform="translate(-0.3 -0.19)"/><path class="a" d="M141.8,11.2a3.32,3.32,0,0,1,1.1.8l-1.5,2a2.59,2.59,0,0,0-1.8-.9c-1.3,0-2,1.3-2,3.9a4.79,4.79,0,0,0,.6,2.9,1.71,1.71,0,0,0,1.3.7,3.46,3.46,0,0,0,2.1-.9l.2-.2,1.4,1.8a4.36,4.36,0,0,1-1.1.9,5.07,5.07,0,0,1-2.8.7,4.44,4.44,0,0,1-3.7-1.6,6.43,6.43,0,0,1-1.3-4.4c0-2.5.8-4.3,2.4-5.3a4.68,4.68,0,0,1,2.8-.9A4.13,4.13,0,0,1,141.8,11.2Z" transform="translate(-0.3 -0.19)"/><path class="a" d="M147.7,11h2.7l-.8,2h-1.9v5.9a2.81,2.81,0,0,0,.3,1.5,1.33,1.33,0,0,0,1,.4,8.92,8.92,0,0,0,1.1-.2l.4,1.8a7.36,7.36,0,0,1-2.4.5,4.23,4.23,0,0,1-2-.5,2.13,2.13,0,0,1-1.1-1.2,7.45,7.45,0,0,1-.2-1.8V13h-1.1V11h1.1a17.89,17.89,0,0,1,.1-2.7l3.1-.8A19.83,19.83,0,0,0,147.7,11Z" transform="translate(-0.3 -0.19)"/><path class="a" d="M150.7,16.8a6.82,6.82,0,0,1,1.4-4.4,4.57,4.57,0,0,1,3.7-1.6,5.07,5.07,0,0,1,3.9,1.7,6,6,0,0,1,1.3,4.2,6.45,6.45,0,0,1-1.4,4.4,4.78,4.78,0,0,1-3.8,1.6,4.44,4.44,0,0,1-3.7-1.6A6.53,6.53,0,0,1,150.7,16.8Zm6.5-3.2a1.49,1.49,0,0,0-1.3-.6,1.42,1.42,0,0,0-1.5,1.2,8.8,8.8,0,0,0-.3,2.6,7.15,7.15,0,0,0,.4,2.9,1.55,1.55,0,0,0,1.5.9c1.2,0,1.9-1.3,1.9-3.9A6.05,6.05,0,0,0,157.2,13.6Z" transform="translate(-0.3 -0.19)"/><path class="a" d="M161.9,14.8a10.15,10.15,0,0,0-.4-3.4l2.7-.7a4.28,4.28,0,0,1,.5,1.6,4.86,4.86,0,0,1,1.7-1.5,3,3,0,0,1,1-.2,4.25,4.25,0,0,1,1.1.2l-.8,2.6a2.92,2.92,0,0,0-.9-.2,2.12,2.12,0,0,0-1.8,1v8.1h-3V14.8Z" transform="translate(-0.3 -0.19)"/><path class="a" d="M171.6,19.2l-2.7-8.1,3.1-.4,2,6.7.6,2.4c.1-.4.2-1,.4-1.8.1-.5.3-1.1.4-1.6l1.7-5.5h3.2l-4.2,11.6c-.7,2-1.4,3.2-2.2,3.8a5.26,5.26,0,0,1-2.8,1l-1-2a4.89,4.89,0,0,0,1.9-.8,3.82,3.82,0,0,0,.9-.9c.2-.3.4-.8.7-1.3h-.8a6.37,6.37,0,0,1-.2-.7,2.54,2.54,0,0,1-.2-.7A3.85,3.85,0,0,1,171.6,19.2Z" transform="translate(-0.3 -0.19)"/><path class="a" d="M185.4,22.5V6.9h8.9l-.4,2.6h-5.3v3.6h4.5v2.6h-4.4v4.2h5.9v2.7h-9.2Z" transform="translate(-0.3 -0.19)"/><path class="a" d="M201.6,5.9l3,.5v12a12.25,12.25,0,0,0,.4,4.2h-2.7c-.1-.1-.1-.4-.2-.7a4,4,0,0,1-2.6,1,4.18,4.18,0,0,1-3.5-1.6,6.49,6.49,0,0,1-1.3-4.3,6.82,6.82,0,0,1,1.4-4.4,4.4,4.4,0,0,1,3.5-1.7,2.72,2.72,0,0,1,2,.7,7.16,7.16,0,0,1-.1-1.7v-4Zm.1,13.6V14a2.47,2.47,0,0,0-1.6-.7c-1.3,0-1.9,1.2-1.9,3.7a5.61,5.61,0,0,0,.4,2.6,1.65,1.65,0,0,0,1.6.7A2.24,2.24,0,0,0,201.7,19.5Z" transform="translate(-0.3 -0.19)"/><path class="a" d="M214.1,11.3a3.41,3.41,0,0,0,2.4-1l1.3,1.9a2.88,2.88,0,0,1-2.1.9,3.22,3.22,0,0,1-.8-.1,3.16,3.16,0,0,1,.7,1.9,2.85,2.85,0,0,1-1.2,2.4,4.91,4.91,0,0,1-3,1H211c-.8.4-1.2.7-1.2,1s.2.3.5.3h1.6a5.41,5.41,0,0,1,3.5,1,3,3,0,0,1,1,2.4,3.58,3.58,0,0,1-.9,2.4q-1.35,1.5-4.5,1.5a6.61,6.61,0,0,1-4.4-1.2,2.83,2.83,0,0,1-.9-2,2.66,2.66,0,0,1,.3-1.2h2.8a2,2,0,0,0-.1.7c0,.9.7,1.4,2.2,1.4a3.16,3.16,0,0,0,1.9-.4,1.31,1.31,0,0,0,.7-1.2,1.1,1.1,0,0,0-.5-1,3.51,3.51,0,0,0-1.6-.3h-1.3c-.9,0-1.5-.1-1.8-.1a2.23,2.23,0,0,1-1.6-.8,2.92,2.92,0,0,1-.2-.9,1.5,1.5,0,0,1,.4-1.1,3.42,3.42,0,0,1,1.7-.9,3.05,3.05,0,0,1-2.5-3.2,3.29,3.29,0,0,1,1.3-2.8,5.62,5.62,0,0,1,3.5-1.1,8.81,8.81,0,0,1,2.1.3A5.16,5.16,0,0,0,214.1,11.3Zm-1.7,3.4c0-1.1-.6-1.7-1.8-1.7s-1.8.6-1.8,1.7.6,1.6,1.8,1.6S212.4,15.8,212.4,14.7Z" transform="translate(-0.3 -0.19)"/><path class="a" d="M222.7,20.6a4.77,4.77,0,0,0,2.9-1.1l1.2,1.8a6.39,6.39,0,0,1-4.3,1.6,4.85,4.85,0,0,1-3.9-1.6,6.09,6.09,0,0,1-1.5-4.3,6.55,6.55,0,0,1,1.4-4.5,4.84,4.84,0,0,1,3.6-1.6,4.46,4.46,0,0,1,3.3,1.2c1,1,1.5,2.7,1.5,5v.7h-6.6v.1C220.3,19.6,221.1,20.6,222.7,20.6Zm-2.4-5.1h3.5v-.1a2.5,2.5,0,0,0-.4-1.7,1.56,1.56,0,0,0-1.3-.7C220.9,13,220.3,13.8,220.3,15.5Z" transform="translate(-0.3 -0.19)"/></svg>