<?xml version="1.0" encoding="utf-8"?>
<!-- Generator: Adobe Illustrator 17.0.0, SVG Export Plug-In . SVG Version: 6.00 Build 0)  -->
<!DOCTYPE svg PUBLIC "-//W3C//DTD SVG 1.1//EN" "http://www.w3.org/Graphics/SVG/1.1/DTD/svg11.dtd">
<svg id="blogs" xmlns="http://www.w3.org/2000/svg" viewBox="0 0 48 48.7">
    <path class="box box1" d="M4.9 28.7a1.42 1.42 0 0 1-.6-.2 1 1 0 0 1-.3-1.1L6 22H1a.94.94 0 0 1-1-1V1a.94.94 0 0 1 1-1h32a.94.94 0 0 1 1 1v20a.94.94 0 0 1-1 1H15.4l-10 6.6a4.33 4.33 0 0 0-.5.1zM2 19.9h5.3a1.23 1.23 0 0 1 .8.4.94.94 0 0 1 .1.9l-1.4 3.9 7.7-5.1a1.42 1.42 0 0 1 .6-.2H32v-18H2z"/>
    <path class="box box2" d="M48 19v22a.94.94 0 0 1-1 1h-3.7l2 5.4a1.07 1.07 0 0 1-.3 1.1 2.54 2.54 0 0 1-.7.2 1.42 1.42 0 0 1-.6-.2l-10-6.6H17a.94.94 0 0 1-1-1v-19c0-.6 2-.6 2 0v18h16a1.42 1.42 0 0 1 .6.2l7.7 5.1-1.4-3.9a1 1 0 0 1 .1-.9.9.9 0 0 1 .8-.4H46V19.8H33.37A1 1 0 0 1 34 18h13a.94.94 0 0 1 1 1z"/>
    <path class="lines lines1" d="M7 8.3h22a.94.94 0 0 0 1-1 .94.94 0 0 0-1-1H7a.94.94 0 0 0-1 1 .94.94 0 0 0 1 1zM29 10.3H7a1 1 0 0 0 0 2h22a1 1 0 0 0 0-2zM19 14.3H7a1 1 0 0 0 0 2h12a1 1 0 0 0 0-2z"/>
    <path class="lines lines2" d="M22 27.3h20a1 1 0 0 0 0-2H22a1 1 0 0 0 0 2zM42 29.3H22a1 1 0 0 0 0 2h20a1 1 0 0 0 0-2zM34 33.3H22a1 1 0 0 0 0 2h12a1 1 0 0 0 0-2z"/>
</svg>