<?xml version="1.0" encoding="utf-8"?>
<!-- Generator: Adobe Illustrator 17.0.0, SVG Export Plug-In . SVG Version: 6.00 Build 0)  -->
<!DOCTYPE svg PUBLIC "-//W3C//DTD SVG 1.1//EN" "http://www.w3.org/Graphics/SVG/1.1/DTD/svg11.dtd">
<svg style="max-width: 40%;" xmlns="http://www.w3.org/2000/svg" viewBox="0 0 54 39.6"><path class="b" d="M53 5.6h-2V3a.9.9 0 0 0-.5-.8C48.2.8 44.2 0 39.6 0a30.85 30.85 0 0 0-12.3 2.3C20.94-.7 8.96-.8 4.1 2.2a.9.9 0 0 0-.5.8v2.6H1a.94.94 0 0 0-1 1v32a.94.94 0 0 0 1 1h52a.94.94 0 0 0 1-1v-32a.94.94 0 0 0-1-1zM28.1 4l.26-.1a29.7 29.7 0 0 1 11.24-2A22.86 22.86 0 0 1 49 3.6v28.2a21.13 21.13 0 0 0-6.5-1c-5.6 0-11.5 1.8-13.4 1.8h-.8l-.2-28.36zM5.6 3.7c4.23-2.2 14.65-2.4 20.6.35l.2 28.85h-1c-1.9-.5-13.4-3.4-19.8-1zm46.6 33.9H2v-30h1.6v25.7a1.05 1.05 0 0 0 .5.9.9.9 0 0 0 1 0c4.3-2.7 14.5-.9 19.9.5h4.3c.1 0 .2.1.3 0a60 60 0 0 1 13-1.8c3.1 0 5.4.5 6.9 1.4a1.08 1.08 0 0 0 1.1 0 1.15 1.15 0 0 0 .6-.9V7.6h1z"/><path class="a" d="M24.1 5.7c-4.3-2.3-12.8-2.4-16.3-.2a1 1 0 1 0 1.1 1.7c2.6-1.7 10.3-1.8 14.2.3a.9.9 0 0 0 .5.1 1.05 1.05 0 0 0 .9-.5 1 1 0 0 0-.4-1.4zM24.1 10.9c-4.3-2.3-12.8-2.4-16.3-.3a1 1 0 1 0 1.1 1.7c2.6-1.7 10.3-1.8 14.2.3a.9.9 0 0 0 .5.1 1.05 1.05 0 0 0 .9-.5.88.88 0 0 0-.4-1.3zM8.9 17.5c2.6-1.7 10.3-1.8 14.2.3a.9.9 0 0 0 .5.1 1.05 1.05 0 0 0 .9-.5 1 1 0 0 0-.4-1.4c-4.3-2.3-12.8-2.4-16.3-.2a1 1 0 0 0 1.1 1.7zM24.1 21.2c-4.3-2.3-12.8-2.4-16.3-.2a1 1 0 1 0 1.1 1.7c2.6-1.7 10.3-1.8 14.2.3a.9.9 0 0 0 .5.1 1.05 1.05 0 0 0 .9-.5 1 1 0 0 0-.4-1.4zM24.1 26.4c-4.3-2.3-12.8-2.4-16.3-.2a1 1 0 1 0 1.1 1.7c2.6-1.7 10.3-1.8 14.2.3a.9.9 0 0 0 .5.1 1.05 1.05 0 0 0 .9-.5 1 1 0 0 0-.4-1.4zM32.1 7.2c2.6-1.7 10.3-1.8 14.2.3a.9.9 0 0 0 .5.1 1.05 1.05 0 0 0 .9-.5 1 1 0 0 0-.4-1.4C43 3.4 34.5 3.3 31 5.5a1 1 0 0 0-.3 1.4 1.08 1.08 0 0 0 1.4.3zM47.3 10.9c-4.3-2.3-12.8-2.4-16.2-.3a1 1 0 1 0 1.1 1.7c2.6-1.7 10.3-1.8 14.2.3a.9.9 0 0 0 .5.1 1.05 1.05 0 0 0 .9-.5 1 1 0 0 0-.5-1.3zM32.1 17.5c2.6-1.7 10.3-1.8 14.2.3a.9.9 0 0 0 .5.1 1.05 1.05 0 0 0 .9-.5 1 1 0 0 0-.4-1.4c-4.3-2.2-12.8-2.4-16.2-.2a1 1 0 0 0-.3 1.4.86.86 0 0 0 1.3.3zM47.3 21.2C43 18.9 34.5 18.8 31 21a1 1 0 1 0 1.1 1.7c2.6-1.7 10.3-1.8 14.2.3a.9.9 0 0 0 .5.1 1.05 1.05 0 0 0 .9-.5 1 1 0 0 0-.4-1.4zM47.3 26.4C43 24.1 34.5 24 31 26.2a1 1 0 1 0 1.1 1.7c2.6-1.7 10.3-1.8 14.2.3a.9.9 0 0 0 .5.1 1.05 1.05 0 0 0 .9-.5 1 1 0 0 0-.4-1.4z"/></svg>