<?xml version="1.0" encoding="utf-8"?>
<!-- Generator: Adobe Illustrator 24.0.0, SVG Export Plug-In . SVG Version: 6.00 Build 0)  -->
<svg version="1.1" id="Layer_2" xmlns="http://www.w3.org/2000/svg" xmlns:xlink="http://www.w3.org/1999/xlink" x="0px" y="0px"
     width="523.5px" height="36.1px" viewBox="0 0 523.5 36.1" style="enable-background:new 0 0 523.5 36.1;" xml:space="preserve">
<style type="text/css">
	.st0{fill:#FFFFFF;}
	.st1{fill-rule:evenodd;clip-rule:evenodd;fill:#FFFFFF;}
</style>
  <path class="st0" d="M16.9,23.5c1.9-0.5,3.6-1.6,4.9-3.1h2.8c-1.4,2.2-3.4,3.9-5.8,4.8c-2.4,0.9-5.1,1.1-7.6,0.4s-4.7-2.2-6.3-4.3
	c-1.5-2-2.3-4.5-2.3-7.1S3.4,9.1,5,7.1C6.6,5,8.8,3.5,11.3,2.8s5.1-0.6,7.6,0.4c2.4,0.9,4.5,2.6,5.8,4.8h-2.8
	c-1.3-1.5-3-2.6-4.9-3.1s-3.9-0.4-5.8,0.3S7.7,7.1,6.6,8.7c-1.2,1.6-1.8,3.6-1.8,5.5s0.6,3.9,1.7,5.5s2.7,2.8,4.6,3.5
	S15,24,16.9,23.5z"/>
  <path class="st0" d="M0.7,31.9h27.8v2.1H0.7V31.9z"/>
  <path class="st0" d="M21.1,16.1v-3.6h1.5v3.6H21.1z"/>
  <path class="st0" d="M23.1,12.5v3.6h1.5v-3.6C24.6,12.5,23.1,12.5,23.1,12.5z"/>
  <path class="st0" d="M25.2,16.1v-3.6h1.5v3.6H25.2z"/>
  <path class="st0" d="M27.3,12.5v3.6h1.5v-3.6C28.8,12.5,27.3,12.5,27.3,12.5z"/>
  <path class="st1" d="M32.8,9H17.1v10.6h15.8L32.8,9L32.8,9z M30.9,11H19v6.7h11.9V11z"/>
  <path class="st0" d="M177.3,25.6V12.1l-3.5,0.5v13H177.3z"/>
  <path class="st0" d="M177.7,8.7c0-1.2-0.9-2.1-2.1-2.1c-1.2,0-2.2,1-2.2,2.1s1,2.1,2.1,2.1C176.8,10.9,177.7,9.9,177.7,8.7z"/>
  <path class="st0" d="M121.2,22l1.7,2.3c-1.4,1.2-2.9,1.7-5,1.7c-2.5,0-4.4-0.8-5.9-2.5c-1.4-1.6-2.2-3.8-2.2-6.4
	c0-2.2,0.4-4,1.2-5.6c1.4-2.6,4-4.2,6.9-4.2c1.8,0,3.6,0.6,4.5,1.4l-1.6,2.5c-0.9-0.7-1.9-1-2.9-1c-1.2,0-2.4,0.6-3,1.5
	c-0.7,1-1,2.5-1,4.6c0,2.5,0.2,3.8,0.7,4.8c0.7,1.3,1.9,2,3.5,2C119.2,23.1,120.2,22.8,121.2,22z"/>
  <path class="st0" d="M53.4,7.7v14.5c0,2.3-0.1,2.8-0.3,3.5c-0.5,2.2-2.6,3.6-4.2,4.2L47.2,28c0.9-0.6,1.8-1.4,2.1-2.2
	c0.3-0.6,0.4-1.4,0.4-3.3V7.7H53.4z"/>
  <path class="st0" d="M57,7.7h9.7l-0.4,2.9h-5.7v4.1h4.6v2.9h-4.6v8H57V7.7z"/>
  <path class="st0" d="M75.8,12.4c-0.5-0.2-0.8-0.3-1.3-0.3c-1.3,0-2.3,0.9-3.1,1.9c-0.1-0.7-0.2-1.3-0.5-1.9l-3.1,0.8
	c0.3,0.7,0.5,2.1,0.5,3.9v8.8h3.5v-9.3c0.6-0.7,1.3-1.1,2.1-1.1c0.4,0,0.7,0.1,1,0.3L75.8,12.4z"/>
  <path class="st1" d="M86.3,14.1c1.1,1.2,1.5,2.7,1.5,4.8c0,2.3-0.5,3.8-1.7,5.1c-1,1.1-2.3,1.8-4.4,1.8c-3.6,0-5.9-2.7-5.9-6.8
	c0-4.2,2.4-6.9,5.9-6.9C83.7,12.1,85.2,12.8,86.3,14.1z M81.9,23.4c1.5,0,2.1-1.3,2.1-4.5c0-1.8-0.2-2.9-0.7-3.5
	c-0.3-0.4-0.9-0.7-1.5-0.7c-0.8,0-1.5,0.5-1.8,1.3c-0.2,0.7-0.4,1.6-0.4,2.9c0,1.5,0.2,2.7,0.4,3.3C80.5,23,81.2,23.4,81.9,23.4z"/>
  <path class="st1" d="M103.6,13.8l-1.4-2.2c-0.8,0.7-1.8,1.1-2.7,1.1c-0.4,0-0.9-0.1-1.6-0.3c-1-0.2-1.6-0.3-2.4-0.3
	c-3.4,0-5.6,1.8-5.6,4.5c0,2,0.9,3.2,2.8,3.7c-2.2,0.6-2.4,1.4-2.4,2.2c0,0.9,0.4,1.5,1,1.7c0.6,0.3,1.6,0.4,3.2,0.4H96
	c1.4,0,2.4,0.4,2.4,1.6c0,0.5-0.3,1-0.9,1.3c-0.5,0.3-1.3,0.4-2.2,0.4c-1.6,0-2.5-0.6-2.5-1.6c0-0.4,0-0.5,0.2-0.9h-3.2
	c-0.1,0.3-0.3,0.6-0.3,1.3c0,0.9,0.4,1.7,1.1,2.3c1.2,1.1,3.1,1.4,5,1.4c2.1,0,4.1-0.5,5.2-1.7c0.7-0.8,1.1-1.6,1.1-2.7
	c0-1.2-0.4-2.1-1.1-2.8c-0.9-0.9-2-1.2-4-1.2h-1.9c-0.4,0-0.6-0.1-0.6-0.3c0-0.4,0.5-0.7,1.4-1.1c0.3,0,0.4,0,0.5,0
	c2.8,0,4.9-1.7,4.9-3.9c0-0.9-0.3-1.5-0.8-2.2h0.1c0.2,0,0.5,0.1,0.8,0.1C102.2,14.8,102.9,14.5,103.6,13.8z M97.5,16.6
	c0,1.2-0.7,1.9-2.1,1.9c-1.2,0-2-0.5-2-1.9c0-1.2,0.7-2,2.1-2C96.8,14.7,97.5,15.4,97.5,16.6z"/>
  <path class="st1" d="M135.3,18.9c0-2.1-0.5-3.6-1.5-4.8c-1.1-1.3-2.6-2-4.5-2c-3.6,0-5.9,2.8-5.9,6.9c0,4.2,2.3,6.8,5.9,6.8
	c2,0,3.4-0.7,4.4-1.8C134.8,22.8,135.3,21.2,135.3,18.9z M131.5,18.9c0,3.1-0.6,4.5-2.1,4.5c-0.7,0-1.4-0.4-1.8-1.1
	c-0.3-0.7-0.4-1.8-0.4-3.3c0-1.3,0.1-2.2,0.4-2.9c0.3-0.8,1-1.3,1.8-1.3c0.6,0,1.2,0.3,1.5,0.7C131.3,16,131.5,17.1,131.5,18.9z"/>
  <path class="st0" d="M148.4,16v9.7H145v-8.6c0-1.5-0.3-1.9-1.2-1.9c-0.7,0-1.6,0.5-2.4,1.2v9.3h-3.5v-9.6c0-1.1-0.2-2.2-0.5-3.1
	l3.1-0.9c0.3,0.5,0.5,1.1,0.5,1.7l0,0c0.5-0.3,0.9-0.6,1.5-1c0.7-0.4,1.6-0.6,2.4-0.6c1.5,0,2.8,0.8,3.2,1.9
	C148.4,14.6,148.4,15.1,148.4,16z"/>
  <path class="st0" d="M158.7,25.3l-0.4-2.1c-0.6,0.2-0.9,0.3-1.2,0.3c-1.2,0-1.5-0.4-1.5-2.1v-6.6h2.2l0.9-2.4h-3.1
	c0-1.3,0.1-2.8,0.2-4l-3.5,0.9c-0.1,1-0.1,1.8-0.1,3.1h-1.3v2.4h1.3v7.2c0,1.2,0,1.5,0.2,2c0.4,1.2,1.8,1.9,3.6,1.9
	C156.8,25.9,157.7,25.7,158.7,25.3z"/>
  <path class="st1" d="M170.2,21.2c0,1.4,0.1,2.1,1.2,2.9l-1.8,2.1c-0.8-0.3-1.5-0.9-1.9-1.6c-0.3,0.3-0.5,0.5-0.8,0.7
	c-0.6,0.5-1.6,0.7-2.7,0.7c-2.9,0-4.5-1.5-4.5-4.1c0-3.1,2.1-4.5,6.4-4.5c0.3,0,0.5,0,0.8,0v-0.5c0-1.5-0.3-2-1.5-2
	c-1.1,0-2.4,0.5-3.8,1.5l-1.5-2.5c0.7-0.4,1.2-0.7,2.1-1.1c1.3-0.5,2.4-0.8,3.6-0.8c2.2,0,3.7,0.8,4.3,2.3c0.2,0.5,0.3,1,0.2,2.4
	L170.2,21.2z M166.8,22.7l0.1-2.8h-0.2c-2.4,0-3.2,0.4-3.2,2c0,1,0.6,1.7,1.5,1.7C165.6,23.6,166.2,23.2,166.8,22.7z"/>
  <path class="st0" d="M191.4,16v9.7H188v-8.6c0-1.5-0.3-1.9-1.2-1.9c-0.7,0-1.6,0.5-2.4,1.2v9.3h-3.5v-9.6c0-1.1-0.2-2.2-0.5-3.1
	l3.1-0.9c0.3,0.5,0.5,1.1,0.5,1.7l0,0c0.5-0.3,0.9-0.6,1.5-1c0.7-0.4,1.6-0.6,2.4-0.6c1.5,0,2.8,0.8,3.2,1.9
	C191.3,14.6,191.4,15.1,191.4,16z"/>
  <path class="st1" d="M205.7,20.1v-0.8c0-2.8-0.5-4.5-1.8-5.8c-0.9-0.9-2.3-1.4-3.8-1.4c-1.8,0-3.1,0.6-4.2,1.8
	c-1.2,1.3-1.7,2.9-1.7,5.2c0,4.2,2.5,6.8,6.2,6.8c1.9,0,3.5-0.6,5-1.8l-1.3-2.1c-1.1,0.9-2.2,1.3-3.4,1.3c-1.8,0-2.8-1.2-2.8-3.2
	v-0.1h7.8V20.1z M202.1,17.6h-4v-0.1c0-1.8,0.7-2.9,2.1-2.9c0.7,0,1.2,0.3,1.5,0.8c0.3,0.5,0.4,1,0.4,2V17.6z"/>
  <path class="st0" d="M214.4,12.1c0.5,0,0.7,0.1,1.3,0.3l-1,3c-0.3-0.2-0.6-0.3-1-0.3c-0.8,0-1.5,0.4-2.1,1.1v9.3h-3.5v-8.8
	c0-1.8-0.2-3.1-0.5-3.9l3.1-0.8c0.3,0.5,0.5,1.1,0.5,1.9C212,13,213.1,12.1,214.4,12.1z"/>
  <path class="st1" d="M235.9,25.6c0,0-3.3-5.7-4.3-7c-0.2-0.3-0.4-0.5-0.7-0.7c2.2-0.1,4-2.3,4-5c0-3.2-2.1-5.3-5.3-5.3h-6.7v17.9
	h3.5v-7.5c0.2,0,0.4,0.1,0.6,0.2c0.6,0.3,1.2,1.2,3,4.4c0.7,1.3,1,1.8,1.7,2.9h4.2V25.6z M231.1,13c0,0.7-0.3,1.4-0.7,1.8
	c-0.5,0.4-1.2,0.6-2.7,0.6h-1.3v-4.9h1.3c0.9,0,1.6,0.1,2,0.3C230.6,11.1,231.1,11.9,231.1,13z"/>
  <path class="st1" d="M248.4,19.3v0.8h-7.6v0.1c0,2,1,3.2,2.8,3.2c1.2,0,2.3-0.4,3.4-1.3l1.3,2.1c-1.5,1.2-3.1,1.8-5,1.8
	c-3.8,0-6.2-2.7-6.2-6.8c0-2.4,0.5-4,1.7-5.2c1.1-1.2,2.4-1.8,4.2-1.8c1.5,0,3,0.5,3.8,1.4C247.8,14.7,248.4,16.5,248.4,19.3z
	 M240.8,17.6h4v-0.2c0-1-0.1-1.5-0.4-2c-0.3-0.5-0.8-0.8-1.5-0.8C241.5,14.6,240.8,15.7,240.8,17.6L240.8,17.6z"/>
  <path class="st1" d="M263.8,13.8l-1.4-2.2c-0.8,0.7-1.8,1.1-2.7,1.1c-0.4,0-0.9-0.1-1.6-0.3c-1-0.2-1.6-0.3-2.4-0.3
	c-3.4,0-5.6,1.8-5.6,4.5c0,2,0.9,3.2,2.8,3.7c-2.2,0.6-2.4,1.4-2.4,2.2c0,0.9,0.4,1.5,1,1.7c0.6,0.3,1.6,0.4,3.2,0.4h1.5
	c1.4,0,2.4,0.4,2.4,1.6c0,0.5-0.3,1-0.9,1.3c-0.5,0.3-1.3,0.4-2.2,0.4c-1.6,0-2.5-0.6-2.5-1.6c0-0.4,0-0.5,0.2-0.9H250
	c-0.1,0.3-0.3,0.6-0.3,1.3c0,0.9,0.4,1.7,1.1,2.3c1.2,1.1,3.1,1.4,5,1.4c2.1,0,4.1-0.5,5.2-1.7c0.7-0.8,1.1-1.6,1.1-2.7
	c0-1.2-0.4-2.1-1.1-2.8c-0.9-0.9-2-1.2-4-1.2h-1.9c-0.4,0-0.6-0.1-0.6-0.3c0-0.4,0.5-0.7,1.4-1.1c0.3,0,0.4,0,0.5,0
	c2.8,0,4.9-1.7,4.9-3.9c0-0.9-0.3-1.5-0.8-2.2h0.1c0.2,0,0.5,0.1,0.8,0.1C262.3,14.8,263,14.5,263.8,13.8z M257.7,16.6
	c0,1.2-0.7,1.9-2.1,1.9c-1.2,0-2-0.5-2-1.9c0-1.2,0.7-2,2.1-2C256.9,14.7,257.7,15.4,257.7,16.6z"/>
  <path class="st0" d="M268.5,12.1v13.5H265v-13L268.5,12.1z"/>
  <path class="st0" d="M266.8,6.6c1.2,0,2.1,1,2.1,2.1s-1,2.1-2.1,2.1c-1.2,0-2.1-1-2.1-2.1S265.6,6.6,266.8,6.6z"/>
  <path class="st0" d="M281.7,21.4c0-0.9-0.2-1.6-0.7-2.2s-1-1.1-2.6-1.5l-1.6-0.4c-1.2-0.3-1.7-0.7-1.7-1.3c0-0.8,0.7-1.3,1.7-1.3
	s1.9,0.3,3.3,1l1.1-2.3c-1.2-0.6-2.6-1.2-4.7-1.2c-3.1,0-5.1,1.7-5.1,4.3c0,0.9,0.3,1.8,0.7,2.4c0.5,0.6,1.5,1.2,2.4,1.3l1.5,0.3
	c1.4,0.3,2,0.7,2,1.6s-0.8,1.5-1.8,1.5c-1.5,0-3.3-0.9-4.4-1.5l-1.2,2.5c1.9,1,3.7,1.5,5.3,1.5C279.4,26,281.7,24.2,281.7,21.4z"/>
  <path class="st0" d="M290.3,23.3l0.4,2.1c-1,0.4-1.9,0.6-2.8,0.6c-1.8,0-3.2-0.8-3.6-1.9c-0.2-0.6-0.2-0.8-0.2-2v-7.2h-1.3v-2.4h1.3
	c0-1.3,0-2.1,0.1-3.1l3.5-0.9c-0.1,1.2-0.2,2.7-0.2,4h3.1l-0.9,2.4h-2.2v6.6c0,1.7,0.3,2.1,1.5,2.1
	C289.4,23.5,289.7,23.4,290.3,23.3z"/>
  <path class="st0" d="M300.5,12.4c-0.5-0.2-0.8-0.3-1.3-0.3c-1.3,0-2.3,0.9-3.1,1.9c-0.1-0.7-0.2-1.3-0.5-1.9l-3.1,0.8
	c0.3,0.7,0.5,2.1,0.5,3.9v8.8h3.5v-9.3c0.6-0.7,1.3-1.1,2.1-1.1c0.4,0,0.7,0.1,1,0.3l0.9-2.7l3.1,9.2c0.1,0.3,0.4,1.3,0.8,2.3l0,0
	c0.2,0.5,0.3,1,0.5,1.4h0.9c-0.3,0.8-0.4,1-0.7,1.5c-0.3,0.4-0.6,0.8-1,1.1c-0.5,0.4-1.4,0.7-2.1,0.9l1.2,2.3
	c1.2-0.2,2.3-0.6,3.2-1.2c1-0.7,1.6-1.8,2.5-4.4l4.8-13.4h-3.6l-2,6.3c-0.2,0.6-0.4,1.4-0.5,1.8c-0.2,0.6-0.4,2-0.4,2.1
	c0-0.1-0.1-0.4-0.2-0.9c-0.2-0.6-0.4-1.4-0.5-1.9l-2.3-7.7l-3.5,0.4L300.5,12.4z"/>
  <path class="st0" d="M476,18.6h-2v7h-1.8v-7h-1.4v-0.8l1.4-0.5v-0.5c0-1,0.2-1.7,0.7-2.2s1.2-0.7,2.1-0.7c0.6,0,1.2,0.1,1.8,0.3
	l-0.5,1.3c-0.4-0.1-0.9-0.2-1.3-0.2s-0.7,0.1-0.9,0.4c-0.2,0.2-0.3,0.6-0.3,1.1v0.5h2v1.3H476z"/>
  <path class="st1" d="M409.1,24.6c0.6,0.8,1.4,1.1,2.4,1.1c1.1,0,1.9-0.4,2.5-1.2h0.1l0.3,1.1h1.4V13.8H414v3c0,0.3,0,0.8,0.1,1.4
	H414c-0.6-0.8-1.4-1.2-2.5-1.2c-1,0-1.9,0.4-2.5,1.1c-0.6,0.8-0.9,1.8-0.9,3.2C408.2,22.8,408.5,23.9,409.1,24.6z M413.6,23.7
	c-0.3,0.4-0.9,0.6-1.6,0.6s-1.1-0.2-1.5-0.7c-0.3-0.5-0.5-1.2-0.5-2.1s0.2-1.7,0.5-2.2s0.8-0.8,1.4-0.8c0.7,0,1.3,0.2,1.6,0.7
	c0.3,0.4,0.5,1.2,0.5,2.2v0.2C414.1,22.6,413.9,23.3,413.6,23.7z"/>
  <path class="st1" d="M360,17.9c0,1.2-0.4,2-1.1,2.7c-0.8,0.6-1.8,0.9-3.2,0.9h-1.3v4.1h-1.8V14.5h3.2c1.4,0,2.4,0.3,3.1,0.8
	C359.6,16,360,16.8,360,17.9z M354.4,19.9h1c0.9,0,1.6-0.2,2-0.5s0.6-0.8,0.6-1.5c0-0.6-0.2-1.1-0.6-1.4s-1-0.5-1.8-0.5h-1.2V19.9z"
  />
  <path class="st1" d="M369.4,21.4c0,1.4-0.3,2.4-1.1,3.2c-0.7,0.8-1.7,1.1-2.9,1.1c-0.8,0-1.5-0.2-2.1-0.5c-0.6-0.4-1.1-0.9-1.4-1.5
	c-0.3-0.7-0.5-1.4-0.5-2.3c0-1.4,0.3-2.4,1-3.2c0.7-0.8,1.7-1.1,2.9-1.1c1.2,0,2.2,0.4,2.9,1.2C369.1,19,369.4,20.1,369.4,21.4z
	 M363.3,21.4c0,1.9,0.7,2.9,2.1,2.9s2.1-1,2.1-2.9s-0.7-2.9-2.1-2.9c-0.7,0-1.3,0.2-1.6,0.7C363.5,19.8,363.3,20.5,363.3,21.4z"/>
  <path class="st0" d="M377.2,21.7l1.1,3.9h2l2.4-8.4h-1.8l-1.1,4.1c-0.3,1.1-0.5,2-0.5,2.6h-0.1c0-0.3-0.1-0.7-0.2-1.2
	s-0.2-0.9-0.3-1.1l-1.2-4.4h-2l-1.3,4.4c-0.1,0.2-0.2,0.6-0.3,1.1c-0.1,0.5-0.2,0.9-0.2,1.3l0,0c-0.1-0.7-0.3-1.6-0.5-2.6l-1.1-4.1
	h-1.8l2.3,8.4h2l1.1-3.9c0.2-0.6,0.4-1.5,0.7-2.9h0.1C376.9,20.3,377.1,21.3,377.2,21.7z"/>
  <path class="st1" d="M387.8,25.8c-1.3,0-2.3-0.4-3.1-1.1c-0.7-0.8-1.1-1.8-1.1-3.1c0-1.4,0.3-2.4,1-3.2c0.7-0.8,1.6-1.2,2.8-1.2
	c1.1,0,2,0.3,2.6,1s1,1.6,1,2.8v1h-5.6c0,0.8,0.2,1.4,0.7,1.9c0.4,0.4,1,0.7,1.7,0.7c0.5,0,1,0,1.4-0.1s0.9-0.3,1.4-0.5v1.4
	c-0.4,0.2-0.9,0.4-1.3,0.4C388.9,25.7,388.4,25.8,387.8,25.8z M387.5,18.4c-0.6,0-1,0.2-1.4,0.5c-0.3,0.4-0.5,0.9-0.6,1.6h3.8
	c0-0.7-0.2-1.2-0.5-1.6C388.5,18.6,388,18.4,387.5,18.4z"/>
  <path class="st0" d="M398.2,17.2c-0.2-0.1-0.5-0.1-0.9-0.1c-0.5,0-1,0.1-1.4,0.4s-0.8,0.7-1.1,1.2h-0.1l-0.2-1.5h-1.4v8.4h1.8v-4.4
	c0-0.7,0.2-1.3,0.7-1.8c0.4-0.5,1-0.7,1.7-0.7c0.3,0,0.5,0,0.8,0.1L398.2,17.2z"/>
  <path class="st1" d="M403.4,25.8c-1.3,0-2.3-0.4-3.1-1.1c-0.7-0.8-1.1-1.8-1.1-3.1c0-1.4,0.3-2.4,1-3.2c0.7-0.8,1.6-1.2,2.8-1.2
	c1.1,0,2,0.3,2.6,1s1,1.6,1,2.8v1H401c0,0.8,0.2,1.4,0.7,1.9c0.4,0.4,1,0.7,1.7,0.7c0.5,0,1,0,1.4-0.1s0.9-0.3,1.4-0.5v1.4
	c-0.4,0.2-0.9,0.4-1.3,0.4C404.5,25.7,404,25.8,403.4,25.8z M403.1,18.4c-0.6,0-1,0.2-1.4,0.5c-0.3,0.4-0.5,0.9-0.6,1.6h3.8
	c0-0.7-0.2-1.2-0.5-1.6C404.1,18.6,403.7,18.4,403.1,18.4z"/>
  <path class="st1" d="M426.7,17.1c1,0,1.9,0.4,2.4,1.1c0.6,0.8,0.9,1.8,0.9,3.2c0,1.4-0.3,2.4-0.9,3.2c-0.6,0.8-1.4,1.1-2.5,1.1
	s-1.9-0.4-2.5-1.1H424l-0.3,1h-1.3V13.8h1.8v2.8c0,0.2,0,0.5,0,0.9s0,0.7,0,0.8h0.1C424.7,17.5,425.6,17.1,426.7,17.1z M426.2,18.5
	c-0.7,0-1.2,0.2-1.6,0.6c-0.3,0.4-0.5,1.1-0.5,2.1v0.1c0,1,0.2,1.8,0.5,2.2c0.3,0.5,0.9,0.7,1.6,0.7c0.6,0,1.1-0.2,1.4-0.7
	s0.5-1.2,0.5-2.2C428.2,19.5,427.5,18.5,426.2,18.5z"/>
  <path class="st0" d="M432.7,17.2h-1.9l3.4,8.4l-0.3,0.8c-0.3,1-1,1.5-1.8,1.5c-0.3,0-0.6,0-0.9-0.1v1.4c0.4,0.1,0.8,0.1,1.2,0.1
	c1.5,0,2.6-0.9,3.3-2.6l3.6-9.5h-1.9c-1.2,3.4-1.8,5.2-1.9,5.6s-0.2,0.7-0.2,1h-0.1c-0.1-0.6-0.3-1.2-0.5-1.9L432.7,17.2z"/>
  <path class="st1" d="M451.5,25.6l-1.1-3.1h-4.2l-1.1,3.1h-1.9l4.1-11.1h2l4.1,11.1H451.5z M449.9,21l-1-3c-0.1-0.2-0.2-0.5-0.3-1
	c-0.1-0.4-0.2-0.8-0.3-1c-0.1,0.6-0.3,1.3-0.6,2l-1,2.9h3.2V21z"/>
  <path class="st0" d="M459.8,17.2c-0.2-0.1-0.5-0.1-0.9-0.1c-0.5,0-1,0.1-1.4,0.4s-0.8,0.7-1.1,1.2h-0.1l-0.2-1.5h-1.4v8.4h1.8v-4.4
	c0-0.7,0.2-1.3,0.7-1.8c0.4-0.5,1-0.7,1.7-0.7c0.3,0,0.5,0,0.8,0.1L459.8,17.2z"/>
  <path class="st0" d="M464.5,24.3c0.4,0,0.9-0.1,1.3-0.2v1.3c-0.2,0.1-0.5,0.2-0.8,0.2c-0.3,0.1-0.6,0.1-1,0.1
	c-1.7,0-2.5-0.9-2.5-2.7v-4.5h-1.1v-0.8l1.2-0.7l0.6-1.8h1.1v1.9h2.4v1.3h-2.4v4.5c0,0.4,0.1,0.7,0.3,1
	C463.8,24.2,464.1,24.3,464.5,24.3z"/>
  <path class="st0" d="M467.5,25.6h1.8v-8.4h-1.8V25.6z"/>
  <path class="st0" d="M467.6,14.3c-0.2,0.2-0.3,0.4-0.3,0.7s0.1,0.5,0.3,0.7c0.2,0.2,0.4,0.3,0.7,0.3c0.3,0,0.6-0.1,0.7-0.3
	c0.2-0.2,0.3-0.4,0.3-0.7s-0.1-0.6-0.3-0.7c-0.2-0.2-0.4-0.3-0.7-0.3S467.8,14.1,467.6,14.3z"/>
  <path class="st1" d="M482.3,24.4l0.4,1.2h1.3V20c0-1-0.3-1.7-0.8-2.2s-1.3-0.7-2.4-0.7c-0.5,0-1,0.1-1.5,0.2s-1,0.3-1.5,0.5l0.6,1.3
	c0.4-0.2,0.7-0.3,1.1-0.4s0.8-0.2,1.2-0.2c0.5,0,0.9,0.1,1.2,0.4c0.3,0.3,0.4,0.7,0.4,1.2v0.4h-1.4c-1.3,0-2.3,0.3-2.9,0.7
	c-0.6,0.4-1,1.1-1,2c0,0.8,0.2,1.4,0.7,1.9c0.5,0.4,1.1,0.7,1.9,0.7c0.6,0,1.2-0.1,1.6-0.3C481.5,25.3,481.9,25,482.3,24.4
	L482.3,24.4z M481.6,23.9c-0.4,0.4-0.9,0.5-1.5,0.5c-0.4,0-0.8-0.1-1-0.3c-0.2-0.2-0.3-0.5-0.3-0.9c0-0.5,0.2-0.9,0.6-1.1
	c0.4-0.3,1-0.4,1.8-0.4h1.1v0.6C482.2,23,482,23.5,481.6,23.9z"/>
  <path class="st0" d="M489.8,25.8c-1.3,0-2.2-0.4-2.9-1.1c-0.7-0.7-1-1.8-1-3.2c0-1.4,0.3-2.5,1-3.2c0.7-0.8,1.7-1.1,3-1.1
	c0.9,0,1.7,0.2,2.4,0.5l-0.5,1.4c-0.8-0.3-1.4-0.4-1.9-0.4c-1.4,0-2.2,1-2.2,2.9c0,0.9,0.2,1.6,0.5,2.1c0.4,0.5,0.9,0.7,1.6,0.7
	c0.8,0,1.5-0.2,2.2-0.6v1.6c-0.3,0.2-0.7,0.3-1,0.4C490.8,25.7,490.3,25.8,489.8,25.8z"/>
  <path class="st0" d="M498.5,24.1c-0.4,0.1-0.9,0.2-1.3,0.2c-0.3,0-0.6-0.1-0.8-0.3c-0.2-0.2-0.3-0.5-0.3-1v-4.5h2.4v-1.3h-2.4v-1.9
	H495l-0.6,1.8l-1.2,0.7v0.8h1.1v4.5c0,1.8,0.8,2.7,2.5,2.7c0.3,0,0.7,0,1-0.1s0.6-0.1,0.8-0.2v-1.4H498.5z"/>
  <path class="st1" d="M507.6,21.4c0,1.4-0.4,2.4-1.1,3.2c-0.7,0.8-1.7,1.1-2.9,1.1c-0.8,0-1.5-0.2-2.1-0.5c-0.6-0.4-1.1-0.9-1.4-1.5
	c-0.3-0.7-0.5-1.4-0.5-2.3c0-1.4,0.3-2.4,1-3.2c0.7-0.8,1.7-1.1,2.9-1.1c1.2,0,2.2,0.4,2.9,1.2C507.3,19,507.6,20.1,507.6,21.4z
	 M501.6,21.4c0,1.9,0.7,2.9,2.1,2.9s2.1-1,2.1-2.9s-0.7-2.9-2.1-2.9c-0.7,0-1.3,0.2-1.6,0.7C501.7,19.8,501.6,20.5,501.6,21.4z"/>
  <path class="st0" d="M514.8,17.2c-0.2-0.1-0.5-0.1-0.9-0.1c-0.5,0-1,0.1-1.4,0.4s-0.8,0.7-1.1,1.2h-0.1l-0.2-1.5h-1.4v8.4h1.8v-4.4
	c0-0.7,0.2-1.3,0.7-1.8c0.4-0.5,1-0.7,1.7-0.7c0.3,0,0.5,0,0.8,0.1L514.8,17.2z"/>
  <path class="st0" d="M515.1,17.2h1.9l1.7,4.7c0.3,0.7,0.4,1.3,0.5,1.9h0.1c0-0.3,0.1-0.6,0.2-1c0.1-0.4,0.8-2.3,1.9-5.6h1.9
	l-3.6,9.5c-0.6,1.7-1.7,2.6-3.3,2.6c-0.4,0-0.8,0-1.2-0.1v-1.4c0.3,0.1,0.6,0.1,0.9,0.1c0.9,0,1.5-0.5,1.8-1.5l0.3-0.8L515.1,17.2z"
  />
  <path class="st0" d="M333.7,7h-0.5v23.3h0.5V7z"/>
</svg>
