<svg xmlns="http://www.w3.org/2000/svg" width="33.66" height="32.55" viewBox="0 0 33.66 32.55"><defs><style>.a{fill:#fff;}</style></defs><title>jfrog_general</title><path class="a" d="M18.28,22.29a1.59,1.59,0,0,0-.64.13,3.35,3.35,0,0,0-1.13,1,2.67,2.67,0,0,0-.31-1.14l-1.77.5a7.64,7.64,0,0,1,.28,2.33v5.31h2V24.81a1.56,1.56,0,0,1,1.21-.67,1.1,1.1,0,0,1,.58.16L19,22.46A1.45,1.45,0,0,0,18.28,22.29Z" transform="translate(-1.25 -0.93)"/><path class="a" d="M11.18,21.42h3.27l.12-.94a34.9,34.9,0,0,1-5.24-.81H9.12V30.43h2.06V25.66H13.8V23.89H11.18Z" transform="translate(-1.25 -0.93)"/><path class="a" d="M5.89,28.57a5.22,5.22,0,0,1-.2,2,3.48,3.48,0,0,1-1.2,1.3l1,1.12a3.81,3.81,0,0,0,2.39-2.53A7.86,7.86,0,0,0,8,28.34V19.69H5.89Z" transform="translate(-1.25 -0.93)"/><path class="a" d="M22,22.32c-2,0-3.39,1.67-3.39,4.17S20,30.61,22,30.61a3,3,0,0,0,2.5-1.11,4.44,4.44,0,0,0,.94-3.07,4.27,4.27,0,0,0-.87-2.91A3.1,3.1,0,0,0,22,22.32Zm.06,6.78a1.09,1.09,0,0,1-1-.65,6,6,0,0,1-.25-2,6.09,6.09,0,0,1,.2-1.77,1.09,1.09,0,0,1,1-.81,1,1,0,0,1,.86.42,3.93,3.93,0,0,1,.4,2.13C23.32,28.29,23,29.1,22.09,29.1Z" transform="translate(-1.25 -0.93)"/><path class="a" d="M33.69,23.35,32.87,22a2.34,2.34,0,0,1-1.57.68,3.34,3.34,0,0,1-.93-.17,4.76,4.76,0,0,0-1.36-.2c-1.93,0-3.18,1.06-3.18,2.69a2,2,0,0,0,1.62,2.2,2.43,2.43,0,0,0-1.15.61,1.09,1.09,0,0,0-.24.73,1.45,1.45,0,0,0,.15.65,1,1,0,0,0,.43.39,5.6,5.6,0,0,0,1.81.25c.46,0,.74,0,.84,0a2.4,2.4,0,0,1,1,.23.84.84,0,0,1,.35.71,1,1,0,0,1-.47.81A2.23,2.23,0,0,1,29,31.9c-.91,0-1.41-.35-1.41-1a1.18,1.18,0,0,1,.09-.52H25.8a1.62,1.62,0,0,0-.18.81,1.93,1.93,0,0,0,.62,1.42,4.11,4.11,0,0,0,2.86.85,3.92,3.92,0,0,0,3-1,2.53,2.53,0,0,0,0-3.34,3,3,0,0,0-2.29-.71l-1.06,0c-.21,0-.33-.07-.33-.18s.28-.41.79-.66a1.68,1.68,0,0,0,.29,0,2.52,2.52,0,0,0,2.79-2.36,2,2,0,0,0-.44-1.31,3.61,3.61,0,0,0,.52.05A1.81,1.81,0,0,0,33.69,23.35ZM29,26.18A1,1,0,0,1,27.82,25a1.19,1.19,0,0,1,2.37,0A1.06,1.06,0,0,1,29,26.18Z" transform="translate(-1.25 -0.93)"/><path class="a" d="M8.76,2.41c.36.11.52.44.83.06a.56.56,0,0,0,0-.72.78.78,0,0,0-1-.05A.46.46,0,0,0,8.76,2.41Z" transform="translate(-1.25 -0.93)"/><path class="a" d="M9.88,4.58c.52.57,1,.4,1.38,1a2,2,0,0,1,0,2.43,4.84,4.84,0,0,0,1.51,1.74c1.71-1.38,3.55-1.59,6.18-.51,1.14.48,1.61-1.16,3.08-.95,3.79.54,3.07,2,5.43.48,1.41-.88,1.64-2.28,3.87-3.4,1.55-.79.48-1.83-.21-1.51-1.2.56-.31,1.41-3.4,3.61-1.5,1.08-1.77.11-1.88-.59s-.25-.74-.5-.45A2.37,2.37,0,0,1,23.15,7c-1.08-.26-1.38-2.24-1.43-3.06s-.53-.69-.62-.2c-.53,3-2.25,1.95-4.2,2.19s-3.67,2-6.16-2.24C10.07,2.52,9.36,4,9.88,4.58Z" transform="translate(-1.25 -0.93)"/><path class="a" d="M33.62,2.9c.44-.5.46-.8.23-1.13s-.71-.27-1.19.08A.88.88,0,0,0,32.43,3C32.71,3.27,33.45,3.09,33.62,2.9Z" transform="translate(-1.25 -0.93)"/><path class="a" d="M21.41,2.52c.23.06.52-.3.53-.65s-.15-.58-.49-.56-.48.18-.46.52C21.07,2.47,21.18,2.46,21.41,2.52Z" transform="translate(-1.25 -0.93)"/><path class="a" d="M32.15,7a.65.65,0,0,0,.82.13.52.52,0,0,0,0-.8.51.51,0,0,0-.78-.05C32,6.59,32,6.81,32.15,7Z" transform="translate(-1.25 -0.93)"/><path class="a" d="M13.12,14.29c3.31,2.07,11,1.46,13.51-.15,1.17-.76.88-2,1.56-3.72a3.48,3.48,0,0,1,2.28-2c1.66-.26.19-2.16-.58-1.09-1.85,2.59-1.77,2-3.59,2.9-5,2.57-4.16-1-6.2.38-3.21,2.17-5,1.86-7.12.45A17.75,17.75,0,0,1,9.82,6.81c-.47-1-.44,1.66-3.41-1.31C4.94,4,5.61,3.9,4.88,3.39S3,3.67,4,4.42C11.41,10.09,10.52,12.67,13.12,14.29Z" transform="translate(-1.25 -0.93)"/><path class="a" d="M8.26,5.35c.21-.12.17-.45,0-.73a.5.5,0,0,0-.75,0,.42.42,0,0,0,0,.65A.67.67,0,0,0,8.26,5.35Z" transform="translate(-1.25 -0.93)"/><path class="a" d="M1.67,1c-.3.18-.67.88-.17,1.19s1.08,1,1.57.46c.16-.18.36-.52,0-1.16A1.28,1.28,0,0,0,1.67,1Z" transform="translate(-1.25 -0.93)"/><path class="a" d="M8.81,10.32c-2.47.6-4.15,1.78-4.15,3.15,0,.84.64,1.61,1.72,2.22a3,3,0,0,1-.5-1.62C5.88,12.65,7,11.35,8.81,10.32Z" transform="translate(-1.25 -0.93)"/><path class="a" d="M32,14.25c0-.94-.8-1.81-2.17-2.53A1.93,1.93,0,0,1,30.31,13c0,2.27-4.83,4.11-10.79,4.11S8.73,15.22,8.73,13A1.74,1.74,0,0,1,9,12.11a2.75,2.75,0,0,0-1.5,2.14c0,2.45,5.49,4.44,12.26,4.44S32,16.7,32,14.25Z" transform="translate(-1.25 -0.93)"/><path class="a" d="M33.42,13.24a2.62,2.62,0,0,1,.13.83c0,2.56-3.57,4.75-8.63,5.65a14.58,14.58,0,0,0,1.78.1c4.53,0,8.21-1.87,8.21-4.18A3.06,3.06,0,0,0,33.42,13.24Z" transform="translate(-1.25 -0.93)"/></svg>