<?xml version="1.0" encoding="utf-8"?>
<!-- Generator: Adobe Illustrator 17.0.0, SVG Export Plug-In . SVG Version: 6.00 Build 0)  -->
<!DOCTYPE svg PUBLIC "-//W3C//DTD SVG 1.1//EN" "http://www.w3.org/Graphics/SVG/1.1/DTD/svg11.dtd">

<svg id="rest_api" xmlns="http://www.w3.org/2000/svg" viewBox="0 0 45.2 47.6">
    <path class="wheel1" d="M30.3 30.1a3.8 3.8 0 0 1-3.8-3.4 13.36 13.36 0 0 1-1.8-.7 3.58 3.58 0 0 1-2.4.9 3.76 3.76 0 0 1-3.8-3.8 3.58 3.58 0 0 1 .9-2.4 13.36 13.36 0 0 1-.7-1.8 3.82 3.82 0 0 1 0-7.6 13.36 13.36 0 0 1 .7-1.8 3.58 3.58 0 0 1-.9-2.4 3.82 3.82 0 0 1 6.2-3 13.36 13.36 0 0 1 1.8-.7 3.82 3.82 0 0 1 7.6 0 8.65 8.65 0 0 1 1.7.7 3.58 3.58 0 0 1 2.4-.9A3.76 3.76 0 0 1 42 7a3.58 3.58 0 0 1-.9 2.4 13.36 13.36 0 0 1 .7 1.8 3.82 3.82 0 0 1 0 7.6 13.36 13.36 0 0 1-.7 1.8A3.58 3.58 0 0 1 42 23a3.86 3.86 0 0 1-1.1 2.7 4 4 0 0 1-5.1.3 13.36 13.36 0 0 1-1.8.7 3.64 3.64 0 0 1-3.7 3.4zm-5.8-6.4a.75.75 0 0 1 .5.1 10.24 10.24 0 0 0 2.7 1.1.92.92 0 0 1 .7 1.1v.2a1.8 1.8 0 0 0 3.6 0v-.1a1 1 0 0 1 .7-1.2 8.08 8.08 0 0 0 2.7-1.1.9.9 0 0 1 1.3.3c.1.1.1.2.2.2a1.85 1.85 0 0 0 2.5 0 1.9 1.9 0 0 0 .5-1.3 1.66 1.66 0 0 0-.5-1.2c-.1-.1-.2-.1-.3-.2a1 1 0 0 1-.2-1.3 9 9 0 0 0 1.1-2.7.92.92 0 0 1 1.1-.7h.2a1.8 1.8 0 0 0 0-3.6h-.2a1.1 1.1 0 0 1-1.2-.7 8.08 8.08 0 0 0-1.1-2.7 1 1 0 0 1 .2-1.3c.1-.1.2-.1.2-.2a1.85 1.85 0 0 0 .5-1.2 2.1 2.1 0 0 0-.5-1.3 1.75 1.75 0 0 0-2.5 0c-.1.1-.1.2-.2.2a1 1 0 0 1-1.3.2 9 9 0 0 0-2.7-1.1.92.92 0 0 1-.7-1.1v-.2A1.8 1.8 0 0 0 30 2.1c-1 0-1.5.7-1.5 1.7v.1a1 1 0 0 1-.7 1.2 8.08 8.08 0 0 0-2.7 1.1 1 1 0 0 1-1.3-.2l-.2-.2a1.85 1.85 0 0 0-2.5 0 1.9 1.9 0 0 0-.5 1.3 1.66 1.66 0 0 0 .5 1.2c.1.1.2.1.2.2a1 1 0 0 1 .2 1.3 9 9 0 0 0-1.1 2.7.92.92 0 0 1-1.1.7h-.2a1.8 1.8 0 1 0 0 3.6h.1a1 1 0 0 1 1.2.7 8.08 8.08 0 0 0 1.1 2.7 1 1 0 0 1-.2 1.3c-.1.1-.2.1-.2.2a1.85 1.85 0 0 0-.5 1.2 2.1 2.1 0 0 0 .5 1.3 1.75 1.75 0 0 0 2.5 0c.1-.1.1-.2.2-.3a1.17 1.17 0 0 1 .7-.2z"/>
    <path class="wheel2" d="M9.2 47.6a2.77 2.77 0 0 1-.9-.1A3.2 3.2 0 0 1 6 44a7 7 0 0 1-1-.8 3.1 3.1 0 0 1-3.8-1.3 3.32 3.32 0 0 1-.3-2.4A3.37 3.37 0 0 1 2 37.8a4.87 4.87 0 0 1-.1-1.2 3.36 3.36 0 0 1-1.8-3.8 3.2 3.2 0 0 1 3.5-2.3 7 7 0 0 1 .8-1 3.38 3.38 0 0 1-.1-2 3.17 3.17 0 0 1 1.5-1.9 3.36 3.36 0 0 1 4.1.8 4.87 4.87 0 0 1 1.2-.1 3.3 3.3 0 0 1 3.8-1.8 3.2 3.2 0 0 1 2.3 3.5 7 7 0 0 1 1 .8 3.17 3.17 0 0 1 3.9 1.4 3.32 3.32 0 0 1 .3 2.4 3.1 3.1 0 0 1-1.1 1.6 4.87 4.87 0 0 1 .1 1.2 3.25 3.25 0 0 1 1.8 3.8 3.42 3.42 0 0 1-3.6 2.4 7 7 0 0 1-.8 1 3.38 3.38 0 0 1 .1 2 3.17 3.17 0 0 1-1.5 1.9 3.23 3.23 0 0 1-4.1-.8 4.87 4.87 0 0 1-1.2.1 3.12 3.12 0 0 1-2.9 1.8zM5.3 41a.9.9 0 0 1 .7.3 11.5 11.5 0 0 0 1.7 1.4 1.1 1.1 0 0 1 .4 1.3c0 .1 0 .1-.1.1a1.2 1.2 0 0 0 2.3.7v-.2a1 1 0 0 1 1-.8h.2a6.93 6.93 0 0 0 2-.3 1 1 0 0 1 1.2.6c0 .1 0 .1.1.2a1.23 1.23 0 0 0 1.6.4 1.34 1.34 0 0 0 .6-.7.75.75 0 0 0-.1-.8l-.2-.2a1 1 0 0 1 .1-1.3 11.5 11.5 0 0 0 1.4-1.7 1 1 0 0 1 1.2-.4h.1a.76.76 0 0 0 .4.1 1.17 1.17 0 0 0 1.1-.9 1.24 1.24 0 0 0-.8-1.5H20a.9.9 0 0 1-.8-1 8.33 8.33 0 0 0-.3-2.2 1 1 0 0 1 .6-1.2c.1 0 .1 0 .2-.1a1.8 1.8 0 0 0 .5-.7 1 1 0 0 0-.1-.9 1.17 1.17 0 0 0-1.5-.5c.1.1 0 .1 0 .2a.93.93 0 0 1-1.3-.1 11.5 11.5 0 0 0-1.7-1.4 1.1 1.1 0 0 1-.4-1.3.1.1 0 0 1 .1-.1 1.1 1.1 0 0 0-.8-1.4 1.24 1.24 0 0 0-1.5.8v.1a1.06 1.06 0 0 1-1 .9h-.2a6.93 6.93 0 0 0-2 .3 1 1 0 0 1-1.2-.6c0-.1-.1-.1-.1-.2a1.23 1.23 0 0 0-1.6-.4 1.34 1.34 0 0 0-.6.7.75.75 0 0 0 .1.8l.2.2a1 1 0 0 1-.1 1.3 11.5 11.5 0 0 0-1.4 1.7 1.33 1.33 0 0 1-1.4.4c-.1 0-.1-.1-.2-.1h-.3a1.17 1.17 0 0 0-1.1.9 1.24 1.24 0 0 0 .8 1.5h.2a1.06 1.06 0 0 1 .9 1 8.33 8.33 0 0 0 .3 2.2 1 1 0 0 1-.6 1.2c-.1 0-.1.1-.2.1a1.8 1.8 0 0 0-.5.7 1.4 1.4 0 0 0 .1.9 1.17 1.17 0 0 0 1.5.5l.2-.2a.55.55 0 0 1 .5-.3z"/>
    <path d="M30.3 10.5a4.5 4.5 0 1 0 4.5 4.5 4.55 4.55 0 0 0-4.5-4.5zm0 7.1a2.5 2.5 0 1 1 2.5-2.5 2.54 2.54 0 0 1-2.5 2.5zM12.6 32.4a3.4 3.4 0 0 0-1-.1 3.7 3.7 0 0 0-1 7.3 3.4 3.4 0 0 0 1 .1 3.8 3.8 0 0 0 3.3-5.6 4 4 0 0 0-2.3-1.7zm.7 4.1a1.8 1.8 0 0 1-2.2 1.2 1.77 1.77 0 0 1-1.2-2.2 1.7 1.7 0 0 1 1.7-1.3.9.9 0 0 1 .5.1 1.78 1.78 0 0 1 1.1.8 2.3 2.3 0 0 1 .1 1.4z"/>
</svg>