<?xml version="1.0" encoding="utf-8"?>
<!-- Generator: Adobe Illustrator 17.0.0, SVG Export Plug-In . SVG Version: 6.00 Build 0)  -->
<!DOCTYPE svg PUBLIC "-//W3C//DTD SVG 1.1//EN" "http://www.w3.org/Graphics/SVG/1.1/DTD/svg11.dtd">
<svg xmlns="http://www.w3.org/2000/svg" viewBox="0 0 32 39.55">
    <path class="line line5" d="M24 30.55H7a1 1 0 0 0 0 2h17a1 1 0 0 0 0-2z"/>
    <path class="line line4" d="M24.3 25.95l-16.7-3.5a1 1 0 0 0-1.2.8 1 1 0 0 0 .8 1.2l16.7 3.5h.2a1 1 0 0 0 1-.8 1 1 0 0 0-.8-1.2z"/>
    <path class="line line3" d="M24.9 21.15l-15.7-7a1 1 0 0 0-.8 1.8l15.7 7a.6.6 0 0 0 .4.1 1 1 0 0 0 .9-.6c.3-.4 0-1-.5-1.3z"/>
    <path class="line line2" d="M12.9 6.85a1 1 0 0 0-1.2 1.6l14.6 10.3a1.42 1.42 0 0 0 .6.2.9.9 0 0 0 .8-.4 1.06 1.06 0 0 0-.2-1.4z"/>
    <path class="line line1" d="M31.2 13.85L20.2.35a1 1 0 1 0-1.5 1.3l11 13.5a1.23 1.23 0 0 0 .8.4 1.42 1.42 0 0 0 .6-.2 1.2 1.2 0 0 0 .1-1.5z"/>
    <path d="M31 39.55H1a.94.94 0 0 1-1-1v-14a1 1 0 0 1 2 0v13h28v-13a1 1 0 0 1 2 0v14a.94.94 0 0 1-1 1z"/>
</svg>