<?xml version="1.0" encoding="utf-8"?>
<!-- Generator: Adobe Illustrator 17.0.0, SVG Export Plug-In . SVG Version: 6.00 Build 0)  -->
<!DOCTYPE svg PUBLIC "-//W3C//DTD SVG 1.1//EN" "http://www.w3.org/Graphics/SVG/1.1/DTD/svg11.dtd">
<svg xmlns="http://www.w3.org/2000/svg" viewBox="0 0 54.45 54.5">
    <path class="lines" d="M32.5 16.9a.9.9 0 0 0 .7-.3L40 9.8a1 1 0 1 0-1.4-1.4l-6.8 6.8a1 1 0 0 0 0 1.4 1.08 1.08 0 0 0 .7.3zM36.2 21a1 1 0 0 0 1.4 0l6.8-6.8a1 1 0 0 0-1.4-1.4l-6.8 6.8a1 1 0 0 0 0 1.4zM16.8 31.6a1 1 0 0 0-1.4 0l-6.1 6.1a1 1 0 0 0 0 1.4 1 1 0 0 0 1.4 0l6.1-6.1a1 1 0 0 0 0-1.4zM19.4 36.5l-5.7 5.7a1 1 0 0 0 0 1.4 1 1 0 0 0 1.4 0l5.7-5.7a1 1 0 0 0-1.4-1.4zM15 21a1 1 0 0 0 1.4 0 1 1 0 0 0 0-1.4l-5.8-5.8a1 1 0 0 0-1.4 1.4zM15 9.3a1 1 0 0 0-1.4 1.4l5.8 5.8a1 1 0 0 0 1.4 0 1 1 0 0 0 0-1.4zM33.1 36.3a1 1 0 1 0-1.4 1.4l6.8 6.8a1 1 0 0 0 1.4 0 1 1 0 0 0 0-1.4zM37.5 31.8c-.4-.4-.7-.2-1.1.2s-.7.8-.3 1.2l6.8 6.8a1 1 0 0 0 1.4 0 1 1 0 0 0 0-1.4z"/>
    <path d="M27 13.7a12.63 12.63 0 1 0 9 3.7 13.06 13.06 0 0 0-9-3.7zm7.6 20.4a10.66 10.66 0 0 1-7.6 3.1 10.35 10.35 0 0 1-7.6-3.2 10.78 10.78 0 1 1 18.4-7.7 11.22 11.22 0 0 1-3.2 7.8z"/>
    <path d="M51.2 19.4l-5.5-5.5a21.43 21.43 0 0 0-6-6L35 3.2A10.8 10.8 0 0 0 27.2 0a11 11 0 0 0-7.8 3.2l-4.1 4.1a22.42 22.42 0 0 0-7.5 7.5l-4.6 4.6A10.8 10.8 0 0 0 0 27.2 11 11 0 0 0 3.2 35l16.3 16.3a10.8 10.8 0 0 0 7.8 3.2 11 11 0 0 0 7.8-3.2L51.4 35a11.23 11.23 0 0 0-.2-15.6zM20.1 3.8a10.14 10.14 0 0 1 14.2 0L36.5 6a23.06 23.06 0 0 0-9.4-2.1 22 22 0 0 0-8.8 1.8zM3.9 34.2a10.14 10.14 0 0 1 0-14.2l2.4-2.4A22.62 22.62 0 0 0 7.7 38zm30.3 16.3a9.5 9.5 0 0 1-7 2.9 9.9 9.9 0 0 1-7.1-2.9l-4.6-4.6A21.9 21.9 0 0 0 27 49.1a22.55 22.55 0 0 0 12.4-3.7zM27 47a20.26 20.26 0 0 1-14.5-6 20.64 20.64 0 0 1 0-29.1 20.52 20.52 0 0 1 29 0 20.52 20.52 0 0 1 0 29A19.8 19.8 0 0 1 27 47zm23.5-12.8l-4.7 4.7a22.3 22.3 0 0 0 3.7-12.4 21.55 21.55 0 0 0-2.1-9.4l3 3a9.87 9.87 0 0 1 .1 14.1z"/>
</svg>