<?xml version="1.0" encoding="utf-8"?>
<!-- Generator: Adobe Illustrator 17.0.0, SVG Export Plug-In . SVG Version: 6.00 Build 0)  -->
<!DOCTYPE svg PUBLIC "-//W3C//DTD SVG 1.1//EN" "http://www.w3.org/Graphics/SVG/1.1/DTD/svg11.dtd">
<svg id="userguide" xmlns="http://www.w3.org/2000/svg" viewBox="0 0 54 39.6">
    <path d="M53 5.6h-2V3a.9.9 0 0 0-.5-.8C48.2.8 44.2 0 39.6 0a30.85 30.85 0 0 0-12.3 2.3C20.94-.7 8.96-.8 4.1 2.2a.9.9 0 0 0-.5.8v2.6H1a.94.94 0 0 0-1 1v32a.94.94 0 0 0 1 1h52a.94.94 0 0 0 1-1v-32a.94.94 0 0 0-1-1zM28.1 4l.26-.1a29.7 29.7 0 0 1 11.24-2A22.86 22.86 0 0 1 49 3.6v28.2a21.13 21.13 0 0 0-6.5-1c-5.6 0-11.5 1.8-13.4 1.8h-.8l-.2-28.36zM5.6 3.7c4.23-2.2 14.65-2.4 20.6.35l.2 28.85h-1c-1.9-.5-13.4-3.4-19.8-1zm46.6 33.9H2v-30h1.6v25.7a1.05 1.05 0 0 0 .5.9.9.9 0 0 0 1 0c4.3-2.7 14.5-.9 19.9.5h4.3c.1 0 .2.1.3 0a60 60 0 0 1 13-1.8c3.1 0 5.4.5 6.9 1.4a1.08 1.08 0 0 0 1.1 0 1.15 1.15 0 0 0 .6-.9V7.6h1z"/>

    <path class="line line1" d="M8.3 6.3c4.7-2.2 11.84-1.93 15-.08"/>
    <path class="line line2" d="M8.3 11.54c4.7-2.2 11.84-1.94 15-.1"/>
    <path class="line line3" d="M8.3 16.77c4.7-2.2 11.84-1.94 15-.1"/>
    <path class="line line4" d="M8.3 22c4.7-2.2 11.84-1.93 15-.08"/>
    <path class="line line5" d="M8.3 27.24c4.7-2.2 11.84-1.94 15-.1"/>
    <path class="line line6" d="M31.42 6.3c4.7-2.2 11.85-1.93 15-.08"/>
    <path class="line line7" d="M31.42 11.54c4.7-2.2 11.85-1.94 15-.1"/>
    <path class="line line8" d="M31.42 16.77c4.7-2.2 11.85-1.94 15-.1"/>
    <path class="line line9" d="M31.42 22c4.7-2.2 11.85-1.93 15-.08"/>
    <path class="line line10" d="M31.42 27.24c4.7-2.2 11.85-1.94 15-.1"/>
</svg>