<?xml version="1.0" encoding="utf-8"?>
<!-- Generator: Adobe Illustrator 17.0.0, SVG Export Plug-In . SVG Version: 6.00 Build 0)  -->
<!DOCTYPE svg PUBLIC "-//W3C//DTD SVG 1.1//EN" "http://www.w3.org/Graphics/SVG/1.1/DTD/svg11.dtd">
<svg id="webinar" xmlns="http://www.w3.org/2000/svg" viewBox="0 0 56 56">
    <path d="M47.4 36.8H8.6c-.6 0-1-.4-1-1V10.9c0-.6.4-1 1-1h38.8c.6 0 1 .4 1 1v24.9c0 .6-.5 1-1 1zm-37.8-2h36.8V11.9H9.6v22.9z"/>
    <path d="M49 5.8H7.1c-2 0-3.6 1.6-3.6 3.6v28c0 2 1.6 3.6 3.6 3.6h15.6c-1.8 1.4-3.2 3.4-3.2 5.9 0 .6.4 1 1 1h15.6c.6 0 1-.4 1-1v-.2c-.1-2.4-1.4-4.4-3.2-5.7h15c2 0 3.6-1.6 3.7-3.6v-28c0-2-1.6-3.6-3.6-3.6zM35 45.9H21.6c.7-3 4.2-4.9 6.7-4.9s6 1.9 6.7 4.9zm15.6-8.5c0 .9-.7 1.6-1.6 1.6H7.1c-.9 0-1.6-.7-1.6-1.6v-28c0-.9.7-1.6 1.6-1.6H49c.9 0 1.6.7 1.6 1.6v28z"/>
    <path class="play" d="M24.5 30.4c-.2 0-.3 0-.5-.1-.3-.2-.5-.5-.5-.9V17.3c0-.4.2-.7.5-.9.3-.2.7-.2 1 0l9.2 6.1c.3.2.4.5.4.8s-.2.6-.4.8L25 30.3c-.1.1-.3.1-.5.1zm1-11.2v8.4l6.4-4.2-6.4-4.2z"/>
</svg>